<svg width="102" height="111" viewBox="0 0 102 111" fill="none" xmlns="http://www.w3.org/2000/svg">
<path d="M50.7 101.6C78.7 101.6 101.4 78.9 101.4 50.8C101.4 22.7 78.6 0 50.7 0C22.7 0 0 22.7 0 50.8C0 78.9 22.7 101.6 50.7 101.6Z" fill="#F5F6FA"/>
<path d="M44.2013 80.2996L42.2013 80.7996C41.8013 80.8996 41.3013 80.5996 41.2013 80.0996C41.1013 79.5996 41.3013 79.0996 41.7013 78.9996L43.7013 78.4996C44.1013 78.3996 44.6013 78.6996 44.7013 79.1996C44.8013 79.7996 44.6013 80.1996 44.2013 80.2996Z" fill="#D5DAE5"/>
<g filter="url(#filter0_dd_12445_27143)">
<path d="M87.086 38.6725L77.886 95.0725C77.586 96.9725 75.686 98.2725 73.786 97.8725L18.986 88.2725C17.086 87.9725 15.786 86.0725 16.086 84.1725L28.786 11.8725C29.086 9.97249 30.986 8.67249 32.886 9.07249L72.686 16.0725L87.086 38.6725Z" fill="white"/>
</g>
<path d="M72.5857 16.0723L69.8857 31.5723C69.4857 33.7723 71.0857 35.8723 73.2857 36.2723L87.0857 38.6723" fill="#D5DAE5"/>
<path d="M47.2859 71.0734C47.1859 70.6734 47.1859 70.2734 47.1859 69.7734C47.1859 68.0734 47.8859 66.5734 49.6859 65.2734L51.1859 64.1734C52.0859 63.4734 52.4859 62.6734 52.4859 61.6734C52.4859 60.2734 51.4859 58.8734 49.3859 58.8734C47.1859 58.8734 46.1859 60.6734 46.1859 62.3734C46.1859 62.7734 46.1859 63.0734 46.2859 63.3734L42.2859 63.2734C42.1859 62.8734 42.0859 62.3734 42.0859 61.8734C42.0859 58.4734 44.5859 55.2734 49.2859 55.2734C54.0859 55.2734 56.6859 58.3734 56.6859 61.4734C56.6859 63.9734 55.3859 65.6734 53.5859 66.9734L52.2859 67.8734C51.1859 68.6734 50.5859 69.6734 50.5859 70.8734V71.0734H47.2859ZM48.9859 73.0734C50.3859 73.0734 51.4859 74.1734 51.4859 75.5734C51.4859 76.9734 50.3859 78.0734 48.9859 78.0734C47.5859 78.0734 46.4859 76.9734 46.4859 75.5734C46.5859 74.2734 47.5859 73.0734 48.9859 73.0734Z" fill="#989FB0"/>
<path d="M82.7662 102.097C81.9006 102.097 81.035 101.75 80.3426 100.971L65.8872 86.5159L65.3679 86.8622C60.6937 90.3245 55.2404 92.1423 49.7007 92.1423C43.0356 92.1423 36.3706 89.4589 31.4367 84.7848C26.2432 79.8509 23.3867 73.1858 23.3867 65.9149C23.3867 51.4595 35.1587 39.6875 49.6141 39.6875C59.4818 39.6875 68.1377 44.881 72.8119 53.7101C77.3996 62.4525 76.7936 72.6665 71.1673 80.8896L70.8211 81.409L85.363 95.9509C86.8345 97.4224 86.4883 98.8939 86.2286 99.6729C85.5361 101.058 84.1512 102.097 82.7662 102.097ZM49.6141 46.8719C39.0539 46.8719 30.5711 55.4412 30.5711 65.9149C30.5711 77.86 40.3523 85.0444 49.8738 85.0444C55.6732 85.0444 60.9533 82.4477 64.6754 77.7735C69.263 72.0606 70.042 64.3568 66.8394 57.6918C63.5501 51.0267 56.9716 46.8719 49.6141 46.8719Z" fill="#989FB0"/>
<defs>
<filter id="filter0_dd_12445_27143" x="7.04297" y="4" width="89.043" height="106.945" filterUnits="userSpaceOnUse" color-interpolation-filters="sRGB">
<feFlood flood-opacity="0" result="BackgroundImageFix"/>
<feColorMatrix in="SourceAlpha" type="matrix" values="0 0 0 0 0 0 0 0 0 0 0 0 0 0 0 0 0 0 127 0" result="hardAlpha"/>
<feOffset dy="4"/>
<feGaussianBlur stdDeviation="4.5"/>
<feColorMatrix type="matrix" values="0 0 0 0 0.397708 0 0 0 0 0.47749 0 0 0 0 0.575 0 0 0 0.15 0"/>
<feBlend mode="normal" in2="BackgroundImageFix" result="effect1_dropShadow_12445_27143"/>
<feColorMatrix in="SourceAlpha" type="matrix" values="0 0 0 0 0 0 0 0 0 0 0 0 0 0 0 0 0 0 127 0" result="hardAlpha"/>
<feOffset dy="1"/>
<feGaussianBlur stdDeviation="0.5"/>
<feComposite in2="hardAlpha" operator="out"/>
<feColorMatrix type="matrix" values="0 0 0 0 0 0 0 0 0 0 0 0 0 0 0 0 0 0 0.03 0"/>
<feBlend mode="normal" in2="effect1_dropShadow_12445_27143" result="effect2_dropShadow_12445_27143"/>
<feBlend mode="normal" in="SourceGraphic" in2="effect2_dropShadow_12445_27143" result="shape"/>
</filter>
</defs>
</svg>
