<svg width="12" height="14" viewBox="0 0 12 14" fill="none" xmlns="http://www.w3.org/2000/svg">
<path d="M8.50098 0C8.77687 0.000246792 9.00091 0.224064 9.00098 0.5V1.40039H10L10.2041 1.41113C11.2126 1.51347 11.9998 2.36497 12 3.40039V12L11.9893 12.2041C11.8937 13.1454 11.1454 13.8937 10.2041 13.9893L10 14H2L1.7959 13.9893C0.854437 13.8938 0.106337 13.1455 0.0107422 12.2041L0 12V3.40039C0.00018533 2.36491 0.787341 1.51338 1.7959 1.41113L2 1.40039H2.66602V0.5C2.66608 0.223927 2.88993 2.45595e-05 3.16602 0C3.44212 0 3.66595 0.223912 3.66602 0.5V1.40039H8.00098V0.5C8.00104 0.223912 8.22487 0 8.50098 0ZM1 12C1.00017 12.5521 1.44782 13 2 13H10C10.5521 12.9999 10.9998 12.5521 11 12V5.80762H1V12ZM3.33301 9.80176C3.70105 9.80194 3.99902 10.1155 3.99902 10.502C3.99886 10.8883 3.70095 11.201 3.33301 11.2012C2.96492 11.2012 2.66618 10.8884 2.66602 10.502C2.66602 10.1154 2.96482 9.80176 3.33301 9.80176ZM6.00098 9.80176C6.36917 9.80176 6.66797 10.1154 6.66797 10.502C6.66781 10.8884 6.36907 11.2012 6.00098 11.2012C5.63296 11.2011 5.33512 10.8883 5.33496 10.502C5.33496 10.1154 5.63286 9.80185 6.00098 9.80176ZM8.66797 9.80176C9.03601 9.80194 9.33398 10.1155 9.33398 10.502C9.33382 10.8883 9.03591 11.201 8.66797 11.2012C8.29988 11.2012 8.00114 10.8884 8.00098 10.502C8.00098 10.1154 8.29978 9.80176 8.66797 9.80176ZM3.33301 6.99707C3.70105 6.99725 3.99902 7.3108 3.99902 7.69727C3.99893 8.08364 3.70099 8.39728 3.33301 8.39746C2.96488 8.39746 2.66611 8.08376 2.66602 7.69727C2.66602 7.31069 2.96482 6.99707 3.33301 6.99707ZM6.00098 6.99707C6.36917 6.99707 6.66797 7.31069 6.66797 7.69727C6.66787 8.08376 6.36911 8.39746 6.00098 8.39746C5.63292 8.39737 5.33506 8.0837 5.33496 7.69727C5.33496 7.31075 5.63286 6.99716 6.00098 6.99707ZM8.66797 6.99707C9.03601 6.99725 9.33398 7.3108 9.33398 7.69727C9.33389 8.08364 9.03595 8.39728 8.66797 8.39746C8.29984 8.39746 8.00107 8.08376 8.00098 7.69727C8.00098 7.31069 8.29978 6.99707 8.66797 6.99707ZM2 2.40039C1.44784 2.40039 1.0002 2.84828 1 3.40039V4.89746H11V3.40039C10.9998 2.88294 10.6065 2.45668 10.1025 2.40527L10 2.40039H9.00098V3C9.00093 3.27595 8.77688 3.49975 8.50098 3.5C8.22486 3.5 8.00102 3.27611 8.00098 3V2.40039H3.66602V3C3.66597 3.27611 3.44213 3.5 3.16602 3.5C2.88992 3.49998 2.66606 3.27609 2.66602 3V2.40039H2Z" fill="#333046"/>
</svg>
