<svg width="18" height="22" viewBox="0 0 18 22" fill="none" xmlns="http://www.w3.org/2000/svg">
<path d="M9.0001 16.4C8.39673 16.4001 7.81545 16.173 7.37203 15.7638C6.9286 15.3546 6.65557 14.7934 6.6073 14.192C5.00672 13.6255 3.65776 12.5117 2.79853 11.0472C1.93929 9.58282 1.62504 7.86192 1.91125 6.18833C2.19745 4.51474 3.06571 2.99607 4.36275 1.90039C5.65979 0.804713 7.30221 0.202485 9.0001 0.200012C10.806 0.199751 12.546 0.878117 13.8752 2.1006C15.2044 3.32309 16.0256 5.00042 16.1761 6.80001C16.1811 6.87807 16.1698 6.95632 16.143 7.02978C16.1161 7.10325 16.0743 7.17033 16.0201 7.22675C15.966 7.28318 15.9006 7.32772 15.8283 7.35755C15.756 7.38738 15.6783 7.40184 15.6001 7.40001C15.4394 7.39598 15.2859 7.33234 15.1694 7.22146C15.053 7.11057 14.982 6.96036 14.9701 6.80001C14.8632 5.73901 14.4755 4.72567 13.8469 3.8643C13.2182 3.00293 12.3714 2.32466 11.3935 1.89932C10.4157 1.47397 9.34211 1.31693 8.28338 1.44435C7.22465 1.57176 6.21901 1.97904 5.36999 2.62425C4.52096 3.26946 3.85923 4.12929 3.45292 5.11521C3.04661 6.10114 2.9104 7.17754 3.05831 8.2336C3.20622 9.28966 3.63291 10.2872 4.29445 11.1236C4.95599 11.9599 5.82848 12.6049 6.8221 12.992C7.00289 12.6014 7.28543 12.2665 7.64011 12.0226C7.99478 11.7786 8.40854 11.6346 8.83802 11.6055C9.2675 11.5764 9.6969 11.6634 10.0812 11.8573C10.4655 12.0512 10.7906 12.3449 11.0224 12.7076C11.2543 13.0703 11.3842 13.4887 11.3988 13.9189C11.4133 14.3491 11.3119 14.7754 11.1051 15.1529C10.8983 15.5305 10.5938 15.8454 10.2235 16.0648C9.85311 16.2843 9.43056 16.4 9.0001 16.4ZM3.0109 13.4H3.1201C3.82853 14.095 4.65449 14.6589 5.5597 15.0656C5.82572 15.9433 6.41673 16.6864 7.21206 17.1432C8.00739 17.6 8.94707 17.736 9.83925 17.5234C10.7314 17.3108 11.5089 16.7658 12.0128 15.9995C12.5167 15.2332 12.7092 14.3034 12.5509 13.4H15.0001C15.6366 13.4 16.2471 13.6529 16.6972 14.103C17.1472 14.553 17.4001 15.1635 17.4001 15.8C17.4001 17.8292 16.4005 19.3592 14.8381 20.3564C13.2997 21.3368 11.2261 21.8 9.0001 21.8C6.7741 21.8 4.7005 21.3368 3.1621 20.3564C1.5997 19.3604 0.600098 17.828 0.600098 15.8C0.600098 14.4644 1.6837 13.4 3.0109 13.4ZM13.8001 7.40001C13.8004 8.21198 13.5946 9.01074 13.2022 9.72157C12.8097 10.4324 12.2434 11.032 11.5561 11.4644C11.2214 11.1271 10.8232 10.8593 10.3845 10.6767C9.94583 10.494 9.47531 10.4 9.0001 10.4C8.52489 10.4 8.05437 10.494 7.61568 10.6767C7.17699 10.8593 6.7788 11.1271 6.4441 11.4644C5.5326 10.8912 4.84031 10.0282 4.4785 9.01401C4.29392 8.49594 4.19975 7.94999 4.2001 7.40001C4.2001 6.12697 4.70581 4.90607 5.60598 4.0059C6.50616 3.10573 7.72706 2.60001 9.0001 2.60001C10.2731 2.60001 11.494 3.10573 12.3942 4.0059C13.2944 4.90607 13.8001 6.12697 13.8001 7.40001Z" fill="#FDFDFD"/>
</svg>
