<svg width="143" height="116" viewBox="0 0 143 116" fill="none" xmlns="http://www.w3.org/2000/svg">
<path d="M71.2 101.6C99.2 101.6 121.9 78.9 121.9 50.8C121.9 22.7 99.2 0 71.2 0C43.2 0 20.5 22.7 20.5 50.8C20.5 78.9 43.2 101.6 71.2 101.6Z" fill="#F1F3FA"/>
<g filter="url(#filter0_d_11969_182524)">
<path d="M111.516 82.8694H31.0834C26.1897 82.8694 22.2998 78.9795 22.2998 74.0858V27.7836C22.2998 22.8899 26.1897 19 31.0834 19H111.516C116.41 19 120.3 22.8899 120.3 27.7836V74.0858C120.3 78.9795 116.41 82.8694 111.516 82.8694Z" fill="url(#paint0_linear_11969_182524)"/>
</g>
<path d="M47.1445 68.4392H34.3456C33.2162 68.4392 32.3379 67.5608 32.3379 66.4315C32.3379 65.3022 33.2162 64.4238 34.3456 64.4238H47.1445C48.2739 64.4238 49.1522 65.3022 49.1522 66.4315C49.1522 67.5608 48.2739 68.4392 47.1445 68.4392Z" fill="#D5DAE5"/>
<path d="M67.8487 68.4392H55.0497C53.9204 68.4392 53.042 67.5608 53.042 66.4315C53.042 65.3022 53.9204 64.4238 55.0497 64.4238H67.8487C68.978 64.4238 69.8563 65.3022 69.8563 66.4315C69.8563 67.5608 68.978 68.4392 67.8487 68.4392Z" fill="#D5DAE5"/>
<path d="M88.5537 68.4392H75.7548C74.6254 68.4392 73.7471 67.5608 73.7471 66.4315C73.7471 65.3022 74.6254 64.4238 75.7548 64.4238H88.5537C89.6831 64.4238 90.5614 65.3022 90.5614 66.4315C90.5614 67.5608 89.6831 68.4392 88.5537 68.4392Z" fill="#D5DAE5"/>
<path d="M109.258 68.4392H96.4589C95.3295 68.4392 94.4512 67.5608 94.4512 66.4315C94.4512 65.3022 95.3295 64.4238 96.4589 64.4238H109.258C110.387 64.4238 111.266 65.3022 111.266 66.4315C111.266 67.5608 110.387 68.4392 109.258 68.4392Z" fill="#D5DAE5"/>
<path d="M48.2739 46.7311H34.2201C33.2163 46.7311 32.3379 45.8527 32.3379 44.8489V35.8143C32.3379 34.8105 33.2163 33.9321 34.2201 33.9321H48.1484C49.1522 33.9321 50.0306 34.8105 50.0306 35.8143V44.8489C50.1561 45.8527 49.2777 46.7311 48.2739 46.7311Z" fill="#D5DAE5"/>
<path d="M128.013 83.6426C127.613 85.3426 127.013 87.1426 126.313 88.6426C124.413 92.3426 121.413 95.2426 117.713 97.1426C113.913 99.0426 109.413 99.8426 104.913 98.8426C94.3132 96.6426 87.5132 86.2426 89.7132 75.6426C91.9132 65.0426 102.213 58.1426 112.813 60.4426C116.613 61.2426 119.913 63.1426 122.713 65.7426C127.413 70.4426 129.413 77.2426 128.013 83.6426Z" fill="url(#paint1_linear_11969_182524)"/>
<path d="M115.114 77.9427H110.614V73.4427C110.614 72.5427 109.914 71.7427 108.914 71.7427C108.014 71.7427 107.214 72.4427 107.214 73.4427V77.9427H102.714C101.814 77.9427 101.014 78.6427 101.014 79.6427C101.014 80.6427 101.714 81.3427 102.714 81.3427H107.214V85.8427C107.214 86.7427 107.914 87.5427 108.914 87.5427C109.814 87.5427 110.614 86.8427 110.614 85.8427V81.3427H115.114C116.014 81.3427 116.814 80.6427 116.814 79.6427C116.814 78.6427 116.014 77.9427 115.114 77.9427Z" fill="white"/>
<defs>
<filter id="filter0_d_11969_182524" x="0.299805" y="8" width="142" height="107.869" filterUnits="userSpaceOnUse" color-interpolation-filters="sRGB">
<feFlood flood-opacity="0" result="BackgroundImageFix"/>
<feColorMatrix in="SourceAlpha" type="matrix" values="0 0 0 0 0 0 0 0 0 0 0 0 0 0 0 0 0 0 127 0" result="hardAlpha"/>
<feOffset dy="11"/>
<feGaussianBlur stdDeviation="11"/>
<feColorMatrix type="matrix" values="0 0 0 0 0.397708 0 0 0 0 0.47749 0 0 0 0 0.575 0 0 0 0.27 0"/>
<feBlend mode="normal" in2="BackgroundImageFix" result="effect1_dropShadow_11969_182524"/>
<feBlend mode="normal" in="SourceGraphic" in2="effect1_dropShadow_11969_182524" result="shape"/>
</filter>
<linearGradient id="paint0_linear_11969_182524" x1="71.2679" y1="17.5226" x2="71.2679" y2="83.558" gradientUnits="userSpaceOnUse">
<stop stop-color="#FDFEFF"/>
<stop offset="0.9964" stop-color="#ECF0F5"/>
</linearGradient>
<linearGradient id="paint1_linear_11969_182524" x1="108.879" y1="61.3644" x2="108.879" y2="83.4094" gradientUnits="userSpaceOnUse">
<stop stop-color="#B0BACC"/>
<stop offset="1" stop-color="#969EAE"/>
</linearGradient>
</defs>
</svg>
