<svg width="24" height="25" viewBox="0 0 24 25" fill="none" xmlns="http://www.w3.org/2000/svg">
<path id="Vector" d="M12 0.5C14.2647 0.5 16.4396 1.12955 18.3232 2.29941C18.8862 2.64907 19.0592 3.38893 18.7095 3.95192C18.3599 4.51492 17.62 4.68786 17.057 4.3382C15.5509 3.40276 13.814 2.9 12 2.9C6.69807 2.9 2.4 7.19807 2.4 12.5C2.4 17.8019 6.69807 22.1 12 22.1C17.3019 22.1 21.6 17.8019 21.6 12.5C21.6 11.7535 21.515 11.019 21.3484 10.306C21.1976 9.66069 21.5986 9.01528 22.2439 8.86448C22.8893 8.71369 23.5347 9.11461 23.6855 9.75997C23.8938 10.6517 24 11.5694 24 12.5C24 19.1274 18.6274 24.5 12 24.5C5.37258 24.5 0 19.1274 0 12.5C0 5.87258 5.37258 0.5 12 0.5ZM22.5685 3.19118C23.0318 3.59067 23.1152 4.26704 22.7849 4.76351L22.6937 4.88362L11.606 17.7428L5.22406 12.333C4.71851 11.9045 4.65608 11.1473 5.08462 10.6417C5.4802 10.1751 6.15584 10.086 6.65507 10.4121L6.77594 10.5023L11.3412 14.372L20.876 3.31638C21.3088 2.81446 22.0665 2.75841 22.5685 3.19118Z" fill="url(#paint0_linear_3414_22502)"/>
<defs>
<linearGradient id="paint0_linear_3414_22502" x1="11.968" y1="6.36957" x2="12.1009" y2="24.4993" gradientUnits="userSpaceOnUse">
<stop offset="0.0193602" stop-color="#664AEA"/>
<stop offset="0.264161" stop-color="#5340AD"/>
<stop offset="0.485296" stop-color="#44397E"/>
<stop offset="0.74058" stop-color="#3B3461"/>
<stop offset="1" stop-color="#333046"/>
</linearGradient>
</defs>
</svg>
