<svg width="40" height="40" viewBox="0 0 40 40" fill="none" xmlns="http://www.w3.org/2000/svg">
<path fill-rule="evenodd" clip-rule="evenodd" d="M20.0007 37.2611C29.5339 37.2611 37.2621 29.5329 37.2621 19.9997C37.2621 10.4665 29.5339 2.73837 20.0007 2.73837C10.4675 2.73837 2.73935 10.4665 2.73935 19.9997C2.73935 29.5329 10.4675 37.2611 20.0007 37.2611ZM20.0007 39.727C30.8958 39.727 39.728 30.8948 39.728 19.9997C39.728 9.10466 30.8958 0.272461 20.0007 0.272461C9.10564 0.272461 0.273438 9.10466 0.273438 19.9997C0.273438 30.8948 9.10564 39.727 20.0007 39.727Z" fill="#664AEA"/>
<path d="M17.5386 27.3975C17.5386 26.0356 18.6426 24.9316 20.0045 24.9316C21.3664 24.9316 22.4704 26.0356 22.4704 27.3975C22.4704 28.7594 21.3664 29.8634 20.0045 29.8634C18.6426 29.8634 17.5386 28.7594 17.5386 27.3975Z" fill="#664AEA"/>
<path d="M17.7801 12.5898C17.6488 11.2761 18.6804 10.1361 20.0007 10.1361C21.321 10.1361 22.3526 11.2761 22.2212 12.5898L21.3563 21.2388C21.2867 21.9353 20.7006 22.4657 20.0007 22.4657C19.3007 22.4657 18.7147 21.9353 18.645 21.2388L17.7801 12.5898Z" fill="#664AEA"/>
</svg>
