<svg width="19" height="19" viewBox="0 0 19 19" fill="none" xmlns="http://www.w3.org/2000/svg">
<g id="noun-clock-6607320 1" clip-path="url(#clip0_3414_27766)">
<g id="Group">
<path id="Vector" d="M9.3316 0.392731C4.402 0.392731 0.391602 4.40313 0.391602 9.33273C0.391602 14.2623 4.402 18.2727 9.3316 18.2727C14.2612 18.2727 18.2716 14.2623 18.2716 9.33273C18.2716 4.40313 14.2612 0.392731 9.3316 0.392731ZM9.8716 17.1657V16.4205C9.8716 16.1223 9.6298 15.8805 9.3316 15.8805C9.0334 15.8805 8.7916 16.1223 8.7916 16.4205V17.1657C4.8892 16.8981 1.7662 13.7751 1.4986 9.87273H2.2438C2.542 9.87273 2.7838 9.63093 2.7838 9.33273C2.7838 9.03453 2.542 8.79273 2.2438 8.79273H1.4986C1.7662 4.89033 4.8892 1.76733 8.7916 1.49973V2.24493C8.7916 2.54313 9.0334 2.78493 9.3316 2.78493C9.6298 2.78493 9.8716 2.54313 9.8716 2.24493V1.49973C13.7746 1.76673 16.897 4.88973 17.1646 8.79273H16.4194C16.1212 8.79273 15.8794 9.03453 15.8794 9.33273C15.8794 9.63093 16.1212 9.87273 16.4194 9.87273H17.1646C16.897 13.7751 13.774 16.8981 9.8716 17.1657Z" fill="#FDFDFD"/>
<path id="Vector_2" d="M9.87199 9.10894V5.45794C9.87199 5.15974 9.63019 4.91794 9.33199 4.91794C9.03379 4.91794 8.79199 5.15974 8.79199 5.45794V9.33274C8.79199 9.47614 8.84899 9.61354 8.95039 9.71434L10.9568 11.7207C11.0624 11.8263 11.2004 11.8791 11.3384 11.8791C11.4764 11.8791 11.6144 11.8263 11.72 11.7207C11.9312 11.5101 11.9312 11.1681 11.72 10.9575L9.87199 9.10894Z" fill="#FDFDFD"/>
</g>
</g>
<defs>
<clipPath id="clip0_3414_27766">
<rect width="18" height="18" fill="white" transform="translate(0.332031 0.332733)"/>
</clipPath>
</defs>
</svg>
