<svg width="112" height="102" viewBox="0 0 112 102" fill="none" xmlns="http://www.w3.org/2000/svg">
<g filter="url(#filter0_d_6047_19077)">
<path d="M55.8962 90.7507C58.7692 90.7507 61.0981 88.4139 61.0981 85.5314C61.0981 82.6488 58.7692 80.312 55.8962 80.312C53.0233 80.312 50.6943 82.6488 50.6943 85.5314C50.6943 88.4139 53.0233 90.7507 55.8962 90.7507Z" fill="#664AEA"/>
<path d="M58.1852 43.7762L48.3016 33.9116L35.505 21.1764L27.442 13.0864L17.9746 3.53497C17.4896 3.04832 16.9138 2.6623 16.2801 2.39893C15.6464 2.13556 14.9672 2 14.2813 2C13.5954 2 12.9162 2.13556 12.2825 2.39893C11.6488 2.6623 11.073 3.04832 10.588 3.53497C9.60842 4.51779 9.05812 5.85079 9.05812 7.24071C9.05812 8.63063 9.60842 9.96363 10.588 10.9465L17.7665 18.097L25.3613 25.7172L36.9615 37.4086L45.0244 45.4464L59.2775 59.7474L73.7908 74.3616L93.818 94.4561C94.3016 94.9453 94.877 95.3336 95.5108 95.5986C96.1447 95.8636 96.8247 96 97.5114 96C98.1981 96 98.878 95.8636 99.5119 95.5986C100.146 95.3336 100.721 94.9453 101.205 94.4561C101.692 93.9709 102.079 93.3937 102.343 92.7576C102.607 92.1216 102.743 91.4394 102.743 90.7504C102.743 90.0614 102.607 89.3792 102.343 88.7431C102.079 88.1071 101.692 87.5299 101.205 87.0446L58.1852 43.7762ZM106.459 27.7528C92.91 14.5696 74.7696 7.21039 55.8963 7.24071C48.0439 7.26207 40.2459 8.54849 32.8 11.0508L41.227 19.5062C51.4321 16.9477 62.1188 17.0429 72.277 19.7828C82.4351 22.5226 91.729 27.8166 99.28 35.1643C100.244 36.0969 101.53 36.6203 102.869 36.6257C103.57 36.623 104.263 36.4783 104.907 36.2003C105.55 35.9222 106.131 35.5166 106.615 35.0077C107.532 34.0143 108.028 32.7022 107.999 31.3486C107.97 29.9949 107.417 28.7056 106.459 27.7528ZM13.3449 21.072C10.5225 23.1086 7.84571 25.341 5.33405 27.7528C4.45617 28.7322 3.97986 30.0085 4.00065 31.3256C4.02145 32.6427 4.53782 33.9031 5.44619 34.8542C6.35455 35.8052 7.58772 36.3765 8.89832 36.4534C10.2089 36.5302 11.5 36.107 12.5126 35.2686C15.1068 32.8089 17.8897 30.5577 20.8357 28.5357L13.3449 21.072ZM81.9057 54.9456C82.3875 55.4388 82.962 55.8311 83.596 56.0999C84.23 56.3687 84.9108 56.5086 85.5991 56.5114C86.6156 56.5075 87.6088 56.2049 88.4558 55.6409C89.3028 55.0769 89.9665 54.2762 90.365 53.3378C90.7634 52.3994 90.8791 51.3645 90.6977 50.3609C90.5163 49.3573 90.0459 48.429 89.3444 47.6907C85.0058 43.1799 79.8111 39.5861 74.0667 37.1211C68.3222 34.656 62.144 33.3695 55.8963 33.3375H55.064L67.2884 45.603C72.8393 47.4914 77.8537 50.6964 81.9057 54.9456ZM32.1237 39.9139C28.4887 42.0382 25.1629 44.6551 22.2402 47.6907C21.2813 48.7081 20.7646 50.0661 20.8036 51.4658C20.8426 52.8655 21.4342 54.1923 22.4482 55.1544C23.4623 56.1164 24.8157 56.6349 26.2107 56.5958C27.6057 56.5566 28.9281 55.963 29.8869 54.9456C32.9174 51.9226 36.4348 49.4346 40.2907 47.5863L32.1237 39.9139ZM37.8458 66.7413C36.8525 67.7034 36.2807 69.022 36.2563 70.407C36.2443 71.0928 36.3669 71.7743 36.6173 72.4125C36.8677 73.0508 37.241 73.6332 37.7158 74.1267C38.1905 74.6202 38.7575 75.0151 39.3844 75.2887C40.0112 75.5623 40.6857 75.7094 41.3692 75.7215C42.7495 75.746 44.0831 75.2193 45.0764 74.2572C47.7544 71.779 51.1986 70.2975 54.834 70.0601C58.4694 69.8226 62.076 70.8435 65.0516 72.9524L51.9429 59.7996C46.6433 60.601 41.7198 63.0254 37.8458 66.7413Z" fill="#664AEA"/>
</g>
<defs>
<filter id="filter0_d_6047_19077" x="0" y="0" width="112" height="102" filterUnits="userSpaceOnUse" color-interpolation-filters="sRGB">
<feFlood flood-opacity="0" result="BackgroundImageFix"/>
<feColorMatrix in="SourceAlpha" type="matrix" values="0 0 0 0 0 0 0 0 0 0 0 0 0 0 0 0 0 0 127 0" result="hardAlpha"/>
<feOffset dy="2"/>
<feGaussianBlur stdDeviation="2"/>
<feComposite in2="hardAlpha" operator="out"/>
<feColorMatrix type="matrix" values="0 0 0 0 0 0 0 0 0 0 0 0 0 0 0 0 0 0 0.25 0"/>
<feBlend mode="normal" in2="BackgroundImageFix" result="effect1_dropShadow_6047_19077"/>
<feBlend mode="normal" in="SourceGraphic" in2="effect1_dropShadow_6047_19077" result="shape"/>
</filter>
</defs>
</svg>
