<svg width="27" height="23" viewBox="0 0 27 23" fill="none" xmlns="http://www.w3.org/2000/svg">
<path d="M11.9694 0.5625C10.8932 0.5625 10.0146 1.44035 10.0146 2.51562V7.59375H19.1373C20.3954 7.59375 21.4243 8.63263 21.4243 9.88638V16.2386C21.4243 17.4924 20.3954 18.5312 19.1373 18.5312H10.0146V20.4844C10.0146 21.5596 10.8932 22.4375 11.9694 22.4375H24.4801C25.5563 22.4375 26.4349 21.5596 26.4349 20.4844V6.8125H21.7434C20.8838 6.8125 20.1795 6.10887 20.1795 5.25V0.5625H11.9694ZM20.9615 0.746368V5.25C20.9615 5.68957 21.3034 6.03125 21.7434 6.03125H26.176C26.1361 5.97599 26.0949 5.92158 26.047 5.87256L21.2409 0.956177C21.1577 0.871079 21.0618 0.804462 20.9615 0.746368Z" fill="#664AEA"/>
<path fill-rule="evenodd" clip-rule="evenodd" d="M3 8.5238C1.34315 8.5238 0 9.86695 0 11.5238V14.4524C0 16.1092 1.34315 17.4524 3 17.4524H17.2553C18.9122 17.4524 20.2553 16.1092 20.2553 14.4524V11.5238C20.2553 9.86695 18.9122 8.5238 17.2553 8.5238H3ZM5.33482 14.6762C5.70682 15.0642 6.20882 15.2582 6.84082 15.2582C7.12082 15.2582 7.37482 15.2382 7.60282 15.1982C7.70282 15.1822 7.78282 15.1362 7.84282 15.0602C7.90682 14.9802 7.93882 14.8902 7.93882 14.7902V14.7482C7.93882 14.6642 7.90282 14.5982 7.83082 14.5502C7.76282 14.5022 7.68882 14.4882 7.60882 14.5082C7.42082 14.5562 7.19482 14.5802 6.93082 14.5802C6.53882 14.5802 6.22482 14.4442 5.98882 14.1722C5.75682 13.8962 5.64082 13.5082 5.64082 13.0082C5.64082 12.5042 5.75282 12.1162 5.97682 11.8442C6.20482 11.5722 6.51682 11.4362 6.91282 11.4362C7.15682 11.4362 7.37682 11.4622 7.57282 11.5142C7.65282 11.5342 7.72682 11.5202 7.79482 11.4722C7.86682 11.4242 7.90282 11.3582 7.90282 11.2742V11.2262C7.90282 11.1262 7.87082 11.0362 7.80682 10.9562C7.74282 10.8762 7.66282 10.8282 7.56682 10.8122C7.36682 10.7762 7.11882 10.7582 6.82282 10.7582C6.17882 10.7582 5.67682 10.9562 5.31682 11.3522C4.96082 11.7442 4.78282 12.2962 4.78282 13.0082C4.78282 13.7282 4.96682 14.2842 5.33482 14.6762ZM8.96496 12.7682C9.18096 12.9962 9.52896 13.1902 10.009 13.3502C10.237 13.4302 10.399 13.5222 10.495 13.6262C10.591 13.7262 10.639 13.8542 10.639 14.0102C10.639 14.3942 10.385 14.5862 9.87696 14.5862C9.58496 14.5862 9.30696 14.5202 9.04296 14.3882C8.97496 14.3562 8.90896 14.3582 8.84496 14.3942C8.78096 14.4262 8.74896 14.4802 8.74896 14.5562V14.6282C8.74896 14.7362 8.77496 14.8342 8.82696 14.9222C8.88296 15.0102 8.95896 15.0722 9.05496 15.1082C9.31896 15.2082 9.61296 15.2582 9.93696 15.2582C10.973 15.2582 11.491 14.8382 11.491 13.9982C11.491 13.6502 11.385 13.3662 11.173 13.1462C10.965 12.9262 10.591 12.7302 10.051 12.5582C9.67496 12.4342 9.48696 12.2282 9.48696 11.9402C9.48696 11.7762 9.53896 11.6482 9.64296 11.5562C9.74696 11.4642 9.89896 11.4182 10.099 11.4182C10.411 11.4182 10.717 11.4762 11.017 11.5922C11.089 11.6202 11.159 11.6142 11.227 11.5742C11.295 11.5302 11.329 11.4702 11.329 11.3942V11.3402C11.329 11.2362 11.299 11.1422 11.239 11.0582C11.183 10.9702 11.107 10.9122 11.011 10.8842C10.735 10.8002 10.411 10.7582 10.039 10.7582C9.59896 10.7582 9.25696 10.8642 9.01296 11.0762C8.76896 11.2882 8.64696 11.5762 8.64696 11.9402C8.64696 12.2642 8.75296 12.5402 8.96496 12.7682ZM11.9546 11.1422L13.1966 14.8742C13.2326 14.9702 13.2906 15.0482 13.3706 15.1082C13.4546 15.1682 13.5466 15.1982 13.6466 15.1982H13.8626C13.9666 15.1982 14.0586 15.1682 14.1386 15.1082C14.2226 15.0482 14.2806 14.9702 14.3126 14.8742L15.5546 11.1422C15.5826 11.0622 15.5726 10.9882 15.5246 10.9202C15.4766 10.8522 15.4106 10.8182 15.3266 10.8182H15.1346C15.0346 10.8182 14.9426 10.8482 14.8586 10.9082C14.7786 10.9682 14.7246 11.0462 14.6966 11.1422L13.7666 14.3702C13.7666 14.3742 13.7646 14.3762 13.7606 14.3762C13.7566 14.3762 13.7546 14.3742 13.7546 14.3702L12.8366 11.1482C12.8126 11.0522 12.7586 10.9742 12.6746 10.9142C12.5906 10.8502 12.4986 10.8182 12.3986 10.8182H12.1826C12.0986 10.8182 12.0326 10.8522 11.9846 10.9202C11.9366 10.9882 11.9266 11.0622 11.9546 11.1422Z" fill="#664AEA"/>
</svg>
