<svg width="27" height="23" viewBox="0 0 27 23" fill="none" xmlns="http://www.w3.org/2000/svg">
<path d="M11.9694 0.5625C10.8932 0.5625 10.0146 1.44035 10.0146 2.51562V7.59375H19.1373C20.3954 7.59375 21.4243 8.63263 21.4243 9.88638V16.2386C21.4243 17.4924 20.3954 18.5312 19.1373 18.5312H10.0146V20.4844C10.0146 21.5596 10.8932 22.4375 11.9694 22.4375H24.4801C25.5563 22.4375 26.4349 21.5596 26.4349 20.4844V6.8125H21.7434C20.8838 6.8125 20.1795 6.10887 20.1795 5.25V0.5625H11.9694ZM20.9615 0.746368V5.25C20.9615 5.68957 21.3034 6.03125 21.7434 6.03125H26.176C26.1361 5.97599 26.0949 5.92158 26.047 5.87256L21.2409 0.956177C21.1577 0.871079 21.0618 0.804462 20.9615 0.746368Z" fill="#664AEA"/>
<path fill-rule="evenodd" clip-rule="evenodd" d="M3 8.5238C1.34315 8.5238 0 9.86695 0 11.5238V14.4524C0 16.1092 1.34315 17.4524 3 17.4524H17.2553C18.9122 17.4524 20.2553 16.1092 20.2553 14.4524V11.5238C20.2553 9.86695 18.9122 8.5238 17.2553 8.5238H3ZM3.36729 14.5022V11.5142C3.36729 11.4862 3.38329 11.4682 3.41529 11.4602C3.54329 11.4402 3.66329 11.4302 3.77529 11.4302C4.23529 11.4302 4.57729 11.5522 4.80129 11.7962C5.02529 12.0402 5.13729 12.4242 5.13729 12.9482C5.13729 13.5322 5.02729 13.9522 4.80729 14.2082C4.58729 14.4602 4.24329 14.5862 3.77529 14.5862C3.66329 14.5862 3.54329 14.5762 3.41529 14.5562C3.38329 14.5482 3.36729 14.5302 3.36729 14.5022ZM2.62929 15.0902C2.69329 15.1622 2.77529 15.2042 2.87529 15.2162C3.13129 15.2442 3.41729 15.2582 3.73329 15.2582C4.44529 15.2582 4.98929 15.0662 5.36529 14.6822C5.74529 14.2942 5.93529 13.7162 5.93529 12.9482C5.93529 12.2322 5.74529 11.6882 5.36529 11.3162C4.98929 10.9442 4.44529 10.7582 3.73329 10.7582C3.41729 10.7582 3.13129 10.7722 2.87529 10.8002C2.77529 10.8122 2.69329 10.8562 2.62929 10.9322C2.56529 11.0042 2.53329 11.0902 2.53329 11.1902V14.8262C2.53329 14.9262 2.56529 15.0142 2.62929 15.0902ZM8.39801 11.4482C9.15801 11.4482 9.53801 11.9682 9.53801 13.0082C9.53801 14.0482 9.15801 14.5682 8.39801 14.5682C7.63801 14.5682 7.25801 14.0482 7.25801 13.0082C7.25801 11.9682 7.63801 11.4482 8.39801 11.4482ZM8.39801 15.2582C9.01401 15.2582 9.50001 15.0602 9.85601 14.6642C10.216 14.2682 10.396 13.7162 10.396 13.0082C10.396 12.3002 10.216 11.7482 9.85601 11.3522C9.50001 10.9562 9.01401 10.7582 8.39801 10.7582C7.78201 10.7582 7.29401 10.9562 6.93401 11.3522C6.57801 11.7482 6.40001 12.3002 6.40001 13.0082C6.40001 13.7162 6.57801 14.2682 6.93401 14.6642C7.29401 15.0602 7.78201 15.2582 8.39801 15.2582ZM11.4169 14.6762C11.7889 15.0642 12.2909 15.2582 12.9229 15.2582C13.2029 15.2582 13.4569 15.2382 13.6849 15.1982C13.7849 15.1822 13.8649 15.1362 13.9249 15.0602C13.9889 14.9802 14.0209 14.8902 14.0209 14.7902V14.7482C14.0209 14.6642 13.9849 14.5982 13.9129 14.5502C13.8449 14.5022 13.7709 14.4882 13.6909 14.5082C13.5029 14.5562 13.2769 14.5802 13.0129 14.5802C12.6209 14.5802 12.3069 14.4442 12.0709 14.1722C11.8389 13.8962 11.7229 13.5082 11.7229 13.0082C11.7229 12.5042 11.8349 12.1162 12.0589 11.8442C12.2869 11.5722 12.5989 11.4362 12.9949 11.4362C13.2389 11.4362 13.4589 11.4622 13.6549 11.5142C13.7349 11.5342 13.8089 11.5202 13.8769 11.4722C13.9489 11.4242 13.9849 11.3582 13.9849 11.2742V11.2262C13.9849 11.1262 13.9529 11.0362 13.8889 10.9562C13.8249 10.8762 13.7449 10.8282 13.6489 10.8122C13.4489 10.7762 13.2009 10.7582 12.9049 10.7582C12.2609 10.7582 11.7589 10.9562 11.3989 11.3522C11.0429 11.7442 10.8649 12.2962 10.8649 13.0082C10.8649 13.7282 11.0489 14.2842 11.4169 14.6762ZM14.783 15.1022C14.823 15.1662 14.881 15.1982 14.957 15.1982H15.209C15.313 15.1982 15.409 15.1702 15.497 15.1142C15.589 15.0582 15.655 14.9842 15.695 14.8922L16.337 13.5062C16.337 13.5022 16.339 13.5002 16.343 13.5002C16.347 13.5002 16.349 13.5022 16.349 13.5062L16.991 14.8922C17.031 14.9842 17.095 15.0582 17.183 15.1142C17.275 15.1702 17.373 15.1982 17.477 15.1982H17.753C17.833 15.1982 17.891 15.1662 17.927 15.1022C17.967 15.0342 17.969 14.9662 17.933 14.8982L16.931 13.0262C16.919 12.9942 16.919 12.9642 16.931 12.9362L17.903 11.1182C17.939 11.0502 17.937 10.9842 17.897 10.9202C17.861 10.8522 17.803 10.8182 17.723 10.8182H17.489C17.385 10.8182 17.289 10.8462 17.201 10.9022C17.113 10.9582 17.047 11.0322 17.003 11.1242L16.373 12.4502C16.373 12.4542 16.371 12.4562 16.367 12.4562C16.363 12.4562 16.361 12.4542 16.361 12.4502L15.731 11.1242C15.687 11.0322 15.621 10.9582 15.533 10.9022C15.445 10.8462 15.349 10.8182 15.245 10.8182H14.987C14.911 10.8182 14.853 10.8522 14.813 10.9202C14.773 10.9842 14.771 11.0502 14.807 11.1182L15.779 12.9362C15.795 12.9722 15.795 13.0022 15.779 13.0262L14.777 14.8982C14.741 14.9662 14.743 15.0342 14.783 15.1022Z" fill="#664AEA"/>
</svg>
