<svg width="25" height="24" viewBox="0 0 25 24" fill="none" xmlns="http://www.w3.org/2000/svg">
<g clip-path="url(#clip0_12264_92482)">
<path fill-rule="evenodd" clip-rule="evenodd" d="M1.25 14.85C1.66421 14.85 2 15.1858 2 15.6V19.35C2 20.1785 2.67157 20.85 3.5 20.85H21.5C22.3284 20.85 23 20.1785 23 19.35V15.6C23 15.1858 23.3358 14.85 23.75 14.85C24.1642 14.85 24.5 15.1858 24.5 15.6V19.35C24.5 21.0069 23.1569 22.35 21.5 22.35H3.5C1.84315 22.35 0.5 21.0069 0.5 19.35V15.6C0.5 15.1858 0.835786 14.85 1.25 14.85Z" fill="#664AEA"/>
<path fill-rule="evenodd" clip-rule="evenodd" d="M11.9697 17.7803C12.2626 18.0732 12.7374 18.0732 13.0303 17.7803L17.5303 13.2803C17.8232 12.9874 17.8232 12.5126 17.5303 12.2197C17.2374 11.9268 16.7626 11.9268 16.4697 12.2197L13.25 15.4393V2.25C13.25 1.83579 12.9142 1.5 12.5 1.5C12.0858 1.5 11.75 1.83579 11.75 2.25V15.4393L8.53033 12.2197C8.23744 11.9268 7.76256 11.9268 7.46967 12.2197C7.17678 12.5126 7.17678 12.9874 7.46967 13.2803L11.9697 17.7803Z" fill="#664AEA"/>
</g>
<defs>
<clipPath id="clip0_12264_92482">
<rect width="24" height="24" fill="white" transform="translate(0.5)"/>
</clipPath>
</defs>
</svg>
