<svg width="40" height="40" viewBox="0 0 40 40" fill="none" xmlns="http://www.w3.org/2000/svg">
<path fill-rule="evenodd" clip-rule="evenodd" d="M20.0002 37.2616C29.5334 37.2616 37.2616 29.5334 37.2616 20.0002C37.2616 10.467 29.5334 2.73886 20.0002 2.73886C10.467 2.73886 2.73886 10.467 2.73886 20.0002C2.73886 29.5334 10.467 37.2616 20.0002 37.2616ZM20.0002 39.7275C30.8953 39.7275 39.7275 30.8953 39.7275 20.0002C39.7275 9.10515 30.8953 0.272949 20.0002 0.272949C9.10515 0.272949 0.272949 9.10515 0.272949 20.0002C0.272949 30.8953 9.10515 39.7275 20.0002 39.7275Z" fill="#664AEA"/>
<path d="M17.5381 27.3978C17.5381 26.036 18.6421 24.9319 20.004 24.9319C21.3659 24.9319 22.4699 26.036 22.4699 27.3978C22.4699 28.7597 21.3659 29.8637 20.004 29.8637C18.6421 29.8637 17.5381 28.7597 17.5381 27.3978Z" fill="#664AEA"/>
<path d="M17.7797 12.5901C17.6483 11.2764 18.6799 10.1365 20.0002 10.1365C21.3205 10.1365 22.3521 11.2764 22.2207 12.5901L21.3558 21.2392C21.2862 21.9356 20.7001 22.466 20.0002 22.466C19.3003 22.466 18.7142 21.9356 18.6446 21.2392L17.7797 12.5901Z" fill="#664AEA"/>
</svg>
