<svg width="20" height="20" viewBox="0 0 20 20" fill="none" xmlns="http://www.w3.org/2000/svg">
<g id="Group">
<path id="Vector" d="M10 0C11.8873 0 13.6997 0.524623 15.2694 1.49951C15.7385 1.7909 15.8827 2.40744 15.5913 2.8766C15.2999 3.34577 14.6833 3.48988 14.2142 3.1985C12.959 2.41897 11.5116 2 10 2C5.58172 2 2 5.58172 2 10C2 14.4183 5.58172 18 10 18C14.4183 18 18 14.4183 18 10C18 9.37794 17.9292 8.76587 17.7904 8.1717C17.6647 7.63391 17.9988 7.09606 18.5366 6.9704C19.0744 6.84474 19.6122 7.17884 19.7379 7.71664C19.9115 8.45972 20 9.22447 20 10C20 15.5228 15.5228 20 10 20C4.47715 20 0 15.5228 0 10C0 4.47715 4.47715 0 10 0ZM18.807 2.24265C19.1931 2.57556 19.2626 3.1392 18.9874 3.55293L18.9114 3.65301L9.67165 14.369L4.35338 9.86086C3.93209 9.50375 3.88007 8.87272 4.23718 8.45143C4.56683 8.06255 5.12986 7.98831 5.54589 8.26007L5.64662 8.33523L9.451 11.56L17.3967 2.34699C17.7573 1.92872 18.3888 1.882 18.807 2.24265Z" fill="url(#paint0_linear_6559_1413)"/>
</g>
<defs>
<linearGradient id="paint0_linear_6559_1413" x1="9.97333" y1="4.8913" x2="10.0841" y2="19.9994" gradientUnits="userSpaceOnUse">
<stop offset="0.0193602" stop-color="#664AEA"/>
<stop offset="0.264161" stop-color="#5340AD"/>
<stop offset="0.485296" stop-color="#44397E"/>
<stop offset="0.74058" stop-color="#3B3461"/>
<stop offset="1" stop-color="#333046"/>
</linearGradient>
</defs>
</svg>
