<svg width="14" height="14" viewBox="0 0 14 14" fill="none" xmlns="http://www.w3.org/2000/svg">
<path fill-rule="evenodd" clip-rule="evenodd" d="M7 13.125C10.3827 13.125 13.125 10.3827 13.125 7C13.125 3.61726 10.3827 0.875 7 0.875C3.61726 0.875 0.875 3.61726 0.875 7C0.875 10.3827 3.61726 13.125 7 13.125ZM14 7C14 10.866 10.866 14 7 14C3.13401 14 0 10.866 0 7C0 3.13401 3.13401 0 7 0C10.866 0 14 3.13401 14 7Z" fill="#1E1E1E"/>
<path fill-rule="evenodd" clip-rule="evenodd" d="M6.5625 2.625C6.80412 2.625 7 2.82088 7 3.0625V7.62111L9.84206 9.24514C10.0519 9.36502 10.1247 9.63227 10.0049 9.84206C9.88498 10.0519 9.61773 10.1247 9.40794 10.0049L6.34544 8.25486C6.20913 8.17696 6.125 8.032 6.125 7.875V3.0625C6.125 2.82088 6.32088 2.625 6.5625 2.625Z" fill="#1E1E1E"/>
</svg>
