<svg width="24" height="24" viewBox="0 0 24 24" fill="none" xmlns="http://www.w3.org/2000/svg">
<path d="M8.00257 9.43077C7.99812 9.5671 8.1101 9.67662 8.2465 9.67662H9.69677C9.83484 9.67662 9.94538 9.56426 9.95813 9.42678C10.0515 8.41968 10.72 7.67237 11.9489 7.67237C12.9593 7.67237 13.8856 8.16884 13.8856 9.36403C13.8856 10.2834 13.3336 10.7063 12.4635 11.3499C11.4718 12.0578 10.6859 12.8852 10.742 14.2275L10.7479 14.6522C10.7498 14.7889 10.8612 14.8987 10.9979 14.8987H12.4287C12.5667 14.8987 12.6787 14.7868 12.6787 14.6487V14.3838C12.6787 13.3449 13.081 13.0415 14.1663 12.2325C15.0644 11.5613 16 10.8166 16 9.2537C16 7.06559 14.1195 6.0083 12.0612 6.0083C10.1657 6.0083 8.08559 6.88951 8.00257 9.43077ZM10.3023 17.666C10.3023 18.4383 10.9291 19.0083 11.7899 19.0083C12.688 19.0083 13.3055 18.4383 13.3055 17.666C13.3055 16.8662 12.688 16.3053 11.7899 16.3053C10.9291 16.3053 10.3023 16.8662 10.3023 17.666Z" fill="#252525"/>
<path d="M12 22.0083C17.5228 22.0083 22 17.5311 22 12.0083C22 6.48545 17.5228 2.0083 12 2.0083C6.47715 2.0083 2 6.48545 2 12.0083C2 17.5311 6.47715 22.0083 12 22.0083Z" stroke="#252525" stroke-width="1.5" stroke-linecap="round" stroke-linejoin="round"/>
</svg>
