<svg width="24" height="25" viewBox="0 0 24 25" fill="none" xmlns="http://www.w3.org/2000/svg">
<g id="material-symbols:history" clip-path="url(#clip0_3414_27057)">
<path id="Vector" d="M12 24.5C8.93333 24.5 6.26133 23.4835 3.984 21.4507C1.70667 19.4178 0.400889 16.8787 0.0666666 13.8333H2.8C3.11111 16.1444 4.13911 18.0555 5.884 19.5667C7.62889 21.0778 9.66755 21.8333 12 21.8333C14.6 21.8333 16.8058 20.928 18.6173 19.1173C20.4289 17.3067 21.3342 15.1009 21.3333 12.5C21.3324 9.89911 20.4271 7.69378 18.6173 5.884C16.8075 4.07422 14.6018 3.16844 12 3.16667C10.4667 3.16667 9.03333 3.52222 7.7 4.23333C6.36666 4.94444 5.24444 5.92222 4.33333 7.16666H8V9.83333H0V1.83333H2.66667V4.96667C3.8 3.54444 5.18355 2.44444 6.81733 1.66667C8.45111 0.888889 10.1787 0.5 12 0.5C13.6667 0.5 15.228 0.816889 16.684 1.45067C18.14 2.08444 19.4067 2.93955 20.484 4.016C21.5613 5.09244 22.4169 6.35911 23.0507 7.816C23.6844 9.27289 24.0009 10.8342 24 12.5C23.9991 14.1658 23.6827 15.7271 23.0507 17.184C22.4187 18.6409 21.5631 19.9076 20.484 20.984C19.4049 22.0604 18.1382 22.916 16.684 23.5507C15.2298 24.1853 13.6684 24.5018 12 24.5ZM15.7333 18.1L10.6667 13.0333V5.83333H13.3333V11.9667L17.6 16.2333L15.7333 18.1Z" fill="url(#paint0_linear_3414_27057)"/>
</g>
<defs>
<linearGradient id="paint0_linear_3414_27057" x1="11.968" y1="6.36957" x2="12.1009" y2="24.4993" gradientUnits="userSpaceOnUse">
<stop offset="0.0193602" stop-color="#664AEA"/>
<stop offset="0.264161" stop-color="#5340AD"/>
<stop offset="0.485296" stop-color="#44397E"/>
<stop offset="0.74058" stop-color="#3B3461"/>
<stop offset="1" stop-color="#333046"/>
</linearGradient>
<clipPath id="clip0_3414_27057">
<rect width="24" height="24" fill="white" transform="translate(0 0.5)"/>
</clipPath>
</defs>
</svg>
