<svg width="102" height="109" viewBox="0 0 102 109" fill="none" xmlns="http://www.w3.org/2000/svg">
<path d="M51.2 103.6C79.2 103.6 101.9 80.9 101.9 52.8C101.9 24.7 79.1 2 51.2 2C23.2 2 0.5 24.7 0.5 52.8C0.5 80.9 23.2 103.6 51.2 103.6Z" fill="#F5F6FA"/>
<g filter="url(#filter0_dd_12119_61799)">
<path d="M85.6992 27.4001L86.4992 91.8001C86.4992 94.0001 84.6992 95.7001 82.4992 95.7001H19.6992C17.4992 95.7001 15.6992 93.9001 15.6992 91.8001V9.0001C15.6992 6.8001 17.4992 5.1001 19.6992 5.1001H65.1992L85.6992 27.4001Z" fill="white"/>
</g>
<path d="M50.7 57.8005C50.6 57.4005 50.6 57.0005 50.6 56.5005C50.6 54.8005 51.3 53.3005 53.1 52.0005L54.6 50.9005C55.5 50.2005 55.9 49.4005 55.9 48.4005C55.9 47.0005 54.9 45.6005 52.8 45.6005C50.6 45.6005 49.6 47.4005 49.6 49.1005C49.6 49.5005 49.6 49.8005 49.7 50.1005L45.7 50.0005C45.6 49.6005 45.5 49.1005 45.5 48.6005C45.5 45.2005 48 42.0005 52.7 42.0005C57.5 42.0005 60.1 45.1005 60.1 48.2005C60.1 50.7005 58.8 52.4005 57 53.7005L55.7 54.6005C54.6 55.4005 54 56.4005 54 57.6005V57.8005H50.7ZM52.4 59.8005C53.8 59.8005 54.9 60.9005 54.9 62.3005C54.9 63.7005 53.8 64.8005 52.4 64.8005C51 64.8005 49.9 63.7005 49.9 62.3005C50 61.0005 51 59.8005 52.4 59.8005Z" fill="#989FB0"/>
<path d="M46.2996 82.8001H43.9996C43.4996 82.8001 43.0996 82.3001 43.0996 81.7001C43.0996 81.1001 43.4996 80.6001 43.9996 80.6001H46.2996C46.7996 80.6001 47.1996 81.1001 47.1996 81.7001C47.1996 82.4001 46.7996 82.8001 46.2996 82.8001Z" fill="#D5DAE5"/>
<path d="M39.3 82.8001H25.9C25.4 82.8001 25 82.3001 25 81.7001C25 81.1001 25.4 80.6001 25.9 80.6001H39.3C39.8 80.6001 40.2 81.1001 40.2 81.7001C40.2 82.4001 39.8 82.8001 39.3 82.8001Z" fill="#D5DAE5"/>
<path d="M56.4 18.6H26.3C25.6 18.6 25 18 25 17.3C25 16.6 25.6 16 26.3 16H56.4C57.1 16 57.7 16.6 57.7 17.3C57.7 18 57.1 18.6 56.4 18.6Z" fill="#D5DAE5"/>
<path d="M37.9 25.8002H26.3C25.6 25.8002 25 25.2002 25 24.5002C25 23.8002 25.6 23.2002 26.3 23.2002H37.8C38.5 23.2002 39.1 23.8002 39.1 24.5002C39.1 25.2002 38.5 25.8002 37.9 25.8002Z" fill="#D5DAE5"/>
<path d="M65.1992 5.1001V22.9001C65.1992 25.4001 67.3992 27.4001 69.8992 27.4001H85.6992" fill="#D5DAE5"/>
<path d="M90.5004 97.2001C89.5004 97.2001 88.5004 96.8001 87.7004 95.9001L71.0004 79.2001L70.4004 79.6001C65.0004 83.6001 58.7004 85.7001 52.3004 85.7001C44.6004 85.7001 36.9004 82.6001 31.2004 77.2001C25.2004 71.5001 21.9004 63.8001 21.9004 55.4001C21.9004 38.7001 35.5004 25.1001 52.2004 25.1001C63.6004 25.1001 73.6004 31.1001 79.0004 41.3001C84.3004 51.4001 83.6004 63.2001 77.1004 72.7001L76.7004 73.3001L93.5004 90.1001C95.2004 91.8001 94.8004 93.5001 94.5004 94.4001C93.7004 96.0001 92.1004 97.2001 90.5004 97.2001ZM52.2004 33.4001C40.0004 33.4001 30.2004 43.3001 30.2004 55.4001C30.2004 69.2001 41.5004 77.5001 52.5004 77.5001C59.2004 77.5001 65.3004 74.5001 69.6004 69.1001C74.9004 62.5001 75.8004 53.6001 72.1004 45.9001C68.3004 38.2001 60.7004 33.4001 52.2004 33.4001Z" fill="#989FB0"/>
<defs>
<filter id="filter0_dd_12119_61799" x="6.69922" y="0.100098" width="88.8008" height="108.6" filterUnits="userSpaceOnUse" color-interpolation-filters="sRGB">
<feFlood flood-opacity="0" result="BackgroundImageFix"/>
<feColorMatrix in="SourceAlpha" type="matrix" values="0 0 0 0 0 0 0 0 0 0 0 0 0 0 0 0 0 0 127 0" result="hardAlpha"/>
<feOffset dy="4"/>
<feGaussianBlur stdDeviation="4.5"/>
<feColorMatrix type="matrix" values="0 0 0 0 0.397708 0 0 0 0 0.47749 0 0 0 0 0.575 0 0 0 0.15 0"/>
<feBlend mode="normal" in2="BackgroundImageFix" result="effect1_dropShadow_12119_61799"/>
<feColorMatrix in="SourceAlpha" type="matrix" values="0 0 0 0 0 0 0 0 0 0 0 0 0 0 0 0 0 0 127 0" result="hardAlpha"/>
<feOffset dy="1"/>
<feGaussianBlur stdDeviation="0.5"/>
<feComposite in2="hardAlpha" operator="out"/>
<feColorMatrix type="matrix" values="0 0 0 0 0 0 0 0 0 0 0 0 0 0 0 0 0 0 0.03 0"/>
<feBlend mode="normal" in2="effect1_dropShadow_12119_61799" result="effect2_dropShadow_12119_61799"/>
<feBlend mode="normal" in="SourceGraphic" in2="effect2_dropShadow_12119_61799" result="shape"/>
</filter>
</defs>
</svg>
