<svg width="22" height="22" viewBox="0 0 22 22" fill="none" xmlns="http://www.w3.org/2000/svg">
<path d="M8.36793 18.6767V16.0012C8.36793 15.3182 8.92565 14.7645 9.61363 14.7645H12.1285C12.4589 14.7645 12.7758 14.8948 13.0094 15.1267C13.243 15.3586 13.3742 15.6732 13.3742 16.0012V18.6767C13.3721 18.9606 13.4843 19.2336 13.6858 19.4352C13.8873 19.6367 14.1615 19.75 14.4476 19.75H16.1633C16.9647 19.7521 17.7339 19.4375 18.3013 18.8757C18.8686 18.3139 19.1875 17.5511 19.1875 16.7556V9.1335C19.1875 8.4909 18.9006 7.88136 18.404 7.46909L12.5673 2.84139C11.552 2.02999 10.0972 2.05619 9.11222 2.90361L3.40864 7.46909C2.88865 7.86921 2.57786 8.48056 2.5625 9.1335V16.7478C2.5625 18.4059 3.91646 19.75 5.58665 19.75H7.26325C7.85732 19.75 8.34012 19.2742 8.34443 18.6845L8.36793 18.6767Z" fill="#664AEA"/>
</svg>
