<svg width="21" height="6" viewBox="0 0 21 6" fill="none" xmlns="http://www.w3.org/2000/svg">
<path d="M5.05777 1.01655C5.05398 0.713289 4.96014 0.408126 4.69285 0.237747C4.43266 0.0721134 4.0867 0.0754355 3.88196 0.327445C3.86537 0.347852 3.82983 0.382497 3.84026 0.412397C3.85068 0.442296 3.91514 0.435178 3.94215 0.448941C3.98859 0.472196 4.00708 0.518706 4.00566 0.568539C4.00376 0.626439 4.00329 1.17934 4.00092 1.94154C3.33126 1.93774 2.66113 1.93347 1.99147 1.92967C1.97868 1.76309 1.97394 1.5761 1.98579 1.37297C1.99669 1.18551 2.02086 0.998995 2.05735 0.814852C2.07346 0.734171 2.09195 0.653965 2.1128 0.574708C2.13555 0.487383 2.19858 0.380124 2.19194 0.288528C2.191 0.276188 2.18815 0.263849 2.18057 0.254357C2.16256 0.232051 2.12796 0.235848 2.10048 0.242967C1.92986 0.28663 1.76399 0.377752 1.63319 0.495926C1.5929 0.531995 1.48532 0.634507 1.38817 0.809157C1.13035 1.27141 1.10997 1.92635 1.10997 1.92635C1.0967 2.34969 1.08012 3.20775 1.53082 4.09857C1.53082 4.09857 1.84645 4.72313 2.2981 4.8769C2.3872 4.90728 2.41137 4.88734 2.41895 4.8769C2.45403 4.83181 2.37867 4.75398 2.3564 4.71934C2.31517 4.65574 2.2801 4.58835 2.24976 4.51858C2.18721 4.37478 2.1455 4.22244 2.11469 4.06914C2.02038 3.60214 1.95925 3.12945 1.97252 2.65248H4.00092V4.44502C4.00092 4.56367 4.04926 4.67805 4.15873 4.73405C4.22461 4.76774 4.29949 4.77961 4.37295 4.78863C4.50138 4.80476 4.63266 4.8133 4.75967 4.78863C4.83408 4.77439 4.90848 4.74734 4.96393 4.69561C5.05351 4.61255 5.05493 4.4996 5.05493 4.38617C5.05493 3.48587 5.06346 2.58556 5.06204 1.68526C5.06204 1.46172 5.06014 1.23866 5.05777 1.01513V1.01655Z" fill="url(#paint0_linear_320_5866)"/>
<path d="M2.27865 5.10217C1.46018 4.8625 1.14075 3.99399 0.965873 3.24081C0.927959 3.0766 0.891467 2.91477 0.869666 2.74723C0.804264 2.24084 0.807108 1.68414 0.971086 1.19531C0.84597 1.22331 0.789572 1.33105 0.716588 1.41837C0.449768 1.7373 0.428916 2.10985 0.41612 2.48004C0.385788 3.34949 0.702844 3.96789 0.773459 4.10078C0.932698 4.3993 1.10615 4.59578 1.15734 4.65225C1.33933 4.85396 1.52226 4.99396 1.66254 5.08698C1.55117 5.05946 1.39383 5.00772 1.22558 4.90379C1.06966 4.80745 0.95829 4.70019 0.885306 4.61808C0.77962 4.48282 0.705214 4.3637 0.656874 4.27922C0.526544 4.05332 0.364462 3.77188 0.281999 3.39458C0.258776 3.28875 0.243137 3.18101 0.201432 3.17674C0.141243 3.17057 0.0734718 3.38509 0.0587801 3.43112C0.0113876 3.58062 -0.000460415 3.71873 1.35102e-05 3.79182C0.00333099 4.07657 0.216597 4.63042 0.726067 5.0063C0.726067 5.0063 1.17156 5.33472 1.93363 5.35987C1.96491 5.36082 2.14926 5.35655 2.28623 5.25831C2.35353 5.2099 2.39807 5.13587 2.27865 5.10122V5.10217Z" fill="url(#paint1_linear_320_5866)"/>
<path d="M0.971965 1.19238C0.971965 1.19238 0.971456 1.19445 0.970947 1.19549C0.971965 1.19549 0.972983 1.19497 0.974001 1.19445L0.971965 1.19238Z" fill="url(#paint2_linear_320_5866)"/>
<path d="M0.971924 1.1924L0.974381 1.19484L0.984211 1.18115L0.971924 1.1924Z" fill="url(#paint3_linear_320_5866)"/>
<path d="M15.5324 0.910736C15.5358 0.806325 15.5324 0.651607 15.495 0.465566C15.4912 0.445634 15.4865 0.398175 15.4623 0.343122C15.4495 0.313223 15.4135 0.233965 15.3296 0.179862C15.2846 0.151386 15.2344 0.134301 15.1813 0.134775C15.1443 0.134775 15.1073 0.137623 15.0708 0.137623C15.0197 0.137623 14.9685 0.139046 14.9173 0.139521C14.8178 0.14047 14.7182 0.138097 14.6192 0.141894C14.5301 0.145216 14.4467 0.17559 14.3832 0.242508C14.3078 0.321765 14.2476 0.434718 14.1481 0.676761C14.1315 0.716627 14.1183 0.750797 14.1093 0.774052C14.0713 0.856157 13.5363 2.01796 13.3339 2.35398C13.3192 2.37913 13.286 2.43276 13.2453 2.43086C13.2041 2.43276 13.1714 2.37913 13.1567 2.35398C12.9548 2.01749 12.4192 0.856157 12.3813 0.774052C12.3723 0.750797 12.359 0.717102 12.3425 0.676761C12.2429 0.434718 12.1827 0.321765 12.1074 0.242508C12.0444 0.17559 11.961 0.145216 11.8714 0.141894C11.7719 0.138572 11.6723 0.14047 11.5733 0.139521C11.5221 0.139521 11.4709 0.138097 11.4197 0.137623C11.3828 0.137623 11.3458 0.13525 11.3093 0.134775C11.2562 0.134775 11.2065 0.151386 11.161 0.179862C11.0771 0.233965 11.0411 0.313223 11.0283 0.343122C11.0041 0.398175 10.9994 0.445634 10.9956 0.465566C10.9586 0.652082 10.9548 0.8068 10.9581 0.910736C10.9193 2.10624 10.8804 3.30079 10.8411 4.49629C10.8425 4.51622 10.8463 4.54375 10.8572 4.5746C10.9183 4.74973 11.1401 4.83563 11.3107 4.838C11.4832 4.84037 11.6894 4.75827 11.7624 4.59975C11.7633 4.59786 11.7766 4.56701 11.7837 4.53284C11.8344 4.28937 11.8638 2.32882 11.8747 1.47503C12.342 2.43371 12.7074 3.15034 12.8766 3.46642C12.9107 3.53144 12.9842 3.66196 13.1192 3.70657C13.1581 3.71986 13.2012 3.72698 13.2453 3.72745C13.2894 3.72745 13.3325 3.71986 13.3714 3.70657C13.5064 3.66196 13.5794 3.53144 13.614 3.46642C13.7827 3.15034 14.1486 2.43371 14.6159 1.47503C14.6268 2.3293 14.6562 4.28937 14.7069 4.53284C14.714 4.56701 14.7273 4.59786 14.7282 4.59975C14.8012 4.75827 15.0073 4.84037 15.1798 4.838C15.3509 4.83563 15.5723 4.74973 15.6334 4.5746C15.6443 4.54375 15.6481 4.51622 15.6495 4.49629C15.6106 3.30079 15.5718 2.10624 15.5324 0.910736Z" fill="url(#paint4_linear_320_5866)"/>
<path d="M7.2089 3.74023C7.21933 3.74166 7.22975 3.74356 7.23923 3.7464C7.23923 3.74735 7.23923 3.74783 7.23828 3.74878C7.23023 3.76207 7.20274 3.75447 7.2089 3.74023Z" fill="white"/>
<path d="M9.91036 0.277075C9.81321 0.154155 9.64733 0.149408 9.48762 0.145137C9.33644 0.140866 9.14403 0.135646 9.02365 0.269481C8.95683 0.343992 8.93834 0.431792 8.93266 0.484946C8.92981 1.36722 8.92697 2.24901 8.92413 3.13128C8.92555 3.21766 8.91702 3.38044 8.82981 3.55936C8.73787 3.74825 8.60754 3.85551 8.57437 3.88161C8.57437 3.88161 8.35257 4.05721 8.06253 4.08047C8.03362 4.08284 8.00281 4.08379 8.00281 4.08379C7.99523 4.08379 7.98765 4.08379 7.98007 4.08427C7.97248 4.08427 7.9649 4.08427 7.95732 4.08379C7.95732 4.08379 7.92699 4.08284 7.8976 4.08047C7.60756 4.05674 7.38577 3.88161 7.38577 3.88161C7.35212 3.85504 7.22226 3.74825 7.13032 3.55936C7.04312 3.38044 7.03459 3.21766 7.03601 3.13128C7.03316 2.24901 7.03032 1.36722 7.02748 0.484946C7.02179 0.431792 7.00378 0.343992 6.93648 0.269481C6.81611 0.135646 6.62369 0.140866 6.47251 0.145137C6.31327 0.149408 6.14692 0.154155 6.04977 0.277075C5.97347 0.373417 5.97963 0.49254 5.98579 0.544271V3.314C5.98579 3.57171 6.05972 3.91294 6.30664 4.23708C6.58388 4.6011 6.97771 4.76341 7.09904 4.8085C7.34501 4.90009 7.58718 4.92572 7.66112 4.93284C7.78955 4.94565 7.89902 4.94613 7.98007 4.94376C8.06111 4.94613 8.17058 4.94565 8.29902 4.93284C8.37295 4.92525 8.61513 4.89962 8.86109 4.8085C8.98242 4.76341 9.37625 4.6011 9.6535 4.23708C9.89994 3.91294 9.97434 3.57171 9.97434 3.314V0.544271C9.9805 0.49254 9.98667 0.373417 9.91036 0.277075Z" fill="url(#paint5_linear_320_5866)"/>
<path d="M7.43481 4.88379C7.44335 4.88521 7.4514 4.88759 7.45899 4.89091L7.44524 4.89945L7.43529 4.88379H7.43481Z" fill="white"/>
<path d="M20.8844 1.60982C20.7508 1.16513 20.4778 0.773114 20.1072 0.494052C19.6868 0.177973 19.1655 0.0123394 18.6418 0C18.1181 0.0123394 17.5968 0.177973 17.1765 0.494052C16.8054 0.773114 16.5324 1.16513 16.3992 1.60982C16.0177 2.88648 16.5916 4.51529 17.9651 4.8755C18.1869 4.9334 18.4148 4.95808 18.6418 4.95191C18.8693 4.95808 19.0973 4.9334 19.3186 4.8755C20.692 4.51529 21.266 2.88648 20.8844 1.60982ZM19.865 3.03503C19.7214 3.63966 19.3205 4.28938 18.6418 4.2965C17.9632 4.28938 17.5622 3.63966 17.4186 3.03503C17.2802 2.4527 17.3058 1.76691 17.6314 1.24723C17.857 0.887016 18.2409 0.673923 18.6414 0.671076C19.0423 0.673923 19.4257 0.88749 19.6513 1.24723C19.9769 1.76691 20.0025 2.4527 19.8641 3.03503H19.865Z" fill="url(#paint6_linear_320_5866)"/>
<defs>
<linearGradient id="paint0_linear_320_5866" x1="4.08717" y1="3.02978" x2="0.83508" y2="0.572477" gradientUnits="userSpaceOnUse">
<stop offset="0.33" stop-color="#9C8837"/>
<stop offset="0.56" stop-color="#F7E59E"/>
<stop offset="0.6" stop-color="#F0DE96"/>
<stop offset="0.67" stop-color="#DECB80"/>
<stop offset="0.75" stop-color="#C0AC5D"/>
<stop offset="0.79" stop-color="#B39F4D"/>
</linearGradient>
<linearGradient id="paint1_linear_320_5866" x1="2.87342" y1="4.63564" x2="-0.378669" y2="2.17834" gradientUnits="userSpaceOnUse">
<stop offset="0.33" stop-color="#9C8837"/>
<stop offset="0.56" stop-color="#F7E59E"/>
<stop offset="0.6" stop-color="#F0DE96"/>
<stop offset="0.67" stop-color="#DECB80"/>
<stop offset="0.75" stop-color="#C0AC5D"/>
<stop offset="0.79" stop-color="#B39F4D"/>
</linearGradient>
<linearGradient id="paint2_linear_320_5866" x1="4.04639" y1="3.56094" x2="0.514733" y2="0.933194" gradientUnits="userSpaceOnUse">
<stop offset="0.33" stop-color="#9C8837"/>
<stop offset="0.56" stop-color="#F7E59E"/>
<stop offset="0.6" stop-color="#F0DE96"/>
<stop offset="0.67" stop-color="#DECB80"/>
<stop offset="0.75" stop-color="#C0AC5D"/>
<stop offset="0.79" stop-color="#B39F4D"/>
</linearGradient>
<linearGradient id="paint3_linear_320_5866" x1="3.94635" y1="3.42212" x2="0.590313" y2="0.868822" gradientUnits="userSpaceOnUse">
<stop offset="0.33" stop-color="#9C8837"/>
<stop offset="0.56" stop-color="#F7E59E"/>
<stop offset="0.6" stop-color="#F0DE96"/>
<stop offset="0.67" stop-color="#DECB80"/>
<stop offset="0.75" stop-color="#C0AC5D"/>
<stop offset="0.79" stop-color="#B39F4D"/>
</linearGradient>
<linearGradient id="paint4_linear_320_5866" x1="16.122" y1="4.03404" x2="11.0702" y2="1.35848" gradientUnits="userSpaceOnUse">
<stop offset="0.33" stop-color="#9C8837"/>
<stop offset="0.56" stop-color="#F7E59E"/>
<stop offset="0.6" stop-color="#F0DE96"/>
<stop offset="0.67" stop-color="#DECB80"/>
<stop offset="0.75" stop-color="#C0AC5D"/>
<stop offset="0.79" stop-color="#B39F4D"/>
</linearGradient>
<linearGradient id="paint5_linear_320_5866" x1="10.4658" y1="3.78575" x2="5.41307" y2="0.626615" gradientUnits="userSpaceOnUse">
<stop offset="0.33" stop-color="#9C8837"/>
<stop offset="0.56" stop-color="#F7E59E"/>
<stop offset="0.6" stop-color="#F0DE96"/>
<stop offset="0.67" stop-color="#DECB80"/>
<stop offset="0.75" stop-color="#C0AC5D"/>
<stop offset="0.79" stop-color="#B39F4D"/>
</linearGradient>
<linearGradient id="paint6_linear_320_5866" x1="22.2029" y1="4.55942" x2="15.9208" y2="0.918436" gradientUnits="userSpaceOnUse">
<stop offset="0.33" stop-color="#9C8837"/>
<stop offset="0.56" stop-color="#F7E59E"/>
<stop offset="0.6" stop-color="#F0DE96"/>
<stop offset="0.67" stop-color="#DECB80"/>
<stop offset="0.75" stop-color="#C0AC5D"/>
<stop offset="0.79" stop-color="#B39F4D"/>
</linearGradient>
</defs>
</svg>
