<svg width="12" height="24" viewBox="0 0 12 24" fill="none" xmlns="http://www.w3.org/2000/svg">
<path d="M10.9846 21.41L10.6493 22.7808C9.64328 23.1779 8.83967 23.4801 8.24127 23.6879C7.64222 23.8963 6.94617 24 6.1531 24C4.93521 24 3.98792 23.7017 3.3123 23.1091C2.63668 22.5141 2.29876 21.7602 2.29876 20.8456C2.29876 20.4915 2.32328 20.1274 2.37426 19.7563C2.42567 19.3849 2.5074 18.9665 2.61925 18.4989L3.8765 14.0489C3.98835 13.6228 4.08343 13.2191 4.15957 12.8373C4.23679 12.4578 4.274 12.1087 4.274 11.7945C4.274 11.2262 4.15634 10.8287 3.9221 10.6052C3.68786 10.3824 3.24089 10.2692 2.57731 10.2692C2.2523 10.2692 1.91825 10.3213 1.57775 10.4219C1.23574 10.523 0.943425 10.6207 0.697998 10.7115L1.0342 9.33956C1.85781 9.00422 2.64507 8.71706 3.39812 8.47874C4.15118 8.23976 4.86273 8.12017 5.53577 8.12017C6.74527 8.12017 7.67858 8.41249 8.33398 8.99712C8.98938 9.58219 9.31698 10.3406 9.31698 11.2752C9.31698 11.4686 9.29547 11.8093 9.24922 12.2963C9.20405 12.7844 9.11995 13.2315 8.99734 13.6383L7.74547 18.0704C7.64287 18.4264 7.55059 18.8333 7.47036 19.2913C7.38755 19.7462 7.34797 20.0938 7.34797 20.327C7.34797 20.9155 7.47918 21.3173 7.74224 21.5309C8.00725 21.7445 8.46368 21.8507 9.11199 21.8507C9.41635 21.8507 9.76266 21.7967 10.1475 21.6907C10.5312 21.5847 10.811 21.4915 10.9846 21.41ZM11.3021 2.80273C11.3021 3.57493 11.0111 4.23442 10.4262 4.77668C9.84289 5.32088 9.13995 5.5932 8.31763 5.5932C7.49273 5.5932 6.78807 5.32088 6.19806 4.77668C5.60912 4.23421 5.314 3.57493 5.314 2.80273C5.314 2.03203 5.60912 1.37147 6.19806 0.82232C6.78699 0.274035 7.49295 0 8.31763 0C9.13974 0 9.84289 0.27468 10.4262 0.82232C11.0115 1.37147 11.3021 2.03225 11.3021 2.80273Z" fill="#664AEA"/>
</svg>
