<svg width="27" height="23" viewBox="0 0 27 23" fill="none" xmlns="http://www.w3.org/2000/svg">
<path d="M11.9694 0.5625C10.8932 0.5625 10.0146 1.44035 10.0146 2.51562V7.59375H19.1373C20.3954 7.59375 21.4243 8.63263 21.4243 9.88638V16.2386C21.4243 17.4924 20.3954 18.5312 19.1373 18.5312H10.0146V20.4844C10.0146 21.5596 10.8932 22.4375 11.9694 22.4375H24.4801C25.5563 22.4375 26.4349 21.5596 26.4349 20.4844V6.8125H21.7434C20.8838 6.8125 20.1795 6.10887 20.1795 5.25V0.5625H11.9694ZM20.9615 0.746368V5.25C20.9615 5.68957 21.3034 6.03125 21.7434 6.03125H26.176C26.1361 5.97599 26.0949 5.92158 26.047 5.87256L21.2409 0.956177C21.1577 0.871079 21.0618 0.804462 20.9615 0.746368Z" fill="#664AEA"/>
<path fill-rule="evenodd" clip-rule="evenodd" d="M3 8.5238C1.34315 8.5238 0 9.86695 0 11.5238V14.4524C0 16.1092 1.34315 17.4524 3 17.4524H17.2553C18.9122 17.4524 20.2553 16.1092 20.2553 14.4524V11.5238C20.2553 9.86695 18.9122 8.5238 17.2553 8.5238H3ZM4.75563 15.0122C4.81563 15.0922 4.89363 15.1442 4.98963 15.1682C5.24563 15.2282 5.52363 15.2582 5.82363 15.2582C6.36763 15.2582 6.76363 15.1362 7.01163 14.8922C7.25963 14.6442 7.38363 14.2402 7.38363 13.6802V11.1602C7.38363 11.0682 7.34963 10.9882 7.28163 10.9202C7.21763 10.8522 7.13963 10.8182 7.04763 10.8182H6.85563C6.76363 10.8182 6.68363 10.8522 6.61563 10.9202C6.54763 10.9882 6.51363 11.0682 6.51363 11.1602V13.5182C6.51363 13.9022 6.45163 14.1762 6.32763 14.3402C6.20763 14.5002 6.01763 14.5802 5.75763 14.5802C5.50163 14.5802 5.24163 14.5362 4.97763 14.4482C4.90163 14.4242 4.82963 14.4342 4.76163 14.4782C4.69763 14.5222 4.66563 14.5842 4.66563 14.6642V14.7302C4.66563 14.8342 4.69563 14.9282 4.75563 15.0122ZM9.09762 12.9482V11.5022C9.09762 11.4702 9.11362 11.4502 9.14562 11.4422C9.29762 11.4222 9.44562 11.4122 9.58962 11.4122C10.2536 11.4122 10.5856 11.6782 10.5856 12.2102C10.5856 12.4742 10.4996 12.6782 10.3276 12.8222C10.1596 12.9622 9.91362 13.0322 9.58962 13.0322C9.44562 13.0322 9.29762 13.0222 9.14562 13.0022C9.11362 12.9942 9.09762 12.9762 9.09762 12.9482ZM8.36562 15.0962C8.43362 15.1642 8.51362 15.1982 8.60562 15.1982H8.75562C8.84762 15.1982 8.92762 15.1642 8.99562 15.0962C9.06362 15.0282 9.09762 14.9482 9.09762 14.8562V13.6922C9.09762 13.6602 9.11362 13.6442 9.14562 13.6442C9.36162 13.6602 9.53562 13.6682 9.66762 13.6682C10.2356 13.6682 10.6636 13.5402 10.9516 13.2842C11.2436 13.0282 11.3896 12.6502 11.3896 12.1502C11.3896 11.6982 11.2396 11.3542 10.9396 11.1182C10.6396 10.8782 10.1896 10.7582 9.58962 10.7582C9.27362 10.7582 8.94562 10.7742 8.60562 10.8062C8.50962 10.8142 8.42962 10.8562 8.36562 10.9322C8.30162 11.0082 8.26962 11.0942 8.26962 11.1902V14.8562C8.26962 14.9482 8.30162 15.0282 8.36562 15.0962ZM12.3612 14.6582C12.7612 15.0582 13.2832 15.2582 13.9272 15.2582C14.3192 15.2582 14.6852 15.2082 15.0252 15.1082C15.1212 15.0802 15.1992 15.0242 15.2592 14.9402C15.3192 14.8562 15.3492 14.7622 15.3492 14.6582V12.9122C15.3492 12.8202 15.3152 12.7402 15.2472 12.6722C15.1792 12.6042 15.0992 12.5702 15.0072 12.5702H13.7472C13.6592 12.5702 13.5832 12.6022 13.5192 12.6662C13.4592 12.7262 13.4292 12.8022 13.4292 12.8942C13.4292 12.9822 13.4592 13.0582 13.5192 13.1222C13.5832 13.1822 13.6592 13.2122 13.7472 13.2122H14.4972C14.5292 13.2122 14.5452 13.2302 14.5452 13.2662V14.4542C14.5452 14.4902 14.5292 14.5122 14.4972 14.5202C14.3292 14.5682 14.1592 14.5922 13.9872 14.5922C13.5672 14.5922 13.2332 14.4562 12.9852 14.1842C12.7412 13.9082 12.6192 13.5162 12.6192 13.0082C12.6192 12.4842 12.7432 12.0902 12.9912 11.8262C13.2432 11.5582 13.6112 11.4242 14.0952 11.4242C14.3272 11.4242 14.5612 11.4502 14.7972 11.5022C14.8812 11.5222 14.9572 11.5062 15.0252 11.4542C15.0932 11.4022 15.1272 11.3342 15.1272 11.2502V11.2262C15.1272 11.1262 15.0952 11.0382 15.0312 10.9622C14.9672 10.8822 14.8872 10.8342 14.7912 10.8182C14.5552 10.7782 14.2932 10.7582 14.0052 10.7582C13.3052 10.7582 12.7572 10.9582 12.3612 11.3582C11.9652 11.7542 11.7672 12.3042 11.7672 13.0082C11.7672 13.7042 11.9652 14.2542 12.3612 14.6582Z" fill="#664AEA"/>
</svg>
