<svg width="24" height="25" viewBox="0 0 24 25" fill="none" xmlns="http://www.w3.org/2000/svg">
<g id="material-symbols:language">
<path id="Vector" d="M12 22.5C10.6333 22.5 9.34167 22.2373 8.125 21.712C6.90833 21.1867 5.846 20.47 4.938 19.562C4.03 18.654 3.31333 17.5917 2.788 16.375C2.26267 15.1583 2 13.8667 2 12.5C2 11.1167 2.26267 9.821 2.788 8.613C3.31333 7.405 4.03 6.34667 4.938 5.438C5.846 4.52933 6.90833 3.81267 8.125 3.288C9.34167 2.76333 10.6333 2.50067 12 2.5C13.3833 2.5 14.6793 2.76267 15.888 3.288C17.0967 3.81333 18.1547 4.53 19.062 5.438C19.9693 6.346 20.686 7.40433 21.212 8.613C21.738 9.82167 22.0007 11.1173 22 12.5C22 13.8667 21.7373 15.1583 21.212 16.375C20.6867 17.5917 19.97 18.6543 19.062 19.563C18.154 20.4717 17.0957 21.1883 15.887 21.713C14.6783 22.2377 13.3827 22.5 12 22.5ZM12 20.45C12.4333 19.85 12.8083 19.225 13.125 18.575C13.4417 17.925 13.7 17.2333 13.9 16.5H10.1C10.3 17.2333 10.5583 17.925 10.875 18.575C11.1917 19.225 11.5667 19.85 12 20.45ZM9.4 20.05C9.1 19.5 8.83767 18.929 8.613 18.337C8.38833 17.745 8.20067 17.1327 8.05 16.5H5.1C5.58333 17.3333 6.18767 18.0583 6.913 18.675C7.63833 19.2917 8.46733 19.75 9.4 20.05ZM14.6 20.05C15.5333 19.75 16.3627 19.2917 17.088 18.675C17.8133 18.0583 18.4173 17.3333 18.9 16.5H15.95C15.8 17.1333 15.6127 17.746 15.388 18.338C15.1633 18.93 14.9007 19.5007 14.6 20.05ZM4.25 14.5H7.65C7.6 14.1667 7.56267 13.8377 7.538 13.513C7.51333 13.1883 7.50067 12.8507 7.5 12.5C7.49933 12.1493 7.512 11.812 7.538 11.488C7.564 11.164 7.60133 10.8347 7.65 10.5H4.25C4.16667 10.8333 4.10433 11.1627 4.063 11.488C4.02167 11.8133 4.00067 12.1507 4 12.5C3.99933 12.8493 4.02033 13.187 4.063 13.513C4.10567 13.839 4.168 14.168 4.25 14.5ZM9.65 14.5H14.35C14.4 14.1667 14.4377 13.8377 14.463 13.513C14.4883 13.1883 14.5007 12.8507 14.5 12.5C14.4993 12.1493 14.4867 11.812 14.462 11.488C14.4373 11.164 14.4 10.8347 14.35 10.5H9.65C9.6 10.8333 9.56267 11.1627 9.538 11.488C9.51333 11.8133 9.50067 12.1507 9.5 12.5C9.49933 12.8493 9.512 13.187 9.538 13.513C9.564 13.839 9.60133 14.168 9.65 14.5ZM16.35 14.5H19.75C19.8333 14.1667 19.896 13.8377 19.938 13.513C19.98 13.1883 20.0007 12.8507 20 12.5C19.9993 12.1493 19.9787 11.812 19.938 11.488C19.8973 11.164 19.8347 10.8347 19.75 10.5H16.35C16.4 10.8333 16.4377 11.1627 16.463 11.488C16.4883 11.8133 16.5007 12.1507 16.5 12.5C16.4993 12.8493 16.4867 13.187 16.462 13.513C16.4373 13.839 16.4 14.168 16.35 14.5ZM15.95 8.5H18.9C18.4167 7.66667 17.8127 6.94167 17.088 6.325C16.3633 5.70833 15.534 5.25 14.6 4.95C14.9 5.5 15.1627 6.071 15.388 6.663C15.6133 7.255 15.8007 7.86733 15.95 8.5ZM10.1 8.5H13.9C13.7 7.76667 13.4417 7.075 13.125 6.425C12.8083 5.775 12.4333 5.15 12 4.55C11.5667 5.15 11.1917 5.775 10.875 6.425C10.5583 7.075 10.3 7.76667 10.1 8.5ZM5.1 8.5H8.05C8.2 7.86667 8.38767 7.254 8.613 6.662C8.83833 6.07 9.10067 5.49933 9.4 4.95C8.46667 5.25 7.63733 5.70833 6.912 6.325C6.18667 6.94167 5.58267 7.66667 5.1 8.5Z" fill="url(#paint0_linear_3563_15825)"/>
</g>
<defs>
<linearGradient id="paint0_linear_3563_15825" x1="11.9733" y1="7.3913" x2="12.0841" y2="22.4994" gradientUnits="userSpaceOnUse">
<stop offset="0.0193602" stop-color="#664AEA"/>
<stop offset="0.264161" stop-color="#5340AD"/>
<stop offset="0.485296" stop-color="#44397E"/>
<stop offset="0.74058" stop-color="#3B3461"/>
<stop offset="1" stop-color="#333046"/>
</linearGradient>
</defs>
</svg>
