<svg width="18" height="20" viewBox="0 0 18 20" fill="none" xmlns="http://www.w3.org/2000/svg">
<path d="M8.54371 19.7391C8.65238 19.9021 8.83535 20 9.03125 20C9.22715 20 9.41012 19.9021 9.51879 19.7391C10.9055 17.6591 12.9479 15.0903 14.3712 12.4778C15.5093 10.3889 16.0625 8.60727 16.0625 7.03125C16.0625 3.15422 12.9083 0 9.03125 0C5.15422 0 2 3.15422 2 7.03125C2 8.60727 2.55324 10.3889 3.69129 12.4778C5.11352 15.0883 7.15988 17.6634 8.54371 19.7391ZM9.03125 1.17188C12.2621 1.17188 14.8906 3.80039 14.8906 7.03125C14.8906 8.40641 14.3841 10.0046 13.3421 11.9171C12.1153 14.1691 10.3646 16.4534 9.03125 18.3738C7.69809 16.4537 5.94727 14.1692 4.72035 11.9171C3.6784 10.0046 3.17188 8.40641 3.17188 7.03125C3.17188 3.80039 5.80039 1.17188 9.03125 1.17188Z" fill="black"/>
<path d="M9.03488 10.9375C11.1881 10.9375 12.9399 9.18516 12.9399 7.03125C12.9399 4.87734 11.1881 3.125 9.03488 3.125C6.88167 3.125 5.12988 4.87734 5.12988 7.03125C5.12988 9.18516 6.88167 10.9375 9.03488 10.9375ZM9.03488 4.42708C10.4704 4.42708 11.6382 5.59531 11.6382 7.03125C11.6382 8.46719 10.4704 9.63542 9.03488 9.63542C7.5994 9.63542 6.43155 8.46719 6.43155 7.03125C6.43155 5.59531 7.5994 4.42708 9.03488 4.42708Z" fill="black"/>
</svg>
