<svg width="15" height="21" viewBox="0 0 15 21" fill="none" xmlns="http://www.w3.org/2000/svg">
<g clip-path="url(#clip0_7707_39865)">
<path d="M7.49875 0.292969C3.48834 0.292969 0.226074 3.71834 0.226074 7.92928C0.226074 9.30103 0.841309 11.0317 2.10216 13.2209C3.15034 15.0392 4.44916 16.8456 5.59228 18.4367C6.12017 19.1704 6.61767 19.8643 7.00125 20.4385C7.11518 20.6099 7.30127 20.7096 7.49875 20.7096C7.69623 20.7096 7.88232 20.6099 7.99626 20.4385C8.37983 19.8643 8.87733 19.1704 9.40522 18.4367C10.5483 16.8456 11.8434 15.0392 12.8953 13.2209C14.1562 11.0317 14.7714 9.30103 14.7714 7.92928C14.7714 3.71834 11.5092 0.292969 7.49875 0.292969ZM7.49875 11.4583C5.64545 11.4583 4.13775 9.87524 4.13775 7.92928C4.13775 5.98332 5.64545 4.40023 7.49875 4.40023C9.35205 4.40023 10.8598 5.98332 10.8598 7.92928C10.8598 9.87524 9.35205 11.4583 7.49875 11.4583Z" fill="#287CDF"/>
</g>
<defs>
<clipPath id="clip0_7707_39865">
<rect width="14.5833" height="20.4167" fill="white" transform="translate(0.207031 0.292969)"/>
</clipPath>
</defs>
</svg>
