<svg width="99" height="40" viewBox="0 0 99 40" fill="none" xmlns="http://www.w3.org/2000/svg">
<g id="Group">
<g id="Group_2">
<g id="Group_3">
<g id="Group_4">
<path id="Vector" d="M5.92498 32.5567C4.157 32.5567 2.7275 31.9835 1.6365 30.8372C0.545501 29.6909 0 28.1574 0 26.2365V14.6557C0 13.3235 0.330098 12.1927 0.990294 11.2633C1.6449 10.3339 2.46175 9.69874 3.44085 9.35795L9.0721 7.16448V0.0078125H12.429V32.5567H5.92498ZM6.63833 29.7684H9.0721V10.2409L5.33752 11.6351C4.60459 11.8829 4.09266 12.2764 3.80172 12.8155C3.50519 13.3607 3.35693 14.222 3.35693 15.3993V26.2365C3.35693 27.3518 3.65066 28.2193 4.23812 28.8389C4.83118 29.4586 5.63125 29.7684 6.63833 29.7684ZM23.5153 32.5567C21.9767 32.5567 20.7514 32.0455 19.8395 31.0231C18.9275 30.0007 18.4715 28.6221 18.4715 26.8871V14.5163C18.4715 12.5025 18.975 10.9225 19.9821 9.77619C20.9948 8.62369 22.4942 8.04744 24.4804 8.04744C26.4666 8.04744 27.9576 8.62369 28.9535 9.77619C29.9438 10.9225 30.439 12.5025 30.439 14.5163V16.654C30.439 17.9552 30.1033 18.9404 29.4319 19.6096C28.7605 20.2726 27.8793 20.7745 26.7883 21.1153L21.8368 22.6489V27.2124C21.8368 27.956 22.0382 28.5663 22.4411 29.0434C22.8495 29.5267 23.3754 29.7684 24.0188 29.7684H28.5507V32.5567H23.5153ZM21.8368 19.7212L24.3965 18.9311C25.3196 18.6523 25.9407 18.4447 26.2596 18.3084C26.5841 18.1659 26.8023 17.9552 26.9142 17.6764C27.0261 17.3976 27.082 16.9329 27.082 16.2823V13.7263C27.082 12.7349 26.8498 12.0068 26.3855 11.5421C25.9267 11.0774 25.2917 10.845 24.4804 10.845C23.6971 10.845 23.0593 11.0929 22.567 11.5886C22.0802 12.0843 21.8368 12.7969 21.8368 13.7263V19.7212ZM39.8467 32.5567C38.3082 32.5567 37.0829 32.0455 36.1709 31.0231C35.2589 30.0007 34.803 28.6221 34.803 26.8871V14.5163C34.803 12.5025 35.3065 10.9225 36.3136 9.77619C37.3263 8.62369 38.8257 8.04744 40.8119 8.04744C42.798 8.04744 44.2891 8.62369 45.285 9.77619C46.2753 10.9225 46.7704 12.5025 46.7704 14.5163V16.654C46.7704 17.9552 46.4347 18.9404 45.7633 19.6096C45.092 20.2726 44.2108 20.7745 43.1198 21.1153L38.1683 22.6489V27.2124C38.1683 27.956 38.3697 28.5663 38.7725 29.0434C39.181 29.5267 39.7069 29.7684 40.3503 29.7684H44.8821V32.5567H39.8467ZM38.1683 19.7212L40.7279 18.9311C41.6511 18.6523 42.2721 18.4447 42.591 18.3084C42.9155 18.1659 43.1337 17.9552 43.2456 17.6764C43.3575 17.3976 43.4135 16.9329 43.4135 16.2823V13.7263C43.4135 12.7349 43.1813 12.0068 42.7169 11.5421C42.2581 11.0774 41.6231 10.845 40.8119 10.845C40.0286 10.845 39.3908 11.0929 38.8984 11.5886C38.4117 12.0843 38.1683 12.7969 38.1683 13.7263V19.7212ZM51.8058 39.9922V8.37274H58.612C60.1506 8.37274 61.4598 8.9335 62.5396 10.055C63.6138 11.1703 64.1509 12.5645 64.1509 14.2375V26.7477C64.1509 28.4207 63.6194 29.8056 62.5564 30.9023C61.4933 32.0052 60.1925 32.5567 58.6539 32.5567H55.1711V39.9922H51.8058ZM55.1711 29.8149H57.9406C58.7239 29.8149 59.3953 29.5205 59.9548 28.9319C60.5142 28.3432 60.794 27.6152 60.794 26.7477V14.2375C60.794 13.37 60.5142 12.642 59.9548 12.0533C59.3953 11.4647 58.7239 11.1704 57.9406 11.1704H55.1711V29.8149ZM74.1881 32.5567C72.6495 32.5567 71.4243 32.0455 70.5123 31.0231C69.6059 30.0007 69.1527 28.6221 69.1527 26.8871V14.5163C69.1527 12.5025 69.6563 10.9225 70.6634 9.77619C71.6704 8.62369 73.1671 8.04744 75.1532 8.04744C77.1394 8.04744 78.6305 8.62369 79.6264 9.77619C80.6166 10.9225 81.1118 12.5025 81.1118 14.5163V16.654C81.1118 17.9552 80.7761 18.9404 80.1047 19.6096C79.4333 20.2726 78.5521 20.7745 77.4611 21.1153L72.5097 22.6489V27.2124C72.5097 27.956 72.7111 28.5663 73.1139 29.0434C73.5223 29.5267 74.0483 29.7684 74.6917 29.7684H79.2235V32.5567H74.1881ZM72.5097 19.7212L75.0693 18.9311C75.9925 18.6523 76.6163 18.4447 76.9408 18.3084C77.2597 18.1659 77.4751 17.9552 77.587 17.6764C77.6989 17.3976 77.7549 16.9329 77.7549 16.2823V13.7263C77.7549 12.7349 77.5255 12.0068 77.0667 11.5421C76.6023 11.0774 75.9645 10.845 75.1532 10.845C74.37 10.845 73.7321 11.0929 73.2398 11.5886C72.753 12.0843 72.5097 12.7969 72.5097 13.7263V19.7212ZM86.1556 32.5567V8.37274H88.7572L89.1349 9.72972L90.8553 9.17206C92.0302 8.76311 92.9618 8.47498 93.6499 8.30768C94.3325 8.13419 94.9815 8.04744 95.5969 8.04744C96.604 8.04744 97.3453 8.43781 97.8209 9.21853C98.2965 9.99306 98.5343 11 98.5343 12.2392V32.5567H95.1773V13.4475C95.1773 12.549 95.1214 11.9201 95.0095 11.5607C94.8976 11.2075 94.6178 11.0309 94.1703 11.0309C93.9465 11.0309 92.3939 11.5266 89.5125 12.518V32.5567H86.1556Z" fill="#333046"/>
</g>
</g>
</g>
</g>
</svg>
