<svg width="50" height="54" viewBox="0 0 50 54" fill="none" xmlns="http://www.w3.org/2000/svg">
<g id="Group">
<path id="Vector" d="M6.75601 43.3296L7.62902 42.4926L10.36 39.8574L44.279 7.1226C45.2574 6.17786 45.807 4.8969 45.807 3.5613C45.807 2.2257 45.2574 0.944744 44.279 0L7.30444 35.6778C5.42148 32.2005 4.69366 28.2481 5.21987 24.3577C5.74608 20.4673 7.50081 16.8275 10.2456 13.933C12.9904 11.0384 16.5922 9.02951 20.5616 8.17915C24.5309 7.32879 28.6753 7.67823 32.4317 9.18L36.2707 5.481C31.0488 2.89134 25.0464 2.16608 19.324 3.43336C13.6016 4.70065 8.5276 7.8789 4.99858 12.4065C1.46956 16.9342 -0.287334 22.5197 0.0383486 28.1763C0.364031 33.8328 2.75132 39.1962 6.77839 43.3188L6.75601 43.3296Z" fill="#333046"/>
<path id="Vector_2" d="M43.2267 10.6709L42.3537 11.5079L39.6283 14.1431L5.70378 46.8779C4.72538 47.8227 4.17578 49.1036 4.17578 50.4392C4.17578 51.7748 4.72538 53.0558 5.70378 54.0005L42.6783 18.3227C44.5571 21.7981 45.2826 25.7469 44.7564 29.6336C44.2302 33.5204 42.4778 37.1569 39.7369 40.0499C36.996 42.9429 33.3992 44.9524 29.4344 45.8058C25.4696 46.6592 21.3287 46.3153 17.5735 44.8205L13.74 48.5087C18.9617 51.0952 24.9626 51.818 30.6829 50.5494C36.4033 49.2809 41.4751 46.1027 45.0027 41.5761C48.5302 37.0494 50.2866 31.4656 49.9617 25.8107C49.6367 20.1557 47.2513 14.7935 43.2267 10.6709Z" fill="#664AEA"/>
</g>
</svg>
