<svg width="150" height="34" viewBox="0 0 150 34" fill="none" xmlns="http://www.w3.org/2000/svg">
<g clip-path="url(#clip0_12027_195608)">
<path d="M5.17258 33.8515C4.12772 33.8005 3.52682 33.7065 2.33265 33.4165C1.67433 33.2533 1.56716 33.2243 1.56716 33.1916C1.56716 33.1771 1.54803 33.1626 1.52506 33.1626C1.44851 33.1626 0.709823 32.8727 0.392146 32.7168L0.0744703 32.5646V28.5556L0.162501 28.5774C0.20843 28.5919 0.323253 28.6499 0.418937 28.7115C0.510797 28.7695 0.629445 28.8238 0.675377 28.8347C0.725132 28.8492 0.763406 28.8673 0.763406 28.8818C0.763406 28.9072 0.901194 28.9761 1.45234 29.2226C1.92311 29.4328 2.22931 29.5452 2.67712 29.6648C2.87614 29.7191 3.05986 29.7771 3.079 29.7953C3.10196 29.8098 3.23975 29.8424 3.38519 29.8641C3.52682 29.8859 3.66077 29.9113 3.67608 29.9185C3.69138 29.9294 3.82917 29.962 3.98226 29.9946C4.38797 30.0744 5.37161 30.1179 6.0529 30.0852C6.5849 30.0562 6.65765 30.0454 6.84134 29.9511C7.07865 29.8351 7.19347 29.6974 7.22028 29.5053C7.25089 29.3023 7.1705 29.1211 6.9906 28.9761C6.90642 28.9072 6.82221 28.8492 6.80307 28.8492C6.78777 28.8492 6.74183 28.8202 6.70355 28.784C6.66528 28.7477 6.41267 28.6498 6.14092 28.5665C5.86537 28.4795 5.60892 28.3961 5.56682 28.378C5.4673 28.3345 4.9238 28.1786 4.55637 28.0844C4.39944 28.0445 4.20044 27.9829 4.11622 27.943C4.02821 27.9068 3.84064 27.8379 3.69138 27.7872C3.10196 27.5842 3.01393 27.5516 2.97183 27.5117C2.94886 27.4899 2.91442 27.4718 2.89528 27.4718C2.83404 27.4718 2.16424 27.1383 1.94991 27.0042C1.83509 26.9281 1.67051 26.823 1.5863 26.7722C1.39493 26.649 1.05429 26.3409 0.87823 26.1307C0.805507 26.04 0.721305 25.9422 0.694513 25.9132C0.610308 25.8226 0.34239 25.3767 0.34239 25.326C0.34239 25.297 0.319425 25.2462 0.292633 25.2064C-0.0824539 24.6771 -0.101591 22.7669 0.262014 22.1253C0.292634 22.0673 0.338563 21.9695 0.361527 21.9078C0.438074 21.694 0.633272 21.404 0.897367 21.114C1.04281 20.9509 1.18059 20.8132 1.19973 20.8059C1.21887 20.7987 1.32604 20.7153 1.43703 20.6174C1.55185 20.5196 1.73557 20.3891 1.84657 20.3311C2.13362 20.1716 2.19103 20.1354 2.24845 20.0846C2.27524 20.0629 2.31351 20.0411 2.33265 20.0411C2.35178 20.0411 2.47426 19.994 2.60822 19.936C2.74218 19.878 2.94503 19.8055 3.05986 19.7693C3.17468 19.733 3.2895 19.6931 3.30864 19.6786C3.3584 19.6424 3.79473 19.5518 4.28462 19.472C4.86259 19.3778 6.80307 19.3778 7.5188 19.472C8.23453 19.5663 8.69765 19.6424 8.74359 19.675C8.76272 19.6895 8.88518 19.7221 9.0115 19.7475C9.32536 19.8091 10.1406 20.0411 10.2363 20.0919C10.2784 20.1172 10.4583 20.1934 10.6382 20.2586C10.818 20.3275 11.0209 20.4145 11.0898 20.4507L11.2123 20.5196V24.3582L10.9367 24.2168C10.7836 24.1371 10.6152 24.0609 10.5654 24.0464C10.5157 24.0319 10.443 23.9957 10.4047 23.9594C10.332 23.9015 9.63155 23.6405 9.08422 23.4665C8.80863 23.3795 8.09674 23.2309 7.57621 23.1548C7.20494 23.0968 5.81559 23.0931 5.57448 23.1439C5.36778 23.191 5.119 23.336 5.03099 23.4629C4.9085 23.6405 4.91617 23.7927 5.05396 24.0102C5.16878 24.1878 5.21852 24.2277 5.50941 24.369C5.83856 24.5285 6.35526 24.7025 6.88729 24.8294C7.04422 24.8693 7.22791 24.9236 7.29299 24.9526C7.35804 24.9816 7.51113 25.0287 7.63362 25.0577C7.75227 25.0904 8.00105 25.1556 8.18479 25.21C8.36465 25.2607 8.57899 25.3223 8.65937 25.3441C8.73592 25.3622 8.801 25.3912 8.801 25.4057C8.801 25.4202 8.90815 25.471 9.04211 25.5145C9.33299 25.6159 9.72723 25.7899 9.92243 25.9059C10.0066 25.9531 10.1521 26.0328 10.2478 26.0835C10.3932 26.1597 10.6956 26.3771 10.9635 26.5983C11.0592 26.678 11.4878 27.142 11.572 27.2543C11.6218 27.3232 11.7405 27.5298 11.8361 27.7074C12.2189 28.4469 12.3146 29.4582 12.0964 30.4695C12.0505 30.6688 12.016 30.8646 12.016 30.9044C12.016 30.9407 11.9548 31.0893 11.8821 31.2307C11.8093 31.3756 11.7481 31.5061 11.7481 31.5243C11.7481 31.575 11.4993 31.9701 11.3768 32.1078C10.7721 32.8038 10.0947 33.2098 9.03827 33.5068C8.4412 33.6775 8.03549 33.7498 7.38484 33.8115C6.79544 33.8658 5.83856 33.8838 5.17258 33.8515Z" fill="white"/>
<path d="M20.5138 33.8613C20.1157 33.8466 19.4498 33.7779 19.1091 33.7199C18.5197 33.6219 17.5858 33.3247 17.0423 33.0674C16.7629 32.9369 16.5218 32.8136 16.5103 32.7955C16.4988 32.7774 16.3649 32.6832 16.2156 32.5853C15.7984 32.3171 15.2932 31.7987 15.0329 31.371C14.9487 31.2296 14.8262 31.0448 14.7688 30.9614C14.7076 30.878 14.6578 30.7874 14.6578 30.7584C14.6578 30.7294 14.6081 30.5844 14.5468 30.4394C14.4856 30.2908 14.4129 30.0733 14.3899 29.9574C14.3631 29.8377 14.3287 29.7145 14.3095 29.6855C14.2942 29.6529 14.2483 29.497 14.21 29.3375C14.1488 29.0729 14.145 28.6525 14.1296 24.3825L14.1182 19.7139H18.9828V23.9838C18.9828 26.4812 18.9981 28.3371 19.0211 28.4603C19.0862 28.8482 19.201 29.0729 19.4574 29.3267C19.5914 29.4571 19.7406 29.5768 19.7904 29.5913C19.9129 29.6239 20.2803 29.7544 20.3951 29.8051C20.4487 29.8269 20.7051 29.845 21.0075 29.845C21.4974 29.845 21.5472 29.8377 21.8878 29.7254C22.3624 29.5659 22.4198 29.5369 22.6304 29.3303C22.8676 29.0983 23.0246 28.7431 23.0781 28.319C23.1011 28.1196 23.1164 26.4269 23.1164 23.8569V19.7139H27.9428L27.9313 24.3825C27.9198 28.667 27.9122 29.0729 27.8509 29.3375C27.8127 29.497 27.7668 29.6529 27.7514 29.6855C27.7323 29.7145 27.6978 29.8377 27.6711 29.9574C27.6213 30.193 27.4873 30.5881 27.4338 30.6424C27.4185 30.6606 27.4032 30.7041 27.4032 30.7367C27.4032 30.8237 26.9898 31.4725 26.7601 31.7444C26.5114 32.0416 26.0674 32.4548 25.8722 32.5744C25.7574 32.6433 25.6272 32.7303 25.5813 32.7665C25.5392 32.8064 25.2904 32.9405 25.0263 33.0638C24.3795 33.3756 23.4418 33.6546 22.6801 33.7596C22.24 33.8213 21.2295 33.8903 20.9348 33.8793C20.8391 33.8756 20.6516 33.8686 20.5138 33.8613Z" fill="white"/>
<path d="M80.4129 33.8645C79.9307 33.8465 79.0771 33.7739 78.7058 33.7232C78.0782 33.6325 76.7692 33.3172 76.4514 33.1794C76.3902 33.1541 76.1299 33.0526 75.8773 32.9583C75.6247 32.8677 75.3913 32.7699 75.3607 32.7445C75.3301 32.7191 75.2383 32.6792 75.1616 32.6539L75.0163 32.6104V30.5841C75.0163 29.4713 75.0277 28.5579 75.0429 28.5579C75.0547 28.5579 75.1465 28.6014 75.242 28.6594C75.6247 28.8769 76.4514 29.2684 76.7961 29.3988C76.8994 29.4387 77.0063 29.4822 77.0255 29.5003C77.0487 29.5185 77.152 29.5511 77.2552 29.5728C77.3625 29.5982 77.6188 29.6707 77.8293 29.736C78.0399 29.8012 78.2659 29.8664 78.3271 29.8773C78.392 29.8882 78.6062 29.9317 78.8053 29.9716C79.2721 30.0658 80.2751 30.1202 80.9756 30.0839C81.4502 30.0586 81.542 30.0441 81.7256 29.9571C81.8406 29.9063 81.9668 29.8157 82.0051 29.7613C82.0434 29.707 82.0969 29.6417 82.1238 29.6163C82.2499 29.4931 82.1198 29.1161 81.8904 28.9566C81.6375 28.7826 81.3506 28.6485 80.9756 28.5362C80.7382 28.4673 80.5125 28.3948 80.4705 28.3767C80.3477 28.3259 79.8119 28.1701 79.479 28.0867C79.3145 28.0432 79.1423 27.9925 79.0962 27.9671C79.0502 27.9453 78.8857 27.8837 78.729 27.8293C78.1969 27.6517 77.8677 27.5285 77.8216 27.485C77.795 27.4596 77.6914 27.4125 77.5922 27.3763C77.3164 27.2784 76.4628 26.7637 76.2335 26.5571C76.1225 26.4592 76.0075 26.3577 75.9731 26.3323C75.9425 26.3106 75.839 26.1946 75.7434 26.075C75.6476 25.9554 75.5635 25.8502 75.5521 25.8394C75.4986 25.7922 75.395 25.6074 75.2342 25.2703C75.0927 24.9803 75.0355 24.7954 74.9588 24.4076C74.9053 24.1357 74.8633 23.8059 74.8633 23.6718C74.8633 23.3673 74.9931 22.6061 75.0927 22.327C75.1808 22.0805 75.464 21.5078 75.5292 21.4426C75.5521 21.4208 75.6553 21.3012 75.7586 21.1816C75.954 20.9496 76.4131 20.5364 76.6044 20.4204C77.1557 20.0833 77.5384 19.9021 77.9823 19.7679C78.0896 19.7353 78.2275 19.6882 78.2887 19.6592C78.4075 19.6084 78.5756 19.5758 79.2072 19.4707C79.7544 19.3765 81.699 19.3801 82.4413 19.4707C83.0652 19.5505 83.6319 19.6411 83.6854 19.6773C83.7082 19.6882 83.8192 19.7208 83.9342 19.7462C84.2595 19.8187 85.1743 20.0797 85.22 20.1159C85.2432 20.134 85.3808 20.1884 85.5264 20.2428C85.6717 20.2935 85.8745 20.3769 85.974 20.4313C86.1234 20.5074 86.154 20.54 86.1388 20.598C86.1271 20.6415 86.1156 21.5006 86.1156 22.5119V24.3532L85.6297 24.1104C84.6116 23.6102 83.6968 23.3347 82.4568 23.1534C82.0243 23.0882 80.7765 23.0701 80.5851 23.1244C80.5011 23.1462 80.3823 23.1788 80.3171 23.1969C80.2559 23.2151 80.1372 23.2839 80.0568 23.3492C79.9001 23.4724 79.8274 23.6682 79.8654 23.853C79.896 24.0089 80.1755 24.2481 80.4893 24.3967C80.7651 24.5272 81.4118 24.7338 81.806 24.8244C81.9133 24.8462 82.07 24.8969 82.1622 24.9368C82.2499 24.9767 82.4339 25.031 82.5637 25.0637C82.6979 25.0927 82.9428 25.1615 83.1113 25.2123C83.2798 25.263 83.4785 25.321 83.5515 25.3392C83.6242 25.3609 83.6931 25.3899 83.7045 25.4044C83.716 25.4189 83.8539 25.4769 84.0106 25.5313C84.3782 25.6654 84.6765 25.7959 84.8911 25.93C84.9866 25.988 85.1245 26.0677 85.1971 26.104C85.2698 26.1438 85.3734 26.2091 85.4269 26.2526C85.4803 26.2961 85.6182 26.4012 85.7329 26.4846C86.0928 26.7419 86.529 27.253 86.7436 27.6699C87.0651 28.2933 87.1761 29.1197 87.0688 30.1347C87.0267 30.5515 86.8619 31.1496 86.7203 31.4033C86.4792 31.8419 86.4257 31.9289 86.3416 32.0413C86.2613 32.1536 85.7561 32.6394 85.599 32.759C85.3118 32.9765 84.6499 33.3136 84.3362 33.3969C84.2289 33.4259 83.9992 33.4912 83.8192 33.5419C83.3524 33.6762 83.0652 33.7305 82.4605 33.7919C81.9092 33.8465 80.9218 33.8825 80.4129 33.8645Z" fill="white"/>
<path d="M111.414 33.8619C110.147 33.8292 108.815 33.5392 107.778 33.0643C107.495 32.9374 107.227 32.8033 107.185 32.767C107.142 32.7344 107.009 32.6474 106.886 32.5786C106.622 32.4336 105.983 31.9152 105.742 31.6615C105.654 31.56 105.535 31.4404 105.481 31.3896C105.428 31.3353 105.294 31.1649 105.179 31.0054C105.064 30.8459 104.942 30.6828 104.907 30.643C104.869 30.6031 104.827 30.5306 104.812 30.4798C104.796 30.4291 104.724 30.3022 104.655 30.1971C104.582 30.092 104.525 29.9941 104.525 29.976C104.525 29.9579 104.478 29.8491 104.425 29.7331C104.367 29.6135 104.291 29.4069 104.253 29.2728C104.211 29.1387 104.146 28.9575 104.108 28.8741C104.039 28.7218 104.004 28.5551 103.87 27.725C103.744 26.9131 103.782 25.7641 103.97 24.9521C104 24.8144 104.027 24.6549 104.027 24.6042C104.027 24.5534 104.061 24.4483 104.1 24.3685C104.138 24.2924 104.203 24.1221 104.238 23.9916C104.276 23.8611 104.356 23.6508 104.417 23.524C104.475 23.3971 104.525 23.2702 104.525 23.2413C104.525 23.2123 104.559 23.1579 104.601 23.1144C104.639 23.0745 104.701 22.9803 104.739 22.9078C104.968 22.4293 105.623 21.6464 106.193 21.1715C106.913 20.5662 107.954 20.0297 108.907 19.7651C109.014 19.7361 109.133 19.6963 109.175 19.6781C109.309 19.6201 109.546 19.573 110.132 19.4897C110.913 19.3809 112.662 19.37 113.404 19.4715C114.001 19.5549 114.441 19.6383 114.495 19.6745C114.514 19.689 114.644 19.7325 114.782 19.7651C115.042 19.834 115.601 20.0225 115.701 20.0805C115.731 20.0986 115.949 20.2037 116.179 20.3161C116.413 20.4285 116.627 20.5408 116.657 20.5662C116.688 20.5916 116.807 20.6713 116.918 20.7402C117.35 21.0084 118.039 21.6391 118.311 22.0088C118.391 22.1248 118.495 22.2372 118.537 22.2626C118.575 22.2843 118.609 22.3314 118.609 22.3604C118.609 22.3894 118.671 22.4946 118.743 22.5924C118.816 22.6903 118.877 22.7918 118.877 22.8135C118.877 22.8353 118.927 22.9186 118.988 22.9984C119.046 23.0745 119.119 23.205 119.145 23.2847C119.172 23.3645 119.226 23.4877 119.26 23.5566C119.432 23.8828 119.616 24.5172 119.75 25.2421C119.873 25.9054 119.888 26.0794 119.892 26.6014C119.892 27.0218 119.873 27.3046 119.823 27.5619C119.785 27.7613 119.719 28.1129 119.677 28.3412C119.566 28.9647 119.184 30.0159 118.969 30.2877C118.919 30.3494 118.877 30.411 118.877 30.4218C118.877 30.5052 118.208 31.4295 118.035 31.5854C118.012 31.6071 117.886 31.7195 117.752 31.8391C117.434 32.1255 117.163 32.3466 117.002 32.4517C116.772 32.6003 116.202 32.9447 116.183 32.9447C116.175 32.9447 115.988 33.0244 115.769 33.1223C115.36 33.3035 115.318 33.318 114.793 33.4702C113.733 33.7712 112.688 33.8942 111.414 33.8619ZM112.252 29.7911C112.329 29.773 112.57 29.715 112.792 29.6643C113.243 29.5592 113.481 29.454 113.787 29.2221C114.02 29.0481 114.399 28.6421 114.399 28.5696C114.399 28.5442 114.414 28.5225 114.43 28.5225C114.476 28.5225 114.572 28.3231 114.732 27.8809L114.874 27.4894L114.878 26.5796C114.878 25.9453 114.866 25.6553 114.836 25.6191C114.809 25.5901 114.744 25.4306 114.69 25.2602C114.591 24.9558 114.541 24.8688 114.292 24.5135C114.112 24.2562 113.645 23.872 113.385 23.7668C112.658 23.4732 112.447 23.4334 111.701 23.4587C111.196 23.4732 111.085 23.4914 110.775 23.5856C110.277 23.7378 109.986 23.9046 109.669 24.2163C109.255 24.6223 109.01 25.05 108.857 25.6227C108.765 25.9671 108.769 27.2792 108.861 27.6344C108.937 27.9244 109.064 28.2434 109.159 28.3775C109.194 28.4282 109.259 28.5334 109.301 28.6131C109.412 28.8197 109.802 29.1894 110.124 29.3852C110.614 29.6824 111.789 29.9108 112.252 29.7911Z" fill="white"/>
<path d="M30.6402 33.4806C30.6287 33.4336 30.6211 30.3198 30.6211 26.5574L30.6249 19.7139H34.3067C38.5784 19.7139 38.8424 19.7284 39.9754 19.9893C40.1856 20.0365 40.4117 20.0981 40.4729 20.1271C40.5378 20.1525 40.7291 20.2286 40.9054 20.2938C41.4986 20.5149 42.1071 20.91 42.5702 21.3704C42.773 21.5734 43.0182 21.8742 43.0182 21.9213C43.0182 21.9395 43.0757 22.0337 43.1443 22.1279C43.2859 22.3345 43.531 22.9363 43.5923 23.248C43.6192 23.3676 43.6535 23.4981 43.6686 23.538C43.7376 23.7047 43.822 24.4006 43.822 24.7812C43.822 25.18 43.7339 25.8904 43.6686 26.039C43.6498 26.0789 43.6074 26.2456 43.5768 26.4124C43.5425 26.5791 43.4927 26.7567 43.4621 26.8111C43.4352 26.8655 43.3817 26.9996 43.3434 27.1083C43.305 27.2171 43.2287 27.3729 43.1712 27.4527C43.1137 27.5324 43.0027 27.6955 42.9186 27.8151C42.7003 28.1305 42.0381 28.7467 41.7512 28.8989C41.0392 29.2759 40.6451 29.4281 39.9943 29.5804C39.7955 29.6275 39.6233 29.6746 39.6115 29.6855C39.5887 29.7109 39.1484 29.7761 38.6355 29.8305C38.4253 29.8559 37.633 29.8812 36.8752 29.8957L35.4973 29.9175L35.4859 31.7407L35.4781 33.5603H30.6632L30.6402 33.4806ZM37.9467 26.1043C38.2414 26.0245 38.4442 25.9375 38.4902 25.865C38.5057 25.8397 38.5706 25.7889 38.6281 25.7527C38.6971 25.7164 38.7849 25.5932 38.8578 25.4482C38.9725 25.2198 38.9803 25.18 38.9803 24.8066C38.9803 24.4478 38.9688 24.3861 38.8693 24.1868C38.7391 23.9186 38.5629 23.7482 38.2454 23.5923C37.8741 23.4111 37.522 23.3712 36.435 23.3821L35.4973 23.393L35.4859 24.7667C35.4781 25.8433 35.4896 26.1514 35.5239 26.1731C35.5508 26.1913 36.0482 26.1985 36.6263 26.1913C37.5179 26.1768 37.7211 26.1623 37.9467 26.1043Z" fill="white"/>
<path d="M45.6605 32.9006C45.6605 32.5345 45.649 29.4209 45.6376 25.9774L45.6147 19.7139H56.8557V23.2117L50.4638 23.248L50.4524 24.0672L50.4447 24.8864L50.5405 24.9262C50.6132 24.9589 51.3635 24.9697 53.3535 24.9697H56.071V28.232H50.483L50.4638 28.3154C50.4524 28.3589 50.4487 28.7467 50.4524 29.1744L50.4638 29.9537L50.5789 29.9755C50.6438 29.99 52.1021 30.0009 53.8244 30.0045L56.9515 30.0081V33.5603H45.6605V32.9006Z" fill="white"/>
<path d="M59.4746 19.7139H63.3023C67.4855 19.7139 67.8723 19.7284 68.7369 19.9313C68.894 19.9676 69.0739 20.0111 69.1388 20.022C69.2001 20.0365 69.3379 20.0836 69.4452 20.1307C69.5522 20.1742 69.7207 20.2395 69.8202 20.2721C70.0345 20.3409 70.3752 20.5041 70.467 20.5838C70.5016 20.6128 70.5971 20.6708 70.6775 20.7107C70.957 20.8448 71.3703 21.1891 71.6192 21.49C71.7262 21.6205 71.8335 21.7437 71.8563 21.7618C71.8832 21.7836 71.9367 21.8742 71.9788 21.9648C72.0248 22.0591 72.0901 22.1678 72.1281 22.2041C72.2317 22.3055 72.4039 22.7876 72.5071 23.2661C72.5569 23.4945 72.6181 23.7337 72.645 23.7917C72.7136 23.9439 72.7136 25.1618 72.645 25.3141C72.6181 25.3757 72.5569 25.6113 72.5071 25.8397C72.423 26.2384 72.2468 26.7531 72.1587 26.8582C72.1358 26.8872 72.0709 26.9923 72.0097 27.0902C71.6882 27.623 71.0909 28.174 70.4404 28.5365C70.1724 28.6851 70.1075 28.7358 70.1226 28.7721C70.134 28.8011 70.2067 28.8917 70.4633 29.1853C70.5168 29.2505 70.6012 29.3629 70.6469 29.439C70.6967 29.5115 70.7656 29.5913 70.8077 29.6094C70.846 29.6311 70.8803 29.6674 70.8803 29.6891C70.8803 29.7326 71.0145 29.9102 71.5348 30.5518C71.5772 30.6026 71.7033 30.7657 71.8183 30.9143C71.9367 31.0629 72.0746 31.2369 72.1244 31.2949C72.1779 31.3565 72.2505 31.4471 72.2888 31.4979C72.4459 31.7226 72.5108 31.8096 72.6218 31.9328C72.683 32.0053 72.8323 32.1902 72.9474 32.3424C73.0621 32.4947 73.173 32.6179 73.1885 32.6179C73.2036 32.6179 73.2306 32.6469 73.242 32.6832C73.2763 32.7665 73.4946 33.0601 73.7014 33.2994C73.7932 33.4083 73.8659 33.5096 73.8659 33.5276C73.8659 33.5459 72.794 33.5603 71.2516 33.5603C68.8099 33.5603 68.63 33.5566 68.5725 33.4986C68.5341 33.4626 68.4195 33.3102 68.3162 33.1544C68.2126 33.0021 68.1131 32.8716 68.0942 32.8644C68.0788 32.8608 68.0061 32.7629 67.9409 32.6542C67.8723 32.5454 67.7572 32.3823 67.6846 32.2917C67.6119 32.2011 67.4586 31.9981 67.3402 31.8386C67.2252 31.6791 67.0338 31.4254 66.9191 31.2768C66.6588 30.9433 66.4446 30.6497 66.3487 30.5011C66.3104 30.4394 66.2492 30.3633 66.2149 30.3307C66.1802 30.2981 66.0655 30.1495 65.966 29.9972C65.8627 29.8414 65.7632 29.7181 65.748 29.7181C65.7289 29.7181 65.7134 29.6964 65.7134 29.6746C65.7134 29.6493 65.6677 29.5804 65.6101 29.5188L65.5106 29.4136L64.9328 29.4245C64.615 29.4281 64.3432 29.4426 64.3278 29.4499C64.3089 29.4608 64.2971 30.3887 64.2971 31.516V33.5603H59.4746V19.7139ZM66.873 25.9919C67.4818 25.7853 67.9029 25.2017 67.8454 24.6326C67.8107 24.2665 67.6809 24.0055 67.4165 23.7518C67.0338 23.3857 66.946 23.364 65.6371 23.3386C65.036 23.3277 64.4962 23.3277 64.4313 23.3386L64.3163 23.3603L64.3049 24.6616C64.3012 25.3793 64.3049 25.9883 64.3163 26.01C64.3277 26.0463 64.5995 26.0571 65.5029 26.0571C66.5441 26.0571 66.6931 26.0499 66.873 25.9919Z" fill="white"/>
<path d="M89.3315 19.7139H92.979C96.883 19.7139 97.4608 19.7356 98.2226 19.8987C98.4139 19.9422 98.6857 20.0002 98.8232 20.0256C98.9611 20.0546 99.0799 20.0945 99.0836 20.1126C99.0913 20.1343 99.1182 20.1488 99.1448 20.1488C99.2137 20.1488 99.8796 20.4098 100.067 20.5113C100.439 20.707 100.852 20.9934 101.062 21.2073C101.365 21.5045 101.591 21.7727 101.694 21.9467C101.74 22.0228 101.801 22.1134 101.828 22.1424C101.855 22.1714 101.889 22.2367 101.905 22.2874C101.92 22.3382 101.981 22.4759 102.038 22.5955C102.238 22.9979 102.387 23.6213 102.421 24.2267C102.46 24.8247 102.436 25.5751 102.375 25.8578C102.257 26.416 102.138 26.822 102.042 26.9996C101.981 27.1083 101.92 27.2388 101.905 27.2896C101.855 27.4563 101.384 28.087 101.127 28.3335C100.76 28.6851 100.534 28.8409 100.102 29.0475C99.8951 29.149 99.7152 29.2397 99.7037 29.2505C99.6694 29.294 98.9228 29.526 98.613 29.5913C98.4445 29.6275 98.2915 29.6674 98.2683 29.6819C98.2263 29.7145 97.8513 29.7725 97.3041 29.8305C97.0972 29.8522 96.3163 29.8812 95.57 29.8957L94.2113 29.9175L94.1998 31.7407L94.1921 33.5603H89.3315V19.7139ZM96.6304 26.1006C96.9365 26.0209 97.0858 25.9375 97.3155 25.7092C97.5873 25.4482 97.6562 25.267 97.6562 24.8247C97.6562 24.4478 97.6064 24.2267 97.4991 24.1034C97.4722 24.0708 97.4073 23.9874 97.3575 23.9186C97.2543 23.7663 96.9022 23.5633 96.5843 23.4655C96.3852 23.4038 96.2093 23.393 95.2754 23.3821L94.1921 23.3676V24.7631C94.1921 25.8469 94.2039 26.1659 94.2419 26.1804C94.2651 26.1913 94.7547 26.1949 95.3215 26.1876C96.2053 26.1768 96.393 26.1623 96.6304 26.1006Z" fill="white"/>
<path d="M122.057 19.7139H125.896C130.309 19.7139 130.439 19.7211 131.53 19.9821C131.741 20.0328 131.989 20.109 132.085 20.1525C132.177 20.196 132.341 20.2576 132.452 20.2938C132.824 20.4098 133.524 20.8593 133.922 21.2363C134.351 21.6458 134.427 21.7365 134.561 21.9793C134.615 22.0808 134.676 22.1823 134.699 22.2113C134.722 22.2367 134.764 22.3092 134.787 22.3744C134.814 22.436 134.871 22.5774 134.917 22.6861C135.036 22.958 135.17 23.5996 135.219 24.0998C135.3 24.9045 135.132 25.9738 134.822 26.619C134.665 26.9488 134.477 27.2823 134.401 27.362C134.354 27.4128 134.29 27.4925 134.251 27.5433C134.048 27.8333 133.222 28.4712 132.881 28.6053C132.648 28.696 132.67 28.7721 133.061 29.2288C133.111 29.2904 133.191 29.3883 133.241 29.4535C133.291 29.5151 133.455 29.729 133.608 29.9247C133.761 30.1205 133.983 30.4032 134.098 30.5518C134.213 30.7004 134.351 30.8635 134.397 30.9143C134.446 30.965 134.508 31.0412 134.534 31.0883C134.558 31.1354 134.687 31.3058 134.822 31.4689C134.959 31.632 135.116 31.8277 135.174 31.9002C135.235 31.9763 135.311 32.0742 135.354 32.1177C135.392 32.1648 135.491 32.2953 135.576 32.4113C135.66 32.5273 135.752 32.6324 135.782 32.6433C135.813 32.6542 135.836 32.6795 135.836 32.6977C135.836 32.7339 136.008 32.9695 136.314 33.3429C136.387 33.4336 136.448 33.5169 136.448 33.5349C136.448 33.5496 135.262 33.5603 133.811 33.5603H131.17L130.964 33.2631C130.853 33.0964 130.734 32.9369 130.703 32.9079C130.673 32.8789 130.581 32.752 130.501 32.6288C130.416 32.5019 130.336 32.4004 130.317 32.4004C130.297 32.4004 130.259 32.3461 130.229 32.2808C130.198 32.2119 130.148 32.1358 130.114 32.1104C130.079 32.0815 130.018 32.0017 129.98 31.9328C129.942 31.8603 129.877 31.7697 129.838 31.7299C129.8 31.69 129.678 31.5269 129.563 31.3674C129.448 31.2079 129.337 31.0665 129.318 31.0557C129.299 31.0412 129.245 30.9723 129.199 30.9034C129.157 30.8309 129.054 30.6859 128.973 30.5808C128.502 29.9574 128.403 29.8269 128.273 29.6384L128.123 29.4318L126.899 29.4463L126.887 31.5051L126.88 33.5603H122.057V19.7139ZM129.436 25.9992C129.543 25.9665 129.666 25.9085 129.704 25.8759C129.742 25.8397 129.808 25.8034 129.85 25.7889C129.961 25.7563 130.206 25.4627 130.232 25.3322C130.248 25.2742 130.271 25.2235 130.286 25.2235C130.301 25.2235 130.336 25.1365 130.363 25.0277C130.42 24.7921 130.397 24.4188 130.313 24.2412C130.282 24.1723 130.244 24.0817 130.229 24.0345C130.16 23.8098 129.712 23.4872 129.337 23.3893C129.061 23.3168 127.014 23.277 126.929 23.3422C126.891 23.3748 126.88 23.6467 126.88 24.6979C126.88 25.4192 126.891 26.0209 126.907 26.0318C126.918 26.0463 127.45 26.0571 128.089 26.0571C129.054 26.0571 129.276 26.0463 129.436 25.9992Z" fill="white"/>
<path d="M140.866 28.6597C140.87 25.9629 140.87 23.7264 140.859 23.6938C140.839 23.6322 140.709 23.6286 138.849 23.6286H136.863V19.7139H149.666L149.681 23.6105L145.685 23.6467L145.666 33.5603H140.851L140.866 28.6597Z" fill="white"/>
<path d="M20.9328 16.169C20.8333 16.1038 20.6687 15.9407 20.6649 15.9044C20.6649 15.8935 20.7606 15.7957 20.8831 15.6869C21.0668 15.5202 21.1357 15.455 21.3079 15.2846C21.3232 15.2701 21.7787 14.846 22.3222 14.3422C22.8657 13.8383 23.7269 13.0336 24.2359 12.5552C24.7488 12.0767 26.0042 10.9023 27.0337 9.94537C28.7216 8.37223 29.4297 7.66903 29.4986 7.5023C29.5101 7.46967 29.5751 7.36453 29.6402 7.26307C29.8086 7.01297 29.9961 6.6251 30.0421 6.44023C30.0612 6.35323 30.111 6.1865 30.1531 6.0669C30.3483 5.4978 30.3597 4.5445 30.176 4.02617C30.1416 3.93917 30.0804 3.74343 30.0383 3.5912C29.9694 3.34473 29.6938 2.79014 29.5637 2.64152C29.5407 2.61253 29.5101 2.56178 29.4986 2.52916C29.422 2.33342 28.58 1.50336 28.3236 1.37649C28.27 1.35112 28.1896 1.30037 28.1475 1.26413C28.025 1.16626 27.5428 0.9089 27.4165 0.879903C27.3552 0.865403 27.1945 0.80741 27.0567 0.749413C26.4941 0.51018 25.3497 0.434063 24.5115 0.575427C23.9871 0.66242 23.9412 0.67692 23.7498 0.782037C23.6618 0.825533 23.5661 0.865403 23.5317 0.865403C23.4474 0.865403 23.0915 1.03939 22.8274 1.20613C22.7011 1.2895 22.5633 1.37287 22.5212 1.39462C22.3796 1.46711 21.4304 2.31167 21.4304 2.36604C21.4304 2.41679 22.2801 3.18523 22.3375 3.18523C22.3681 3.18523 22.5671 3.02212 22.7815 2.82276C23.5699 2.09419 24.1976 1.81146 25.2387 1.71722C25.6865 1.67372 26.4979 1.81871 26.9648 2.02532C27.2366 2.14494 27.8681 2.55815 27.9791 2.69227C28.0136 2.73577 28.0824 2.80826 28.1322 2.85901C28.2317 2.9605 28.4307 3.23598 28.6106 3.52957C28.6757 3.63107 28.7829 3.8993 28.8479 4.1313C28.9551 4.50463 28.9704 4.60613 28.9704 5.02297C28.9704 5.44343 28.9589 5.5377 28.8556 5.8603C28.7943 6.06327 28.7408 6.2445 28.7408 6.26627C28.7408 6.3025 28.6221 6.48737 28.3236 6.9187C28.2088 7.0782 27.0529 8.2055 26.2989 8.88693C26.1994 8.97757 26.0845 9.0863 26.0386 9.13343C25.9927 9.18053 25.1813 9.94537 24.2282 10.8334C23.279 11.7215 21.8782 13.03 21.1166 13.7441L19.731 15.0417L19.3483 14.6793L20.2477 13.8456C21.9203 12.2869 24.1134 10.239 25.2769 9.14793C25.9123 8.54983 26.674 7.8394 26.9648 7.57117C27.8031 6.79547 28.0748 6.46923 28.2088 6.08503C28.2509 5.95453 28.3006 5.8349 28.3197 5.81317C28.3963 5.72617 28.4422 5.30207 28.4269 4.85987C28.4116 4.46113 28.3963 4.3669 28.3044 4.1639C28.025 3.52957 27.9332 3.39547 27.5619 3.04749C27.3438 2.84088 27.1218 2.67415 27.0031 2.61978C26.896 2.56903 26.7467 2.49653 26.674 2.46029C26.1726 2.20656 25.2769 2.15581 24.5765 2.33342C24.3584 2.39142 24.1593 2.45304 24.1364 2.47479C24.1096 2.49653 24.0139 2.55453 23.9182 2.60165C23.6962 2.71402 23.5738 2.80826 23.1336 3.19973C22.9346 3.37733 22.77 3.5477 22.77 3.58033C22.77 3.63833 23.5738 4.41763 23.6312 4.41763C23.6503 4.41763 23.8263 4.2654 24.0292 4.08053C24.4732 3.67093 24.5038 3.65283 24.9133 3.5151C25.2387 3.40273 25.652 3.36283 25.7401 3.4317C25.7592 3.44983 25.8511 3.48247 25.9468 3.50783C26.4366 3.64193 26.7658 3.91743 26.9916 4.37777C27.0835 4.56987 27.1103 4.67863 27.1256 4.92873C27.1447 5.26583 27.1179 5.3782 26.9419 5.74067C26.8347 5.96177 26.1534 6.61423 21.1816 11.2503C20.7415 11.6599 19.9377 12.4102 19.4018 12.914L18.422 13.8311L18.0814 13.5085C17.89 13.3309 17.1934 12.6784 16.5313 12.0622C15.8691 11.4424 14.7898 10.4347 14.1315 9.8185C13.477 9.19867 12.922 8.69483 12.8952 8.69483C12.8723 8.69483 12.8417 8.6622 12.8264 8.62233C12.811 8.58247 12.7 8.4556 12.5852 8.3396C12.0341 7.80677 11.6054 7.02743 11.3375 6.08503C11.238 5.7298 11.2303 5.6573 11.2341 5.01573C11.2341 4.39227 11.2418 4.29077 11.3337 3.9428C11.3911 3.73257 11.4715 3.47883 11.5097 3.38097C11.7317 2.85901 11.8351 2.65965 12.0379 2.36604C12.1642 2.18843 12.2714 2.02894 12.279 2.0072C12.2867 1.98907 12.3479 1.91658 12.413 1.85133C13.0445 1.21338 13.6301 0.767537 14.1124 0.557303C14.2731 0.484807 14.4147 0.41594 14.4262 0.40144C14.476 0.336193 15.2568 0.133209 15.7084 0.0679637C16.3399 -0.0226546 16.8719 -0.0226546 17.5226 0.0679637C18.0469 0.140458 18.6899 0.314446 18.866 0.434063C18.9196 0.466683 19.0574 0.535553 19.1722 0.5863C19.5779 0.753037 20.2669 1.27138 20.7912 1.79696C20.9596 1.96732 21.1242 2.04707 21.1242 1.95645C21.1242 1.89483 21.8897 1.19163 22.1193 1.04664C22.192 0.99952 22.2609 0.948773 22.2724 0.934273C22.3107 0.887153 22.7815 0.611673 22.8274 0.611673C22.8504 0.611673 22.9652 0.557303 23.08 0.492057C23.5393 0.231077 24.4081 0.0389653 25.2769 0.00634284C26.2376 -0.0262797 27.1141 0.151333 27.9255 0.54643C28.5494 0.850907 28.8671 1.09376 29.644 1.85133C29.8239 2.02894 30.2373 2.68502 30.4095 3.06924C30.5052 3.27585 30.6353 3.6492 30.7004 3.90293C30.8114 4.33427 30.8191 4.40313 30.8191 5.01573C30.8191 5.63193 30.8114 5.69353 30.6966 6.11763C30.4631 6.97307 30.0612 7.72703 29.5445 8.2635C29.4067 8.40847 28.8939 8.90143 28.4001 9.36177C27.9064 9.82213 27.4662 10.239 27.4241 10.2861C27.3782 10.3332 27.3208 10.3912 27.2978 10.413C27.271 10.4347 27.1677 10.5289 27.0682 10.6232C26.9648 10.7174 26.8692 10.808 26.8462 10.8262C26.7964 10.8733 23.8531 13.6208 22.3183 15.0599C21.6409 15.6942 21.0706 16.2198 21.0553 16.2234C21.04 16.227 20.9864 16.2016 20.9328 16.169ZM18.7244 12.827C18.866 12.6893 18.9961 12.5733 19.0115 12.5733C19.0535 12.5733 19.3253 12.3196 19.3253 12.2797C19.3253 12.2471 18.112 11.0835 17.9092 10.9204C17.8556 10.8769 17.7867 10.8117 17.7522 10.7754C17.7178 10.7392 17.5992 10.6196 17.4843 10.5144C17.3695 10.413 17.2623 10.3078 17.2394 10.2861C17.1781 10.2245 14.7401 7.95537 14.6865 7.9119C14.6597 7.8865 14.5678 7.79953 14.4836 7.71253C14.3994 7.62553 14.2846 7.5204 14.231 7.48053C14.1812 7.44067 14.1085 7.3718 14.0741 7.32467C14.0435 7.28117 13.9363 7.16157 13.8368 7.0637C13.7411 6.96583 13.6607 6.87883 13.6607 6.86797C13.6607 6.8571 13.588 6.73023 13.4961 6.58523C13.3966 6.42213 13.2856 6.1684 13.2091 5.9219C13.0943 5.5558 13.0866 5.4833 13.0866 5.00483C13.0866 4.52277 13.0981 4.4539 13.2091 4.09867C13.2741 3.8848 13.3507 3.68543 13.3775 3.65643C13.4005 3.62747 13.4693 3.5151 13.523 3.40997C13.7181 3.04387 14.0588 2.67415 14.4836 2.38054C15.0195 2.0072 15.4596 1.84408 16.2251 1.73897C16.382 1.71722 16.539 1.69547 16.5696 1.69184C16.7877 1.65922 17.7599 1.85858 18.0814 1.99995C18.4029 2.13769 18.8966 2.45304 19.1378 2.67777C19.2373 2.76839 19.3483 2.86626 19.3904 2.89888C19.4286 2.9315 19.5473 3.04749 19.6545 3.15261C19.7616 3.26135 19.8765 3.37373 19.9109 3.40273C19.9492 3.4317 20.1444 3.61657 20.351 3.8087C20.5539 4.00443 20.7376 4.1748 20.7529 4.1893C20.7721 4.2074 20.8754 4.30527 20.9826 4.40677C21.0936 4.5119 21.5223 4.91423 21.9394 5.30207C22.3528 5.68993 22.6934 6.0234 22.6934 6.04513C22.6934 6.0669 22.6475 6.1104 22.5901 6.143C22.5289 6.17927 22.4485 6.24087 22.4064 6.288L22.3298 6.37137L21.3271 5.43983C20.7759 4.92873 19.9415 4.1494 19.4708 3.71083C18.5675 2.86988 18.4144 2.74302 18.1388 2.60165C18.0431 2.55453 17.9589 2.50378 17.9474 2.49291C17.9245 2.46391 17.6527 2.37692 17.3312 2.29355C16.96 2.19931 16.2634 2.21018 15.8232 2.3153C15.1458 2.47479 14.4721 2.93875 14.0894 3.5006C13.9861 3.65643 13.8866 3.8232 13.8713 3.87393C13.8559 3.92467 13.8023 4.04793 13.7526 4.1494C13.5536 4.56263 13.5497 5.49057 13.7449 5.8494C13.787 5.92917 13.8444 6.05963 13.8713 6.1394C13.9937 6.5236 14.0358 6.5635 18.8201 11.0473C19.2909 11.4895 19.7004 11.8483 19.731 11.8483C19.8076 11.8483 20.5884 11.1198 20.5884 11.0473C20.5884 10.9748 20.8295 11.2068 18.1043 8.65857C15.0539 5.80953 15.2376 5.99077 15.0692 5.66093C14.9314 5.3927 14.9238 5.3637 14.9238 5.01573C14.9238 4.66413 14.9314 4.63877 15.073 4.35963C15.1611 4.1893 15.295 4.00443 15.4022 3.90293C15.5821 3.73257 15.9687 3.52957 16.1907 3.4861C16.2519 3.4752 16.3131 3.44983 16.3246 3.43533C16.3361 3.4172 16.4586 3.40273 16.6002 3.40273C16.7992 3.40273 16.9293 3.4317 17.2202 3.53683L17.5838 3.67093L18.5024 4.5264C19.0076 4.9976 19.8688 5.8023 20.4161 6.317L21.4112 7.24857L21.2237 7.40443L21.0323 7.5639L20.9175 7.48417C20.8524 7.4443 20.7836 7.38267 20.7644 7.35367C20.7453 7.32467 20.6343 7.21957 20.5195 7.11807C20.4046 7.0202 20.2822 6.9042 20.2477 6.86797C20.2133 6.8281 20.1252 6.74473 20.0563 6.68673C19.953 6.59973 18.9655 5.68267 18.3991 5.14983C17.1437 3.96093 17.1666 3.97543 16.6538 3.95367C16.3591 3.93917 16.317 3.94643 16.0912 4.05153C15.9572 4.1168 15.8079 4.21103 15.7658 4.2654C15.7237 4.31977 15.6472 4.40677 15.6012 4.46477C15.4864 4.59527 15.4673 4.675 15.4634 5.00483C15.4596 5.31657 15.4902 5.42533 15.6433 5.60293C15.7237 5.69717 16.3667 6.32063 17.048 6.95857C17.071 6.98033 17.4728 7.3573 17.9436 7.79953C20.4085 10.1193 20.9864 10.6522 21.0323 10.6522C21.0515 10.6522 21.1357 10.5869 21.2199 10.5072C22.5863 9.2349 24.5076 7.44067 25.009 6.95857C25.032 6.94047 25.3305 6.65773 25.6788 6.3315C26.4328 5.62107 26.5591 5.4833 26.5591 5.36007C26.5591 5.30933 26.5783 5.2477 26.6051 5.22233C26.6548 5.1752 26.6548 4.7801 26.6051 4.7475C26.5859 4.73663 26.5591 4.67863 26.5438 4.62427C26.5285 4.56627 26.4749 4.4829 26.4252 4.4394C26.3716 4.39227 26.3295 4.3379 26.3295 4.31977C26.3295 4.2654 26.1726 4.14217 25.9659 4.04067C25.8051 3.96093 25.7247 3.94643 25.4607 3.94643C25.0817 3.94643 24.9019 4.01167 24.6033 4.26177C24.2895 4.52277 23.7001 5.08823 23.6809 5.1462C23.6618 5.2006 23.6503 5.1897 21.5682 3.2396C20.929 2.64152 20.374 2.12681 20.3357 2.09419C20.2936 2.05794 20.2286 1.9927 20.1827 1.9492C19.9989 1.74621 19.5435 1.38012 19.3215 1.246C19.0115 1.06477 18.5981 0.865403 18.533 0.865403C18.5024 0.865403 18.3761 0.818283 18.2498 0.756663C17.8058 0.550053 16.6155 0.437687 15.9189 0.542803C15.7811 0.560927 15.5744 0.59355 15.4596 0.611673C15.3448 0.626173 15.1343 0.691417 14.9927 0.753037C14.8511 0.81466 14.7094 0.865403 14.6827 0.865403C14.6061 0.865403 14.1545 1.09739 13.8559 1.2895C13.0024 1.83683 12.2446 2.78651 12.015 3.59483C11.9728 3.74343 11.9154 3.93917 11.8848 4.02617C11.8006 4.26177 11.747 4.617 11.747 4.96137C11.747 5.30207 11.8121 5.8929 11.8542 5.95453C11.9039 6.02703 11.9767 6.2445 12.015 6.42573C12.0532 6.59973 12.39 7.28117 12.4972 7.39353C12.5278 7.42253 12.5508 7.46603 12.5508 7.4878C12.5508 7.56753 13.0751 8.1185 13.7755 8.76733C14.1736 9.13703 15.3716 10.2571 16.4394 11.2611C17.5073 12.2616 18.3991 13.0808 18.4182 13.0808C18.4412 13.0808 18.579 12.9684 18.7244 12.827Z" fill="white"/>
<path d="M0.382324 1.12012H5.20487V15.0028H0.382324V1.12012Z" fill="white"/>
</g>
<defs>
<clipPath id="clip0_12027_195608">
<rect width="150" height="34" fill="white"/>
</clipPath>
</defs>
</svg>
