<svg width="25" height="33" viewBox="0 0 25 33" fill="none" xmlns="http://www.w3.org/2000/svg">
<path fill-rule="evenodd" clip-rule="evenodd" d="M12.5 0C19.4036 0 25 5.6012 25 12.5106C25 18.5636 20.705 23.6125 14.9988 24.7713L12.8883 27.796C12.8446 27.859 12.7864 27.9104 12.7188 27.9459C12.6512 27.9815 12.5762 28 12.5 28C12.4238 28 12.3488 27.9815 12.2812 27.9459C12.2136 27.9104 12.1555 27.859 12.1117 27.796L10.0012 24.7713C4.29498 23.6125 0 18.5636 0 12.5106C0 5.6012 5.59644 0 12.5 0Z" fill="url(#paint0_linear_6770_3944)"/>
<path d="M14 31.5C14 30.6716 13.3284 30 12.5 30C11.6716 30 11 30.6716 11 31.5C11 32.3284 11.6716 33 12.5 33C13.3284 33 14 32.3284 14 31.5Z" fill="url(#paint1_linear_6770_3944)"/>
<g clip-path="url(#clip0_6770_3944)">
<path d="M12.4999 6C11.0409 6 9.6419 6.56413 8.61014 7.56839C7.57959 8.57144 7 9.93313 7 11.3531C7 14.2856 10.671 18.3938 12.0141 19.8006C12.139 19.9283 12.3126 20 12.4938 20C12.6749 20 12.8473 19.9283 12.9734 19.8006C14.3287 18.3939 18 14.2857 18 11.3531C18 9.93307 17.4204 8.57138 16.3899 7.56839C15.3581 6.56413 13.9589 6 12.4999 6ZM12.4999 14.8048C11.0634 14.8048 9.7693 13.9635 9.21963 12.6711C8.67128 11.3799 8.9748 9.89417 9.99161 8.90562C11.0072 7.91839 12.5336 7.62295 13.8603 8.15913C15.1868 8.69531 16.0512 9.95607 16.05 11.3531C16.05 12.2698 15.6753 13.1476 15.0095 13.7957C14.3437 14.4425 13.4405 14.806 12.4999 14.8048Z" fill="white"/>
</g>
<defs>
<linearGradient id="paint0_linear_6770_3944" x1="12.4667" y1="6.84783" x2="12.6403" y2="27.9988" gradientUnits="userSpaceOnUse">
<stop offset="0.0193602" stop-color="#664AEA"/>
<stop offset="0.264161" stop-color="#5340AD"/>
<stop offset="0.485296" stop-color="#44397E"/>
<stop offset="0.74058" stop-color="#3B3461"/>
<stop offset="1" stop-color="#333046"/>
</linearGradient>
<linearGradient id="paint1_linear_6770_3944" x1="12.496" y1="30.7337" x2="12.5126" y2="32.9999" gradientUnits="userSpaceOnUse">
<stop offset="0.0193602" stop-color="#664AEA"/>
<stop offset="0.264161" stop-color="#5340AD"/>
<stop offset="0.485296" stop-color="#44397E"/>
<stop offset="0.74058" stop-color="#3B3461"/>
<stop offset="1" stop-color="#333046"/>
</linearGradient>
<clipPath id="clip0_6770_3944">
<rect width="13" height="14" fill="white" transform="translate(6 6)"/>
</clipPath>
</defs>
</svg>
