<svg width="104" height="94" viewBox="0 0 104 94" fill="none" xmlns="http://www.w3.org/2000/svg">
<path d="M54.1852 41.7762L44.3016 31.9116L31.505 19.1764L23.442 11.0864L13.9746 1.53497C13.4896 1.04832 12.9138 0.662296 12.2801 0.398926C11.6464 0.135555 10.9672 0 10.2813 0C9.59537 0 8.91617 0.135555 8.28247 0.398926C7.64877 0.662296 7.07297 1.04832 6.58795 1.53497C5.60842 2.51779 5.05812 3.85079 5.05812 5.24071C5.05812 6.63063 5.60842 7.96363 6.58795 8.94645L13.7665 16.097L21.3613 23.7172L32.9615 35.4086L41.0244 43.4464L55.2775 57.7474L69.7908 72.3616L89.818 92.4561C90.3016 92.9453 90.877 93.3336 91.5108 93.5986C92.1447 93.8636 92.8247 94 93.5114 94C94.1981 94 94.878 93.8636 95.5119 93.5986C96.1458 93.3336 96.7211 92.9453 97.2047 92.4561C97.6923 91.9709 98.0793 91.3937 98.3434 90.7576C98.6075 90.1216 98.7434 89.4394 98.7434 88.7504C98.7434 88.0614 98.6075 87.3792 98.3434 86.7431C98.0793 86.1071 97.6923 85.5299 97.2047 85.0446L54.1852 41.7762ZM102.459 25.7528C88.91 12.5696 70.7696 5.21039 51.8963 5.24071C44.0439 5.26207 36.2459 6.54849 28.8 9.05084L37.227 17.5062C47.4321 14.9477 58.1188 15.0429 68.277 17.7828C78.4351 20.5226 87.729 25.8166 95.28 33.1643C96.2443 34.0969 97.53 34.6203 98.8693 34.6257C99.57 34.623 100.263 34.4783 100.907 34.2003C101.55 33.9222 102.131 33.5166 102.615 33.0077C103.532 32.0143 104.028 30.7022 103.999 29.3486C103.97 27.9949 103.417 26.7056 102.459 25.7528ZM9.34495 19.072C6.52255 21.1086 3.84571 23.341 1.33405 25.7528C0.456173 26.7322 -0.0201434 28.0085 0.000653404 29.3256C0.0214502 30.6427 0.537822 31.9031 1.44619 32.8542C2.35455 33.8052 3.58772 34.3765 4.89832 34.4534C6.20893 34.5302 7.50004 34.107 8.51265 33.2686C11.1068 30.8089 13.8897 28.5577 16.8357 26.5357L9.34495 19.072ZM77.9057 52.9456C78.3875 53.4388 78.962 53.8311 79.596 54.0999C80.23 54.3687 80.9108 54.5086 81.5991 54.5114C82.6156 54.5075 83.6088 54.2049 84.4558 53.6409C85.3028 53.0769 85.9665 52.2762 86.365 51.3378C86.7634 50.3994 86.8791 49.3645 86.6977 48.3609C86.5163 47.3573 86.0459 46.429 85.3444 45.6907C81.0058 41.1799 75.8111 37.5861 70.0667 35.1211C64.3222 32.656 58.144 31.3695 51.8963 31.3375H51.064L63.2884 43.603C68.8393 45.4914 73.8537 48.6964 77.9057 52.9456ZM28.1237 37.9139C24.4887 40.0382 21.1629 42.6551 18.2402 45.6907C17.2813 46.7081 16.7646 48.0661 16.8036 49.4658C16.8426 50.8655 17.4342 52.1923 18.4482 53.1544C19.4623 54.1164 20.8157 54.6349 22.2107 54.5958C23.6057 54.5566 24.9281 53.963 25.8869 52.9456C28.9174 49.9226 32.4348 47.4346 36.2907 45.5863L28.1237 37.9139ZM33.8458 64.7413C32.8525 65.7034 32.2807 67.022 32.2563 68.407C32.2443 69.0928 32.3669 69.7743 32.6173 70.4125C32.8677 71.0508 33.241 71.6332 33.7158 72.1267C34.1905 72.6202 34.7575 73.0151 35.3844 73.2887C36.0112 73.5623 36.6857 73.7094 37.3692 73.7215C38.7495 73.746 40.0831 73.2193 41.0764 72.2572C43.7544 69.779 47.1986 68.2975 50.834 68.0601C54.4694 67.8226 58.076 68.8435 61.0516 70.9524L47.9429 57.7996C42.6433 58.601 37.7198 61.0254 33.8458 64.7413Z" fill="#664AEA"/>
</svg>
