<svg width="20" height="20" viewBox="0 0 20 20" fill="none" xmlns="http://www.w3.org/2000/svg">
<g id="bell (1) 2">
<g id="Group">
<path id="Vector" d="M17.8157 14.0942C16.5557 13.0292 15.8332 11.4725 15.8332 9.82333V7.5C15.8332 4.5675 13.6548 2.14 10.8332 1.73333V0.833333C10.8332 0.3725 10.4598 0 9.99984 0C9.53984 0 9.1665 0.3725 9.1665 0.833333V1.73333C6.344 2.14 4.1665 4.5675 4.1665 7.5V9.82333C4.1665 11.4725 3.444 13.0292 2.1765 14.1008C1.85234 14.3783 1.6665 14.7817 1.6665 15.2083C1.6665 16.0125 2.32067 16.6667 3.12484 16.6667H16.8748C17.679 16.6667 18.3332 16.0125 18.3332 15.2083C18.3332 14.7817 18.1473 14.3783 17.8157 14.0942Z" fill="white"/>
<path id="Vector_2" d="M9.99965 20C11.5088 20 12.7713 18.9242 13.0613 17.5H6.93799C7.22799 18.9242 8.49049 20 9.99965 20Z" fill="white"/>
</g>
<circle id="Ellipse 2351" cx="16" cy="4" r="4" fill="#DD3333"/>
</g>
</svg>
