<svg width="14" height="16" viewBox="0 0 14 16" fill="none" xmlns="http://www.w3.org/2000/svg">
<path d="M8.14607 14.0022C8.02884 14.2043 7.86058 14.3721 7.65813 14.4887C7.45569 14.6053 7.22616 14.6667 6.99253 14.6667C6.75891 14.6667 6.52938 14.6053 6.32693 14.4887C6.12448 14.3721 5.95622 14.2043 5.839 14.0022M10.9915 5.33404C10.9915 4.27298 10.5717 3.25539 9.82146 2.50511C9.07118 1.75483 8.05359 1.33333 6.99253 1.33333C5.93148 1.33333 4.91388 1.75483 4.1636 2.50511C3.41332 3.25539 2.99182 4.27298 2.99182 5.33404C2.99182 8.83333 -0.124892 9.42818 0.991468 10.9167C2.10783 12.4051 11.8248 12.5833 13.0748 10.9167C14.1623 9.46665 10.9915 8.83333 10.9915 5.33404Z" stroke="#181824" stroke-width="1.1" stroke-linecap="round" stroke-linejoin="round"/>
</svg>
