<svg width="27" height="23" viewBox="0 0 27 23" fill="none" xmlns="http://www.w3.org/2000/svg">
<path d="M11.9694 0.5625C10.8932 0.5625 10.0146 1.44035 10.0146 2.51562V7.59375H19.1373C20.3954 7.59375 21.4243 8.63263 21.4243 9.88638V16.2386C21.4243 17.4924 20.3954 18.5312 19.1373 18.5312H10.0146V20.4844C10.0146 21.5596 10.8932 22.4375 11.9694 22.4375H24.4801C25.5563 22.4375 26.4349 21.5596 26.4349 20.4844V6.8125H21.7434C20.8838 6.8125 20.1795 6.10887 20.1795 5.25V0.5625H11.9694ZM20.9615 0.746368V5.25C20.9615 5.68957 21.3034 6.03125 21.7434 6.03125H26.176C26.1361 5.97599 26.0949 5.92158 26.047 5.87256L21.2409 0.956177C21.1577 0.871079 21.0618 0.804462 20.9615 0.746368Z" fill="#664AEA"/>
<path fill-rule="evenodd" clip-rule="evenodd" d="M3 8.5238C1.34315 8.5238 0 9.86695 0 11.5238V14.4524C0 16.1092 1.34315 17.4524 3 17.4524H17.2553C18.9122 17.4524 20.2553 16.1092 20.2553 14.4524V11.5238C20.2553 9.86695 18.9122 8.5238 17.2553 8.5238H3ZM5.74899 12.9482V11.5022C5.74899 11.4702 5.76499 11.4502 5.79699 11.4422C5.94899 11.4222 6.09699 11.4122 6.24099 11.4122C6.90499 11.4122 7.23699 11.6782 7.23699 12.2102C7.23699 12.4742 7.15099 12.6782 6.97899 12.8222C6.81099 12.9622 6.56499 13.0322 6.24099 13.0322C6.09699 13.0322 5.94899 13.0222 5.79699 13.0022C5.76499 12.9942 5.74899 12.9762 5.74899 12.9482ZM5.01698 15.0962C5.08499 15.1642 5.16499 15.1982 5.25699 15.1982H5.40699C5.49899 15.1982 5.57899 15.1642 5.64699 15.0962C5.71499 15.0282 5.74899 14.9482 5.74899 14.8562V13.6922C5.74899 13.6602 5.76499 13.6442 5.79699 13.6442C6.01299 13.6602 6.18699 13.6682 6.31898 13.6682C6.88699 13.6682 7.31499 13.5402 7.60299 13.2842C7.89499 13.0282 8.04099 12.6502 8.04099 12.1502C8.04099 11.6982 7.89099 11.3542 7.59099 11.1182C7.29099 10.8782 6.84099 10.7582 6.24099 10.7582C5.92499 10.7582 5.59699 10.7742 5.25699 10.8062C5.16098 10.8142 5.08099 10.8562 5.01698 10.9322C4.95299 11.0082 4.92099 11.0942 4.92099 11.1902V14.8562C4.92099 14.9482 4.95299 15.0282 5.01698 15.0962ZM9.52256 14.5022V11.5142C9.52256 11.4862 9.53856 11.4682 9.57056 11.4602C9.69856 11.4402 9.81856 11.4302 9.93056 11.4302C10.3906 11.4302 10.7326 11.5522 10.9566 11.7962C11.1806 12.0402 11.2926 12.4242 11.2926 12.9482C11.2926 13.5322 11.1826 13.9522 10.9626 14.2082C10.7426 14.4602 10.3986 14.5862 9.93056 14.5862C9.81856 14.5862 9.69856 14.5762 9.57056 14.5562C9.53856 14.5482 9.52256 14.5302 9.52256 14.5022ZM8.78456 15.0902C8.84856 15.1622 8.93056 15.2042 9.03056 15.2162C9.28656 15.2442 9.57256 15.2582 9.88856 15.2582C10.6006 15.2582 11.1446 15.0662 11.5206 14.6822C11.9006 14.2942 12.0906 13.7162 12.0906 12.9482C12.0906 12.2322 11.9006 11.6882 11.5206 11.3162C11.1446 10.9442 10.6006 10.7582 9.88856 10.7582C9.57256 10.7582 9.28656 10.7722 9.03056 10.8002C8.93056 10.8122 8.84856 10.8562 8.78456 10.9322C8.72056 11.0042 8.68856 11.0902 8.68856 11.1902V14.8262C8.68856 14.9262 8.72056 15.0142 8.78456 15.0902ZM12.8627 15.0962C12.9307 15.1642 13.0107 15.1982 13.1027 15.1982H13.2647C13.3567 15.1982 13.4367 15.1642 13.5047 15.0962C13.5727 15.0282 13.6067 14.9482 13.6067 14.8562V13.3442C13.6067 13.3122 13.6227 13.2962 13.6547 13.2962H14.9807C15.0687 13.2962 15.1447 13.2662 15.2087 13.2062C15.2727 13.1422 15.3047 13.0642 15.3047 12.9722C15.3047 12.8802 15.2727 12.8042 15.2087 12.7442C15.1447 12.6802 15.0687 12.6482 14.9807 12.6482H13.6547C13.6227 12.6482 13.6067 12.6322 13.6067 12.6002V11.5502C13.6067 11.5142 13.6227 11.4962 13.6547 11.4962H15.0827C15.1747 11.4962 15.2547 11.4642 15.3227 11.4002C15.3907 11.3322 15.4247 11.2522 15.4247 11.1602C15.4247 11.0682 15.3907 10.9882 15.3227 10.9202C15.2547 10.8522 15.1747 10.8182 15.0827 10.8182H13.1027C13.0107 10.8182 12.9307 10.8522 12.8627 10.9202C12.7987 10.9882 12.7667 11.0682 12.7667 11.1602V14.8562C12.7667 14.9482 12.7987 15.0282 12.8627 15.0962Z" fill="#664AEA"/>
</svg>
