<svg width="25" height="24" viewBox="0 0 25 24" fill="none" xmlns="http://www.w3.org/2000/svg">
<path d="M7.81731 7.38462C7.81731 4.96708 9.78438 3 12.2019 3C14.6195 3 16.5865 4.96708 16.5865 7.38462C16.5865 9.80215 14.6195 11.7692 12.2019 11.7692C9.78438 11.7692 7.81731 9.80215 7.81731 7.38462ZM14.9712 13.1538H9.43269C6.50654 13.1538 4.125 15.5354 4.125 18.4615C4.12549 19.1346 4.39309 19.78 4.86904 20.256C5.34499 20.7319 5.99037 20.9995 6.66346 21H17.7404C18.4135 20.9995 19.0589 20.7319 19.5348 20.256C20.0108 19.78 20.2784 19.1346 20.2788 18.4615C20.2788 15.5354 17.8973 13.1538 14.9712 13.1538Z" fill="#9CA3AF"/>
</svg>
