<svg width="18" height="20" viewBox="0 0 18 20" fill="none" xmlns="http://www.w3.org/2000/svg">
<path d="M11.2876 4.16671C12.0201 4.32551 12.6934 4.72359 13.2211 5.30999C13.7489 5.89639 14.1071 6.64443 14.2501 7.45837M11.2876 0.833374C12.8095 1.02124 14.2288 1.77852 15.3123 2.98088C16.3957 4.18324 17.0791 5.75922 17.2501 7.45004M16.5001 14.1V16.6C16.5009 16.8321 16.4581 17.0618 16.3745 17.2745C16.2908 17.4871 16.168 17.678 16.0141 17.8349C15.8602 17.9918 15.6785 18.1113 15.4806 18.1856C15.2828 18.26 15.0731 18.2876 14.8651 18.2667C12.5572 17.9881 10.3403 17.1118 8.39257 15.7084C6.58044 14.4289 5.04407 12.7219 3.89257 10.7084C2.62506 8.53438 1.83625 6.0592 1.59007 3.48337C1.57133 3.25293 1.59598 3.02067 1.66245 2.80139C1.72892 2.58211 1.83575 2.38061 1.97615 2.20972C2.11654 2.03883 2.28743 1.9023 2.47792 1.80881C2.6684 1.71532 2.87433 1.66693 3.08257 1.66671H5.33257C5.69655 1.66273 6.04942 1.80594 6.32539 2.06965C6.60137 2.33336 6.78163 2.69958 6.83257 3.10004C6.92754 3.9001 7.10366 4.68565 7.35757 5.44171C7.45848 5.73998 7.48032 6.06414 7.4205 6.37577C7.36069 6.68741 7.22172 6.97347 7.02007 7.20004L6.06757 8.25837C7.13524 10.3447 8.68991 12.0721 10.5676 13.2584L11.5201 12.2C11.724 11.976 11.9814 11.8216 12.2619 11.7551C12.5424 11.6887 12.8341 11.7129 13.1026 11.825C13.783 12.1072 14.49 12.3029 15.2101 12.4084C15.5744 12.4655 15.9071 12.6694 16.145 12.9813C16.3828 13.2932 16.5092 13.6914 16.5001 14.1Z" stroke="#252525" stroke-linecap="round" stroke-linejoin="round"/>
</svg>
