<svg width="27" height="23" viewBox="0 0 27 23" fill="none" xmlns="http://www.w3.org/2000/svg">
<path d="M11.9694 0.5625C10.8932 0.5625 10.0146 1.44035 10.0146 2.51562V7.59375H19.1373C20.3954 7.59375 21.4243 8.63263 21.4243 9.88638V16.2386C21.4243 17.4924 20.3954 18.5312 19.1373 18.5312H10.0146V20.4844C10.0146 21.5596 10.8932 22.4375 11.9694 22.4375H24.4801C25.5563 22.4375 26.4349 21.5596 26.4349 20.4844V6.8125H21.7434C20.8838 6.8125 20.1795 6.10887 20.1795 5.25V0.5625H11.9694ZM20.9615 0.746368V5.25C20.9615 5.68957 21.3034 6.03125 21.7434 6.03125H26.176C26.1361 5.97599 26.0949 5.92158 26.047 5.87256L21.2409 0.956177C21.1577 0.871079 21.0618 0.804462 20.9615 0.746368Z" fill="#664AEA"/>
<path fill-rule="evenodd" clip-rule="evenodd" d="M3 8.5238C1.34315 8.5238 0 9.86695 0 11.5238V14.4524C0 16.1092 1.34315 17.4524 3 17.4524H17.2553C18.9122 17.4524 20.2553 16.1092 20.2553 14.4524V11.5238C20.2553 9.86695 18.9122 8.5238 17.2553 8.5238H3ZM5.31832 12.9482V11.5022C5.31832 11.4702 5.33432 11.4502 5.36632 11.4422C5.51832 11.4222 5.66632 11.4122 5.81032 11.4122C6.47432 11.4122 6.80632 11.6782 6.80632 12.2102C6.80632 12.4742 6.72032 12.6782 6.54832 12.8222C6.38032 12.9622 6.13432 13.0322 5.81032 13.0322C5.66632 13.0322 5.51832 13.0222 5.36632 13.0022C5.33432 12.9942 5.31832 12.9762 5.31832 12.9482ZM4.58632 15.0962C4.65432 15.1642 4.73432 15.1982 4.82632 15.1982H4.97632C5.06832 15.1982 5.14832 15.1642 5.21632 15.0962C5.28432 15.0282 5.31832 14.9482 5.31832 14.8562V13.6922C5.31832 13.6602 5.33432 13.6442 5.36632 13.6442C5.58232 13.6602 5.75632 13.6682 5.88832 13.6682C6.45632 13.6682 6.88432 13.5402 7.17232 13.2842C7.46432 13.0282 7.61032 12.6502 7.61032 12.1502C7.61032 11.6982 7.46032 11.3542 7.16032 11.1182C6.86032 10.8782 6.41032 10.7582 5.81032 10.7582C5.49432 10.7582 5.16632 10.7742 4.82632 10.8062C4.73032 10.8142 4.65032 10.8562 4.58632 10.9322C4.52232 11.0082 4.49032 11.0942 4.49032 11.1902V14.8562C4.49032 14.9482 4.52232 15.0282 4.58632 15.0962ZM8.3539 15.0962C8.4219 15.1642 8.5019 15.1982 8.5939 15.1982H8.7259C8.8179 15.1982 8.8979 15.1642 8.9659 15.0962C9.0339 15.0282 9.0679 14.9482 9.0679 14.8562V12.2222C9.0679 12.2182 9.0699 12.2162 9.0739 12.2162C9.0779 12.2162 9.0799 12.2182 9.0799 12.2222L10.5619 14.8982C10.6699 15.0982 10.8379 15.1982 11.0659 15.1982H11.1979C11.2899 15.1982 11.3679 15.1642 11.4319 15.0962C11.4999 15.0282 11.5339 14.9482 11.5339 14.8562V11.1602C11.5339 11.0682 11.4999 10.9882 11.4319 10.9202C11.3679 10.8522 11.2899 10.8182 11.1979 10.8182H11.0659C10.9739 10.8182 10.8939 10.8522 10.8259 10.9202C10.7579 10.9882 10.7239 11.0682 10.7239 11.1602V13.7942C10.7239 13.7982 10.7219 13.8002 10.7179 13.8002C10.7139 13.8002 10.7119 13.7982 10.7119 13.7942L9.2299 11.1182C9.1219 10.9182 8.9539 10.8182 8.7259 10.8182H8.5939C8.5019 10.8182 8.4219 10.8522 8.3539 10.9202C8.2899 10.9882 8.2579 11.0682 8.2579 11.1602V14.8562C8.2579 14.9482 8.2899 15.0282 8.3539 15.0962ZM12.8065 14.6582C13.2065 15.0582 13.7285 15.2582 14.3725 15.2582C14.7645 15.2582 15.1305 15.2082 15.4705 15.1082C15.5665 15.0802 15.6445 15.0242 15.7045 14.9402C15.7645 14.8562 15.7945 14.7622 15.7945 14.6582V12.9122C15.7945 12.8202 15.7605 12.7402 15.6925 12.6722C15.6245 12.6042 15.5445 12.5702 15.4525 12.5702H14.1925C14.1045 12.5702 14.0285 12.6022 13.9645 12.6662C13.9045 12.7262 13.8745 12.8022 13.8745 12.8942C13.8745 12.9822 13.9045 13.0582 13.9645 13.1222C14.0285 13.1822 14.1045 13.2122 14.1925 13.2122H14.9425C14.9745 13.2122 14.9905 13.2302 14.9905 13.2662V14.4542C14.9905 14.4902 14.9745 14.5122 14.9425 14.5202C14.7745 14.5682 14.6045 14.5922 14.4325 14.5922C14.0125 14.5922 13.6785 14.4562 13.4305 14.1842C13.1865 13.9082 13.0645 13.5162 13.0645 13.0082C13.0645 12.4842 13.1885 12.0902 13.4365 11.8262C13.6885 11.5582 14.0565 11.4242 14.5405 11.4242C14.7725 11.4242 15.0065 11.4502 15.2425 11.5022C15.3265 11.5222 15.4025 11.5062 15.4705 11.4542C15.5385 11.4022 15.5725 11.3342 15.5725 11.2502V11.2262C15.5725 11.1262 15.5405 11.0382 15.4765 10.9622C15.4125 10.8822 15.3325 10.8342 15.2365 10.8182C15.0005 10.7782 14.7385 10.7582 14.4505 10.7582C13.7505 10.7582 13.2025 10.9582 12.8065 11.3582C12.4105 11.7542 12.2125 12.3042 12.2125 13.0082C12.2125 13.7042 12.4105 14.2542 12.8065 14.6582Z" fill="#664AEA"/>
</svg>
