<svg width="24" height="25" viewBox="0 0 24 25" fill="none" xmlns="http://www.w3.org/2000/svg">
<path d="M12 23.9753C18.0751 23.9753 23 19.0504 23 12.9753C23 6.90015 18.0751 1.97528 12 1.97528C5.92487 1.97528 1 6.90015 1 12.9753C1 19.0504 5.92487 23.9753 12 23.9753Z" stroke="#252525" stroke-width="1.3" stroke-linecap="round" stroke-linejoin="round"/>
<path d="M19 21.1817C17.1513 22.9197 14.7003 23.9753 12 23.9753C9.2997 23.9753 6.84866 22.9197 5 21.1817C5.10386 20.1794 5.727 19.1984 6.83828 18.4307C9.68398 16.4901 14.3368 16.4901 17.1617 18.4307C18.273 19.1984 18.8961 20.1794 19 21.1817Z" stroke="#252525" stroke-width="1.2" stroke-linecap="round" stroke-linejoin="round"/>
<path d="M12.1098 12.9753C12.0457 12.9661 11.9634 12.9661 11.8902 12.9753C10.2805 12.9203 9 11.6012 9 9.97986C9 8.32185 10.3354 6.97528 12 6.97528C13.6555 6.97528 15 8.32185 15 9.97986C14.9909 11.6012 13.7195 12.9203 12.1098 12.9753Z" stroke="#252525" stroke-width="1.2" stroke-linecap="round" stroke-linejoin="round"/>
</svg>
