<svg width="48" height="48" viewBox="0 0 48 48" fill="none" xmlns="http://www.w3.org/2000/svg">
<g id="Group 624869">
<g id="Group 624859">
<circle id="Ellipse 2" cx="24" cy="24" r="24" fill="#FDFDFD"/>
</g>
<g id="Group 624868">
<g id="Group 624910">
<g id="Layer 1">
<path id="Vector" d="M33.7924 33.8911C33.7924 34.253 28.7701 37.5158 24.2028 37.5158C19.7183 37.5158 14.6133 34.4981 14.6133 33.8911C14.6133 29.9188 20.0846 26.6987 24.2028 26.6987C28.3211 26.6987 33.7924 29.9188 33.7924 33.8911Z" fill="#9CA3AF"/>
<path id="Vector_2" d="M24.2058 37.9244C20.7958 37.9263 17.4901 36.7902 14.8497 34.7088C12.2093 32.6273 10.3968 29.7288 9.71983 26.5051C9.04284 23.2814 9.54304 19.931 11.1356 17.0226C12.7281 14.1141 15.3148 11.8266 18.4568 10.5484C22.0665 9.07771 26.134 9.05038 29.7646 10.4724C33.3951 11.8945 36.2914 14.6494 37.8161 18.1312C39.3408 21.613 39.3692 25.5364 37.8949 29.0383C36.4206 32.5402 33.5645 35.3338 29.9548 36.8045C28.1362 37.5476 26.1808 37.9286 24.2058 37.9244ZM24.2058 10.6738C21.5396 10.6738 18.9333 11.4364 16.7165 12.8651C14.4997 14.2939 12.7719 16.3246 11.7516 18.7006C10.7313 21.0765 10.4643 23.6909 10.9845 26.2132C11.5046 28.7354 12.7885 31.0523 14.6738 32.8708C16.559 34.6892 18.961 35.9276 21.5759 36.4293C24.1908 36.931 26.9013 36.6735 29.3645 35.6894C31.8277 34.7052 33.933 33.0387 35.4143 30.9004C36.8955 28.7621 37.6861 26.2482 37.6861 23.6765C37.6822 20.2291 36.2607 16.924 33.7335 14.4864C31.2063 12.0487 27.7798 10.6776 24.2058 10.6738Z" fill="#9CA3AF"/>
</g>
<ellipse id="Ellipse 5" cx="24.1995" cy="19.2975" rx="4.72683" ry="4.72821" fill="#9CA3AF"/>
</g>
</g>
</g>
</svg>
