<svg width="42" height="40" viewBox="0 0 42 40" fill="none" xmlns="http://www.w3.org/2000/svg">
<path fill-rule="evenodd" clip-rule="evenodd" d="M6 28.8846V34.8077C6 35.9864 6.474 37.1162 7.3185 37.9484C8.1615 38.7821 9.306 39.25 10.5 39.25C16.776 39.25 31.224 39.25 37.5 39.25C38.694 39.25 39.8385 38.7821 40.6815 37.9484C41.526 37.1162 42 35.9864 42 34.8077V12.5962H6V20H7.50151C7.50151 18.8628 7.9395 17.7255 8.8185 16.8593C10.5735 15.1253 13.4265 15.1253 15.1815 16.8593L19.6815 21.3016C21.4395 23.0356 21.4395 25.849 19.6815 27.583L15.1815 32.0253C13.4265 33.7593 10.5735 33.7593 8.8185 32.0253C7.9395 31.1591 7.50151 30.0218 7.50151 28.8846H6ZM12.879 22.9615H1.5C0.672 22.9615 0 23.6249 0 24.4423C0 25.2597 0.672 25.9231 1.5 25.9231H12.879L10.9395 27.8377C10.3545 28.4152 10.3545 29.354 10.9395 29.9315C11.5245 30.509 12.4755 30.509 13.0605 29.9315L17.5605 25.4892C18.147 24.9117 18.147 23.9729 17.5605 23.3954L13.0605 18.9531C12.4755 18.3756 11.5245 18.3756 10.9395 18.9531C10.3545 19.5306 10.3545 20.4694 10.9395 21.0469L12.879 22.9615ZM33 3.71154H25.5V2.23077C25.5 1.41338 24.828 0.75 24 0.75C23.172 0.75 22.5 1.41338 22.5 2.23077V3.71154H15V2.23077C15 1.41338 14.328 0.75 13.5 0.75C12.672 0.75 12 1.41338 12 2.23077V3.71154H10.5C9.306 3.71154 8.1615 4.17946 7.3185 5.01313C6.474 5.84532 6 6.97515 6 8.15385V9.63462H42V8.15385C42 6.97515 41.526 5.84532 40.6815 5.01313C39.8385 4.17946 38.694 3.71154 37.5 3.71154H36V2.23077C36 1.41338 35.328 0.75 34.5 0.75C33.672 0.75 33 1.41338 33 2.23077V3.71154Z" fill="#9CA3AF"/>
</svg>
