<svg width="24" height="24" viewBox="0 0 24 24" fill="none" xmlns="http://www.w3.org/2000/svg">
<path d="M2.90898 9.2727C2.36352 9.2727 1.99988 8.90905 1.99988 8.3636V4.72725C1.99988 3.1818 3.18168 2 4.72713 2H8.36349C8.90894 2 9.27258 2.36365 9.27258 2.9091C9.27258 3.45455 8.90894 3.81819 8.36349 3.81819H4.72713C4.18168 3.81819 3.81804 4.18184 3.81804 4.72729V8.36364C3.81807 8.90905 3.45443 9.2727 2.90898 9.2727ZM21.0907 9.2727C20.5453 9.2727 20.1816 8.90905 20.1816 8.3636V4.72725C20.1816 4.1818 19.818 3.81816 19.2725 3.81816H15.6362C15.0907 3.81816 14.7271 3.45451 14.7271 2.90906C14.7271 2.36361 15.0907 2 15.6362 2H19.2725C20.818 2 21.9998 3.1818 21.9998 4.72725V8.3636C21.9998 8.90905 21.6362 9.2727 21.0907 9.2727ZM8.36349 21.9999H4.72713C3.18168 21.9999 1.99988 20.8181 1.99988 19.2727V15.6363C1.99988 15.0909 2.36352 14.7272 2.90898 14.7272C3.45443 14.7272 3.81807 15.0909 3.81807 15.6363V19.2727C3.81807 19.8181 4.18172 20.1818 4.72717 20.1818H8.36352C8.90897 20.1818 9.27262 20.5454 9.27262 21.0909C9.27258 21.6363 8.90894 21.9999 8.36349 21.9999ZM19.2726 21.9999H15.6362C15.0908 21.9999 14.7271 21.6363 14.7271 21.0908C14.7271 20.5454 15.0908 20.1818 15.6362 20.1818H19.2726C19.818 20.1818 20.1817 19.8181 20.1817 19.2727V15.6363C20.1817 15.0909 20.5453 14.7272 21.0908 14.7272C21.6362 14.7272 21.9999 15.0909 21.9999 15.6363V19.2727C21.9998 20.8181 20.818 21.9999 19.2726 21.9999Z" fill="#FDFDFD"/>
<path d="M10.1814 11.0913H6.54508C5.99963 11.0913 5.63599 10.7276 5.63599 10.1822V6.54582C5.63599 6.00036 5.99963 5.63672 6.54508 5.63672H10.1814C10.7269 5.63672 11.0905 6.00036 11.0905 6.54582V10.1822C11.0905 10.7276 10.7269 11.0913 10.1814 11.0913ZM7.45418 9.27307H9.27238V7.45488H7.45418V9.27307ZM10.1814 18.364H6.54508C5.99963 18.364 5.63599 18.0003 5.63599 17.4549V13.8185C5.63599 13.2731 5.99963 12.9094 6.54508 12.9094H10.1814C10.7269 12.9094 11.0905 13.2731 11.0905 13.8185V17.4549C11.0905 18.0003 10.7269 18.364 10.1814 18.364ZM7.45418 16.5458H9.27238V14.7276H7.45418V16.5458ZM17.4541 11.0913H13.8178C13.2723 11.0913 12.9087 10.7276 12.9087 10.1822V6.54582C12.9087 6.00036 13.2723 5.63672 13.8178 5.63672H17.4541C17.9996 5.63672 18.3632 6.00036 18.3632 6.54582V10.1822C18.3632 10.7276 17.9996 11.0913 17.4541 11.0913ZM14.7269 9.27307H16.5451V7.45488H14.7269V9.27307ZM13.8178 15.6367C13.2723 15.6367 12.9087 15.273 12.9087 14.7276V13.8185C12.9087 13.273 13.2723 12.9094 13.8178 12.9094C14.3632 12.9094 14.7269 13.273 14.7269 13.8185V14.7276C14.7269 15.2731 14.3632 15.6367 13.8178 15.6367ZM17.4541 14.7276H16.545C15.9996 14.7276 15.636 14.364 15.636 13.8185C15.636 13.2731 15.9996 12.9094 16.545 12.9094H17.4541C17.9996 12.9094 18.3632 13.2731 18.3632 13.8185C18.3632 14.364 17.9996 14.7276 17.4541 14.7276ZM17.4541 18.364H14.7269C14.1814 18.364 13.8178 18.0003 13.8178 17.4549C13.8178 16.9094 14.1814 16.5458 14.7269 16.5458H17.4541C17.9996 16.5458 18.3632 16.9094 18.3632 17.4549C18.3632 18.0003 17.9996 18.364 17.4541 18.364Z" fill="#FDFDFD"/>
</svg>
