<svg width="20" height="20" viewBox="0 0 20 20" fill="none" xmlns="http://www.w3.org/2000/svg">
<path d="M0.908853 7.2727C0.363402 7.2727 -0.000244141 6.90905 -0.000244141 6.3636V2.72725C-0.000244141 1.1818 1.18156 0 2.72701 0H6.36337C6.90882 0 7.27246 0.363646 7.27246 0.909097C7.27246 1.45455 6.90882 1.81819 6.36337 1.81819H2.72701C2.18156 1.81819 1.81791 2.18184 1.81791 2.72729V6.36364C1.81795 6.90905 1.4543 7.2727 0.908853 7.2727ZM19.0906 7.2727C18.5452 7.2727 18.1815 6.90905 18.1815 6.3636V2.72725C18.1815 2.1818 17.8179 1.81816 17.2724 1.81816H13.6361C13.0906 1.81816 12.727 1.45451 12.727 0.90906C12.727 0.363609 13.0906 0 13.6361 0H17.2724C18.8179 0 19.9997 1.1818 19.9997 2.72725V6.3636C19.9997 6.90905 19.6361 7.2727 19.0906 7.2727ZM6.36337 19.9999H2.72701C1.18156 19.9999 -0.000244141 18.8181 -0.000244141 17.2727V13.6363C-0.000244141 13.0909 0.363402 12.7272 0.908853 12.7272C1.4543 12.7272 1.81795 13.0909 1.81795 13.6363V17.2727C1.81795 17.8181 2.1816 18.1818 2.72705 18.1818H6.3634C6.90885 18.1818 7.2725 18.5454 7.2725 19.0909C7.27246 19.6363 6.90882 19.9999 6.36337 19.9999ZM17.2725 19.9999H13.6361C13.0907 19.9999 12.727 19.6363 12.727 19.0908C12.727 18.5454 13.0907 18.1818 13.6361 18.1818H17.2725C17.8179 18.1818 18.1816 17.8181 18.1816 17.2727V13.6363C18.1816 13.0909 18.5452 12.7272 19.0907 12.7272C19.6361 12.7272 19.9998 13.0909 19.9998 13.6363V17.2727C19.9997 18.8181 18.8179 19.9999 17.2725 19.9999Z" fill="white"/>
<path d="M8.18144 9.09126H4.54508C3.99963 9.09126 3.63599 8.72762 3.63599 8.18217V4.54582C3.63599 4.00036 3.99963 3.63672 4.54508 3.63672H8.18144C8.72689 3.63672 9.09054 4.00036 9.09054 4.54582V8.18217C9.09054 8.72762 8.72689 9.09126 8.18144 9.09126ZM5.45418 7.27307H7.27238V5.45488H5.45418V7.27307ZM8.18144 16.364H4.54508C3.99963 16.364 3.63599 16.0003 3.63599 15.4549V11.8185C3.63599 11.2731 3.99963 10.9094 4.54508 10.9094H8.18144C8.72689 10.9094 9.09054 11.2731 9.09054 11.8185V15.4549C9.09054 16.0003 8.72689 16.364 8.18144 16.364ZM5.45418 14.5458H7.27238V12.7276H5.45418V14.5458ZM15.4541 9.09126H11.8178C11.2723 9.09126 10.9087 8.72762 10.9087 8.18217V4.54582C10.9087 4.00036 11.2723 3.63672 11.8178 3.63672H15.4541C15.9996 3.63672 16.3632 4.00036 16.3632 4.54582V8.18217C16.3632 8.72762 15.9996 9.09126 15.4541 9.09126ZM12.7269 7.27307H14.5451V5.45488H12.7269V7.27307ZM11.8178 13.6367C11.2723 13.6367 10.9087 13.273 10.9087 12.7276V11.8185C10.9087 11.273 11.2723 10.9094 11.8178 10.9094C12.3632 10.9094 12.7269 11.273 12.7269 11.8185V12.7276C12.7269 13.2731 12.3632 13.6367 11.8178 13.6367ZM15.4541 12.7276H14.545C13.9996 12.7276 13.636 12.364 13.636 11.8185C13.636 11.2731 13.9996 10.9094 14.545 10.9094H15.4541C15.9996 10.9094 16.3632 11.2731 16.3632 11.8185C16.3632 12.364 15.9996 12.7276 15.4541 12.7276ZM15.4541 16.364H12.7269C12.1814 16.364 11.8178 16.0003 11.8178 15.4549C11.8178 14.9094 12.1814 14.5458 12.7269 14.5458H15.4541C15.9996 14.5458 16.3632 14.9094 16.3632 15.4549C16.3632 16.0003 15.9996 16.364 15.4541 16.364Z" fill="white"/>
</svg>
