<svg width="24" height="24" viewBox="0 0 24 24" fill="none" xmlns="http://www.w3.org/2000/svg">
<path d="M20.1191 14.7711C20.065 14.9307 20.0055 15.0903 19.9432 15.2473C19.9297 15.2797 19.9189 15.3095 19.9054 15.3419C19.8594 15.4556 19.9081 15.3392 19.9135 15.3203C19.881 15.415 19.8323 15.507 19.789 15.5963C19.6294 15.9317 19.486 16.2483 19.4941 16.6298C19.4995 16.9869 19.6105 17.3548 19.8269 17.6389C19.9324 17.7796 20.0487 17.9014 20.1705 18.0258C20.2787 18.134 20.3896 18.245 20.4979 18.3532C20.506 18.3613 20.5168 18.3694 20.5249 18.3802C20.5357 18.3911 20.5466 18.4019 20.5547 18.4127C20.6061 18.4641 20.5493 18.4587 20.5195 18.3694C20.5249 18.3856 20.5466 18.4181 20.5574 18.4343C20.6277 18.5453 20.5222 18.2855 20.5466 18.4127C20.5493 18.4343 20.5574 18.4668 20.5655 18.4857C20.5141 18.3532 20.5547 18.364 20.5547 18.4533C20.5547 18.4749 20.5466 18.6021 20.5574 18.4749C20.5682 18.3505 20.552 18.4695 20.5466 18.4939C20.533 18.5615 20.4952 18.5182 20.5736 18.437C20.5574 18.4533 20.5384 18.4993 20.5276 18.5209C20.4897 18.5994 20.644 18.3965 20.552 18.4939C20.5466 18.4993 20.533 18.5128 20.5249 18.5236C20.5222 18.5263 20.5168 18.5317 20.5141 18.5344C20.4708 18.5804 20.4248 18.6237 20.3788 18.6697C19.9378 19.1107 19.4968 19.5517 19.0558 19.9927C18.8908 20.1578 18.7258 20.3228 18.5634 20.4851C18.5499 20.4987 18.5364 20.5149 18.5201 20.5284C18.5174 20.5311 18.5147 20.5338 18.512 20.5365C18.5039 20.5446 18.4931 20.5555 18.4823 20.5636C18.3903 20.6529 18.6148 20.4824 18.4768 20.5582C18.3822 20.6123 18.4471 20.5338 18.5174 20.5446C18.5066 20.5419 18.4525 20.5636 18.4444 20.5663C18.3172 20.6042 18.5851 20.5609 18.4958 20.5609C18.466 20.5609 18.4336 20.5609 18.4038 20.5609C18.328 20.5636 18.3849 20.5176 18.4714 20.5717C18.4525 20.5582 18.4038 20.5528 18.3822 20.5473C18.301 20.5284 18.531 20.6339 18.4227 20.5636C18.3686 20.5284 18.3199 20.4608 18.4309 20.5852C18.255 20.3931 18.0575 20.2146 17.8708 20.0306C17.4001 19.5652 16.6777 19.3596 16.0419 19.5869C15.8687 19.6491 15.7064 19.7357 15.5387 19.8142C15.4629 19.8493 15.3872 19.8899 15.3087 19.917C15.4494 19.8683 15.3628 19.8953 15.3303 19.9088C15.2843 19.9278 15.2356 19.9467 15.1896 19.9657C14.8812 20.0874 14.5403 20.1659 14.2698 20.3661C13.772 20.7394 13.5122 21.2697 13.5122 21.8893C13.5122 22.0408 13.5122 22.195 13.5122 22.3465C13.5122 22.4033 13.5122 22.4601 13.5122 22.517C13.5122 22.5251 13.5122 22.5332 13.5122 22.5413C13.5122 22.563 13.5041 22.6901 13.5149 22.563C13.5285 22.4169 13.4933 22.6062 13.4933 22.6144C13.4906 22.6008 13.5745 22.4629 13.5203 22.5521C13.5095 22.5711 13.496 22.5927 13.4852 22.6144C13.4284 22.728 13.5988 22.5034 13.5068 22.59C13.4906 22.6062 13.4716 22.6225 13.4581 22.6387C13.3905 22.7118 13.4987 22.6008 13.5122 22.5981C13.4879 22.6035 13.4419 22.6387 13.4202 22.6522C13.3553 22.6901 13.3959 22.6198 13.4825 22.6252C13.4635 22.6252 13.3959 22.6414 13.377 22.6522C13.4635 22.6008 13.5258 22.6387 13.4284 22.6414C13.4202 22.6414 13.4148 22.6414 13.4094 22.6414C13.404 22.6414 13.4013 22.6414 13.3959 22.6414C13.3688 22.6414 13.3445 22.6414 13.3174 22.6414C12.7358 22.6414 12.1541 22.6414 11.5724 22.6414C11.2964 22.6414 11.0232 22.6414 10.7472 22.6414C10.6877 22.6414 10.6309 22.6414 10.5713 22.6414C10.5686 22.6414 10.5659 22.6414 10.5632 22.6414C10.5389 22.6414 10.5118 22.636 10.4875 22.6387C10.6552 22.6333 10.6119 22.6631 10.5578 22.6441C10.547 22.6414 10.5335 22.6387 10.5226 22.636C10.455 22.6144 10.4766 22.6225 10.5849 22.6658C10.5686 22.6522 10.5389 22.6441 10.5226 22.6333C10.5091 22.6252 10.4794 22.6008 10.4631 22.5954C10.5524 22.6685 10.5713 22.682 10.5172 22.636C10.5037 22.6252 10.4929 22.6117 10.4794 22.5981C10.4144 22.5413 10.4766 22.5278 10.5064 22.6414C10.501 22.6252 10.4766 22.5954 10.4685 22.5819C10.4577 22.563 10.3982 22.4574 10.4577 22.5657C10.5118 22.6685 10.4685 22.5711 10.4577 22.544C10.4361 22.4791 10.4875 22.4872 10.4631 22.6144C10.4604 22.6225 10.4604 22.5305 10.4604 22.5386C10.4604 22.5251 10.4604 22.5116 10.4604 22.498C10.4604 22.3465 10.4604 22.1977 10.4604 22.0462C10.4604 21.919 10.4631 21.7892 10.4496 21.662C10.4063 21.2751 10.2656 20.9478 10.0221 20.6475C9.80027 20.3742 9.49184 20.2119 9.16447 20.0982C9.02108 20.0495 8.87769 19.9954 8.737 19.9386C8.69913 19.9224 8.65854 19.9061 8.62066 19.8899C8.52327 19.8493 8.77217 19.9575 8.62066 19.8899C8.54491 19.8547 8.46645 19.8223 8.3907 19.7844C8.04439 19.6221 7.71161 19.4679 7.31661 19.4895C6.9703 19.5084 6.6267 19.6112 6.34533 19.8196C6.08289 20.0144 5.86375 20.2633 5.63107 20.4932C5.62025 20.5041 5.61213 20.5122 5.60131 20.523C5.59049 20.5338 5.58237 20.5419 5.57155 20.5528C5.47415 20.6475 5.67707 20.4932 5.59861 20.5284C5.57696 20.5392 5.53097 20.5582 5.51474 20.5744C5.5932 20.4959 5.63919 20.5338 5.57155 20.5473C5.56073 20.5501 5.5472 20.5528 5.53638 20.5582C5.46604 20.5717 5.48768 20.5717 5.60672 20.5528C5.57426 20.5473 5.52826 20.5555 5.4958 20.5555C5.42004 20.5582 5.47686 20.5122 5.56344 20.5663C5.5445 20.5528 5.4958 20.5473 5.47415 20.5419C5.39299 20.523 5.62296 20.6285 5.51474 20.5582C5.4985 20.5473 5.46604 20.523 5.4498 20.5203C5.54991 20.5528 5.5445 20.6015 5.47957 20.5392C5.47415 20.5338 5.46874 20.5284 5.46333 20.5257C5.46063 20.523 5.45522 20.5176 5.45251 20.5149C5.07915 20.1496 4.7139 19.7763 4.34325 19.4056C4.12681 19.1892 3.90766 18.97 3.69122 18.7536C3.62629 18.6887 3.56406 18.6264 3.49913 18.5615C3.4856 18.548 3.47207 18.5344 3.45855 18.5209C3.45584 18.5182 3.45584 18.5182 3.45314 18.5155C3.45855 18.5209 3.39361 18.4533 3.39903 18.456C3.45855 18.5372 3.47478 18.5561 3.44772 18.5128C3.4369 18.4966 3.42879 18.4803 3.41796 18.4641C3.36115 18.3694 3.44502 18.5074 3.43961 18.5209C3.44231 18.5128 3.41526 18.4181 3.40985 18.4127C3.41796 18.4235 3.42067 18.5913 3.42067 18.4803C3.42067 18.456 3.42067 18.4289 3.42067 18.4046C3.41526 18.272 3.37468 18.5615 3.41796 18.437C3.42608 18.4181 3.4369 18.3829 3.43961 18.364C3.42338 18.4885 3.3855 18.4749 3.42608 18.4046C3.49642 18.2774 3.36385 18.4587 3.40985 18.4154C3.49372 18.3315 3.57759 18.245 3.66146 18.1611C3.98342 17.8391 4.29726 17.5307 4.42171 17.0735C4.5137 16.738 4.50829 16.3511 4.38654 16.0237C4.3189 15.8425 4.22691 15.6693 4.14575 15.4935C4.13222 15.4637 4.11869 15.4312 4.10516 15.4015C4.10246 15.3961 4.03482 15.2418 4.07811 15.3419C4.1214 15.442 4.05647 15.2905 4.05376 15.2824C4.03482 15.2364 4.01588 15.1877 3.99694 15.1417C3.88331 14.8468 3.80485 14.5276 3.61276 14.2679C3.37738 13.9513 3.08248 13.7295 2.70912 13.5969C2.36281 13.4751 1.96781 13.5103 1.60798 13.5103C1.55657 13.5103 1.50517 13.5103 1.45376 13.5103C1.43482 13.5103 1.41588 13.5103 1.39695 13.5103C1.32119 13.5103 1.37801 13.4724 1.46729 13.5211C1.45106 13.513 1.38342 13.4914 1.36177 13.4941C1.39424 13.5076 1.424 13.5211 1.45647 13.5374C1.43482 13.5265 1.41318 13.5157 1.39424 13.5049C1.37801 13.4968 1.35095 13.4724 1.33472 13.467C1.43482 13.4941 1.43753 13.559 1.38883 13.5076C1.36989 13.4887 1.34013 13.4454 1.31578 13.4319C1.32931 13.44 1.40506 13.5725 1.35907 13.4833C1.34825 13.4643 1.33472 13.44 1.3239 13.421C1.25897 13.3101 1.36177 13.5779 1.34013 13.4508C1.33742 13.44 1.33472 13.4264 1.33201 13.4156C1.31849 13.3453 1.31849 13.3696 1.33742 13.486C1.34554 13.4427 1.33472 13.3669 1.33472 13.3182C1.33472 13.2181 1.33472 13.1153 1.33472 13.0152C1.33472 12.6987 1.33472 12.3848 1.33472 12.0683C1.33472 11.5705 1.3266 11.0699 1.33472 10.5721C1.33472 10.5694 1.33472 10.5667 1.33472 10.564C1.33472 10.5424 1.34284 10.4152 1.33201 10.5424C1.32119 10.6668 1.33743 10.5505 1.34284 10.5261C1.35907 10.4287 1.3239 10.5721 1.31308 10.5884C1.32931 10.5694 1.34284 10.5342 1.35366 10.5099C1.38612 10.4396 1.42941 10.4693 1.31849 10.5478C1.34013 10.5315 1.3726 10.491 1.39154 10.472C1.47541 10.3827 1.2779 10.5315 1.35095 10.5018C1.3753 10.491 1.40506 10.472 1.42671 10.4585C1.49164 10.4206 1.45106 10.491 1.36448 10.4855C1.38612 10.4883 1.42941 10.4693 1.45106 10.4612C1.53493 10.4368 1.26708 10.4693 1.39965 10.4693C1.41318 10.4693 1.42671 10.4693 1.43753 10.4693C1.45376 10.4693 1.47 10.4693 1.48623 10.4693C1.79195 10.4693 2.10038 10.4883 2.4061 10.4477C2.76594 10.399 3.08248 10.2448 3.35844 10.0094C3.62358 9.78211 3.77509 9.47639 3.88602 9.15173C3.93742 9.00022 3.99424 8.84871 4.05647 8.69991C4.06729 8.67286 4.07811 8.62686 4.09434 8.60522C4.08352 8.62686 4.0754 8.65121 4.06458 8.67286C4.0754 8.64851 4.08352 8.62686 4.09434 8.60251C4.13222 8.51864 4.1701 8.43477 4.21068 8.3509C4.3703 8.01542 4.50829 7.68264 4.48123 7.30387C4.45147 6.89533 4.30808 6.5328 4.04564 6.21625C3.96718 6.12156 3.8752 6.03769 3.78862 5.9484C3.6831 5.84289 3.57488 5.73737 3.46937 5.62915C3.46125 5.62104 3.45584 5.61563 3.44772 5.60751C3.45314 5.61292 3.3882 5.54528 3.39361 5.54799C3.4856 5.59398 3.46125 5.6535 3.43149 5.58857C3.42338 5.56963 3.35844 5.45871 3.41526 5.56693C3.46937 5.66974 3.42338 5.56422 3.41255 5.53987C3.37738 5.44247 3.42338 5.59128 3.41796 5.61022C3.42608 5.58316 3.41526 5.52905 3.41526 5.49929C3.40985 5.36672 3.36926 5.65621 3.41255 5.53176C3.42067 5.51282 3.43149 5.47765 3.4342 5.45871C3.41796 5.58316 3.37738 5.56963 3.41255 5.51552C3.41796 5.5047 3.42608 5.49388 3.43149 5.48306C3.46937 5.42354 3.45584 5.43706 3.39361 5.52364C3.41796 5.51282 3.43961 5.47223 3.46125 5.45059C3.50725 5.40189 3.55595 5.3559 3.60194 5.3099C3.80215 5.1097 4.00506 4.90678 4.20527 4.70657C4.60839 4.30345 5.01151 3.90033 5.41193 3.49992C5.42545 3.48639 5.43898 3.47286 5.45251 3.45933C5.45522 3.45663 5.45521 3.45663 5.45792 3.45392C5.47415 3.43769 5.55261 3.343 5.47957 3.42957C5.43087 3.46474 5.43087 3.47016 5.47415 3.43769C5.4958 3.42416 5.51744 3.41334 5.54179 3.40252C5.53097 3.41604 5.38487 3.45392 5.48498 3.42957C5.4958 3.42687 5.5445 3.41875 5.55802 3.41063C5.52285 3.41604 5.48768 3.41875 5.45251 3.42416C5.47686 3.42146 5.50121 3.42146 5.52556 3.42146C5.54991 3.42146 5.57696 3.42687 5.59861 3.42416C5.43087 3.42957 5.47686 3.39981 5.52826 3.41875C5.53909 3.42146 5.55261 3.42416 5.56344 3.42957C5.63107 3.45122 5.61213 3.4431 5.50662 3.40252C5.51744 3.41334 5.56344 3.43228 5.57426 3.43769C5.68789 3.4945 5.47145 3.33217 5.56344 3.42416C5.742 3.60002 5.91786 3.78129 6.09913 3.95715C6.58341 4.42791 7.31931 4.62541 7.96052 4.37921C8.13638 4.31157 8.30141 4.22499 8.47186 4.14653C8.51786 4.12489 8.56385 4.10595 8.60984 4.08431C8.66125 4.06266 8.67478 4.02479 8.5882 4.09242C8.65313 4.04102 8.77217 4.01667 8.84793 3.98961C8.99132 3.9355 9.13742 3.88951 9.2781 3.83269C9.48913 3.74882 9.65688 3.65142 9.83274 3.50803C10.2629 3.15632 10.4523 2.61521 10.4523 2.0714C10.4523 1.91719 10.4523 1.76298 10.4523 1.60606C10.4523 1.55195 10.4523 1.49784 10.4523 1.44373C10.4523 1.42208 10.455 1.39773 10.455 1.37609C10.455 1.28951 10.409 1.55195 10.4496 1.4302C10.4523 1.41938 10.455 1.40585 10.4577 1.39503C10.4794 1.32739 10.4712 1.34903 10.4279 1.45725C10.4469 1.4329 10.5443 1.27869 10.4658 1.37609C10.3847 1.47349 10.5172 1.34362 10.5335 1.31657C10.4577 1.42749 10.4252 1.3842 10.4956 1.35174C10.5199 1.34092 10.5524 1.32739 10.574 1.31116C10.4496 1.40044 10.455 1.35444 10.5118 1.34092C10.5362 1.3328 10.5578 1.32739 10.5822 1.32468C10.547 1.33009 10.5118 1.3328 10.4739 1.33821C10.5145 1.34903 10.6065 1.33551 10.6498 1.33551C10.896 1.33551 11.1449 1.33551 11.3911 1.33551C12.0026 1.33551 12.6167 1.33551 13.2282 1.33551C13.2796 1.33551 13.3337 1.33551 13.3851 1.33551C13.3986 1.33551 13.4175 1.33551 13.4284 1.33551C13.5366 1.33551 13.3688 1.3328 13.358 1.32468C13.3715 1.3328 13.4284 1.34633 13.4446 1.34633C13.5231 1.34903 13.2931 1.26246 13.3986 1.32468C13.4175 1.33551 13.4392 1.34903 13.4608 1.35986C13.569 1.41397 13.3743 1.26516 13.4229 1.32739C13.4419 1.35174 13.4825 1.40044 13.5095 1.41397C13.496 1.40585 13.4202 1.27328 13.4662 1.36256C13.4771 1.3815 13.4906 1.40585 13.5014 1.42479C13.5663 1.53571 13.4635 1.26787 13.4852 1.39503C13.4879 1.41667 13.496 1.44643 13.5014 1.46537C13.4527 1.3328 13.4906 1.3328 13.4906 1.39503C13.4906 1.40855 13.4906 1.42479 13.4906 1.43832C13.4906 1.45455 13.4906 1.47349 13.4906 1.48972C13.4906 1.64393 13.4906 1.79815 13.4906 1.95236C13.4906 2.13634 13.496 2.30949 13.5258 2.49076C13.5799 2.82083 13.7449 3.11844 13.9641 3.36735C14.1994 3.63249 14.5052 3.77588 14.8352 3.88951C14.9786 3.94091 15.122 3.99232 15.2627 4.05184C15.2925 4.06537 15.4548 4.11677 15.287 4.06266C15.3168 4.07348 15.3493 4.08972 15.379 4.10324C15.4629 4.14112 15.5468 4.179 15.6306 4.21958C15.9634 4.37921 16.2989 4.50907 16.675 4.47931C17.0835 4.44685 17.4433 4.29804 17.7572 4.0329C17.9601 3.85975 18.1414 3.65413 18.3307 3.46745C18.3362 3.46204 18.3416 3.45663 18.347 3.45122C18.3632 3.43498 18.4417 3.34029 18.3686 3.42687C18.3037 3.50262 18.3659 3.43769 18.3984 3.41875C18.466 3.37546 18.4227 3.45392 18.3416 3.44039C18.3605 3.4431 18.4119 3.42146 18.4309 3.41604C18.5147 3.38899 18.2496 3.41875 18.3794 3.42416C18.4119 3.42416 18.4579 3.43228 18.4904 3.42687C18.3605 3.45122 18.3578 3.39981 18.42 3.42146C18.4444 3.42957 18.5472 3.47557 18.4471 3.42416C18.3389 3.36735 18.4498 3.43228 18.4687 3.44039C18.5607 3.48098 18.4363 3.42416 18.4281 3.40252C18.4363 3.42416 18.4796 3.44851 18.5012 3.47016C18.6392 3.60543 18.7772 3.74612 18.9151 3.8841C19.367 4.33592 19.8188 4.78774 20.2733 5.24227C20.3355 5.30449 20.3978 5.36672 20.46 5.42895C20.4708 5.43977 20.4843 5.4533 20.4952 5.46412C20.506 5.47494 20.5168 5.48576 20.5276 5.49658C20.5899 5.56152 20.4897 5.49929 20.4925 5.4533C20.4925 5.46412 20.5357 5.54258 20.5493 5.5534C20.4789 5.48576 20.5006 5.42354 20.5249 5.51552C20.5439 5.58316 20.5168 5.62374 20.5249 5.46412C20.5249 5.49658 20.5195 5.69138 20.5303 5.55881C20.5412 5.43436 20.5249 5.5534 20.5195 5.57775C20.5006 5.67785 20.5303 5.53446 20.5466 5.52093C20.5303 5.53446 20.5114 5.58316 20.5006 5.6048C20.4735 5.64809 20.4897 5.62915 20.5493 5.54799C20.533 5.56963 20.5141 5.58857 20.4952 5.60751C20.4194 5.68597 20.3437 5.75902 20.2652 5.83748C19.9405 6.16214 19.624 6.47869 19.5131 6.94674C19.4238 7.3201 19.4508 7.70699 19.5996 8.0587C19.6673 8.21833 19.7484 8.37525 19.8188 8.53487C19.8323 8.56463 19.8458 8.5971 19.8594 8.62686C19.8215 8.52946 19.927 8.77837 19.8594 8.62686C19.8945 8.71344 19.9297 8.80001 19.9622 8.88659C20.0244 9.04892 20.0758 9.21396 20.1434 9.37358C20.2219 9.56026 20.3139 9.70636 20.4465 9.86328C20.6575 10.1149 20.9578 10.2962 21.2689 10.3936C21.6125 10.5018 22.0021 10.4693 22.3593 10.4693C22.4053 10.4693 22.4512 10.4693 22.4972 10.4693C22.5243 10.4693 22.5541 10.4747 22.5838 10.472C22.4161 10.4774 22.4594 10.4477 22.5135 10.4666C22.5378 10.472 22.5595 10.4801 22.5838 10.4855C22.4837 10.4396 22.4567 10.4287 22.5054 10.4504C22.527 10.4666 22.5568 10.4801 22.5838 10.4937C22.6406 10.5234 22.6055 10.5532 22.5324 10.4504C22.5459 10.472 22.5757 10.4937 22.5973 10.5099C22.6623 10.5667 22.6 10.5802 22.5703 10.4666C22.5784 10.4937 22.6812 10.656 22.619 10.5424C22.5649 10.4396 22.6082 10.537 22.619 10.564C22.6569 10.6776 22.6163 10.399 22.6163 10.5288C22.6163 10.6803 22.6163 10.8291 22.6163 10.9807C22.6163 11.6246 22.6163 12.2712 22.6163 12.9151C22.6163 13.0801 22.619 13.2452 22.6163 13.4075C22.6163 13.4264 22.6136 13.4481 22.6136 13.467C22.6136 13.5536 22.6596 13.2912 22.619 13.4129C22.6136 13.4264 22.5973 13.4724 22.6 13.4833C22.5919 13.3859 22.6704 13.3534 22.619 13.4346C22.6082 13.4535 22.5757 13.4887 22.573 13.5103C22.5757 13.4968 22.6866 13.3859 22.6136 13.4562C22.5919 13.4778 22.5541 13.5022 22.5378 13.5293C22.6136 13.4183 22.646 13.4616 22.5757 13.4941C22.5513 13.5049 22.5189 13.5184 22.4972 13.5347C22.6217 13.4454 22.6163 13.4914 22.5595 13.5049C22.5351 13.5103 22.4188 13.5265 22.5432 13.5157C22.6677 13.5049 22.4891 13.513 22.4512 13.513C22.1861 13.513 21.9101 13.4941 21.645 13.5238C20.9307 13.6185 20.3653 14.0785 20.1191 14.7711C20 15.1039 20.2544 15.5259 20.5926 15.6044C20.9713 15.691 21.2987 15.4907 21.4259 15.1309C21.4718 14.9983 21.3474 15.2716 21.415 15.1526C21.4286 15.1309 21.4394 15.1093 21.4502 15.0876C21.4664 15.0606 21.4854 15.0362 21.5016 15.0092C21.5476 14.9361 21.3826 15.1336 21.4773 15.0443C21.4935 15.0281 21.5097 15.0092 21.5287 14.9902C21.5476 14.9713 21.6396 14.9091 21.5422 14.9713C21.4394 15.0362 21.5449 14.9713 21.5611 14.9605C21.5909 14.9415 21.6234 14.9226 21.6558 14.9064C21.7695 14.8414 21.5287 14.9496 21.6125 14.9226C21.6423 14.9145 21.6694 14.9009 21.6991 14.8928C21.7235 14.8874 21.7478 14.882 21.7722 14.8739C21.902 14.8414 21.6315 14.882 21.7235 14.8793C21.7803 14.8766 21.8344 14.8739 21.8912 14.8739C22.224 14.8739 22.5811 14.9064 22.9085 14.8279C23.5578 14.671 23.988 14.0595 23.9988 13.4102C24.0015 13.2235 23.9988 13.0368 23.9988 12.8502C23.9988 12.2035 23.9988 11.5542 23.9988 10.9076C23.9988 10.6749 24.0069 10.445 23.9528 10.215C23.7932 9.55215 23.1655 9.12738 22.5054 9.12468C22.3593 9.12468 22.2132 9.12468 22.0671 9.12468C21.9994 9.12468 21.9318 9.12468 21.8641 9.12468C21.8506 9.12468 21.8371 9.12468 21.8236 9.12468C21.81 9.12468 21.7992 9.12468 21.783 9.12468C21.764 9.12468 21.7451 9.12197 21.7262 9.12197C21.6721 9.11656 21.7018 9.12197 21.8127 9.1355C21.764 9.11385 21.6856 9.10303 21.6342 9.0895C21.5314 9.05974 21.6856 9.10574 21.6937 9.11656C21.6748 9.09492 21.6207 9.07868 21.5963 9.06516C21.5747 9.05163 21.5557 9.0381 21.5341 9.02457C21.4259 8.95423 21.6315 9.11385 21.5692 9.05163C21.5476 9.02998 21.5233 9.01105 21.5043 8.9894C21.4637 8.94611 21.4232 8.85683 21.5151 9.01375C21.4854 8.95964 21.4502 8.90824 21.4177 8.85413C21.3745 8.77837 21.4583 8.85954 21.4394 8.91094C21.4475 8.8893 21.4096 8.82436 21.4015 8.80272C21.3447 8.63498 21.2798 8.46724 21.2121 8.3049C21.1391 8.12634 21.0633 7.94778 20.9822 7.77192C20.947 7.69617 20.9118 7.62041 20.8739 7.54466C20.8171 7.43644 20.8983 7.58524 20.8929 7.59065C20.901 7.57712 20.8577 7.47431 20.8523 7.45267C20.8361 7.38233 20.8658 7.34174 20.855 7.49325C20.8577 7.4689 20.8523 7.43914 20.8496 7.41209C20.8496 7.37962 20.8523 7.34445 20.8523 7.31198C20.8523 7.22 20.8144 7.48784 20.8469 7.35257C20.8604 7.29846 20.9064 7.21188 20.9037 7.16047C20.9037 7.17941 20.8279 7.30387 20.8848 7.21188C20.9064 7.17941 20.928 7.14154 20.947 7.10907C21.02 6.98732 20.8415 7.21729 20.9443 7.11719C20.9551 7.10636 20.9632 7.09554 20.974 7.08742C20.9849 7.0766 20.993 7.06849 21.0038 7.05766C21.0525 7.00897 21.0985 6.96297 21.1472 6.91427C21.2527 6.80876 21.3609 6.70324 21.4664 6.59502C21.9453 6.10803 22.0698 5.32614 21.6694 4.74716C21.5422 4.56318 21.3772 4.41167 21.2202 4.25475C20.7603 3.79482 20.3004 3.33488 19.8404 2.87494C19.7187 2.75319 19.5996 2.63145 19.4779 2.5124C18.9178 1.97401 18.071 1.95507 17.4812 2.45559C17.281 2.62604 17.1052 2.82895 16.9185 3.01292C16.9049 3.02645 16.8914 3.03998 16.8779 3.05351C16.7778 3.15632 17.0078 2.97775 16.886 3.0508C16.8617 3.06433 16.84 3.08056 16.8184 3.09409C16.7913 3.11032 16.6858 3.14008 16.7913 3.11303C16.9049 3.08597 16.7805 3.11573 16.7588 3.12114C16.7345 3.12926 16.7074 3.13738 16.6831 3.14279C16.656 3.1482 16.6317 3.15361 16.6046 3.15902C16.6371 3.15361 16.6723 3.1482 16.7047 3.14549C16.6723 3.13197 16.5478 3.14279 16.5045 3.14549C16.656 3.13467 16.6155 3.16443 16.5451 3.1482C16.5126 3.14008 16.4802 3.12926 16.4477 3.12114C16.3287 3.09409 16.4991 3.13197 16.4937 3.14549C16.4937 3.14279 16.399 3.0995 16.3882 3.09409C16.3043 3.05351 16.2204 3.01563 16.1366 2.97505C15.9526 2.89118 15.7659 2.81272 15.5792 2.73967C15.5089 2.71261 15.4386 2.68556 15.3655 2.6585C15.3168 2.64227 15.2708 2.62333 15.2221 2.6071C15.1924 2.59627 15.1139 2.55299 15.0895 2.5611C15.141 2.54216 15.2221 2.62874 15.1464 2.58275C15.1139 2.56381 15.0814 2.54758 15.049 2.52864C15.0273 2.51511 15.0084 2.49888 14.9867 2.48805C15.1274 2.56922 15.0733 2.5611 15.0381 2.52323C15.0138 2.49617 14.9867 2.47182 14.9597 2.44477C14.9191 2.40689 14.9299 2.36631 14.9949 2.49617C14.9732 2.45018 14.9164 2.33925 14.8812 2.30678C14.8893 2.3149 14.938 2.46912 14.9083 2.36631C14.9002 2.33655 14.8893 2.30678 14.8812 2.27702C14.8731 2.24997 14.8731 2.20939 14.8623 2.18504C14.8677 2.19586 14.8731 2.3609 14.8731 2.25267C14.8731 2.20127 14.8704 2.14716 14.8704 2.09575C14.8704 1.93884 14.8704 1.77921 14.8704 1.62229C14.8704 1.4302 14.8704 1.23811 14.8163 1.05143C14.7108 0.694299 14.4673 0.372343 14.1426 0.188368C13.8504 0.0233321 13.5393 -0.00372314 13.2146 -0.00372314C12.5842 -0.00372314 11.9512 -0.00372314 11.3208 -0.00372314C11.0908 -0.00372314 10.8608 -0.00372314 10.6309 -0.00372314C10.0979 -0.00372314 9.60277 0.245184 9.3268 0.710532C9.09684 1.09742 9.1266 1.52489 9.1266 1.95507C9.1266 2.01729 9.1266 2.07952 9.1266 2.13904C9.1266 2.14986 9.1266 2.16339 9.1266 2.17421C9.1266 2.19315 9.1266 2.21209 9.12389 2.23374C9.11577 2.39877 9.16177 2.09846 9.1266 2.22291C9.11036 2.27702 9.09684 2.32843 9.0806 2.38254C9.05355 2.46641 9.16177 2.22562 9.09684 2.33925C9.08601 2.36089 9.07519 2.38254 9.06166 2.40418C9.04273 2.43394 9.01296 2.4637 8.99944 2.49617C9.00485 2.48535 9.11036 2.36901 9.03461 2.44477C9.01838 2.461 9.00214 2.47994 8.9832 2.49617C8.96427 2.5124 8.94803 2.52864 8.92909 2.54487C9.01297 2.48264 9.03461 2.46641 8.99403 2.49617C8.94533 2.52593 8.89933 2.55299 8.85063 2.58275C8.73159 2.65038 9.00485 2.53405 8.87228 2.57192C8.83981 2.58004 8.80735 2.59357 8.77488 2.60439C8.61525 2.66121 8.45563 2.72073 8.30141 2.78566C8.10662 2.86683 7.91453 2.94799 7.72514 3.03727C7.6575 3.06974 7.58986 3.0995 7.52493 3.13467C7.44377 3.17796 7.68726 3.08327 7.55199 3.12114C7.5114 3.13197 7.47353 3.14279 7.43294 3.1509C7.29767 3.18337 7.56552 3.14549 7.47353 3.14549C7.44106 3.14549 7.40589 3.1482 7.37342 3.1482C7.34907 3.1482 7.31931 3.14279 7.29496 3.14279C7.44377 3.13197 7.4086 3.16173 7.33825 3.14549C7.28685 3.13467 7.21921 3.09409 7.16781 3.09409C7.19757 3.10491 7.22733 3.11844 7.25709 3.12926C7.23274 3.11844 7.20839 3.10491 7.18674 3.09138C7.15969 3.07515 7.11369 3.02916 7.08393 3.02375C7.15428 3.03186 7.18404 3.11032 7.12452 3.0508C7.1164 3.04268 7.10287 3.02916 7.09205 3.01833C7.08393 3.01022 7.07311 2.9994 7.065 2.99128C7.01088 2.93717 6.95677 2.88306 6.90266 2.82895C6.59424 2.52052 6.29934 2.19315 5.84481 2.11469C5.31453 2.02271 4.83836 2.19586 4.46229 2.57192C4.04294 2.99128 3.62088 3.41334 3.20152 3.83269C3.01214 4.02208 2.82005 4.21417 2.63066 4.40356C2.59278 4.44143 2.55491 4.47931 2.51703 4.51719C2.26271 4.78233 2.12202 5.10699 2.09226 5.47223C2.0598 5.86724 2.22483 6.25413 2.48727 6.54362C2.56302 6.62749 2.64689 6.70324 2.72535 6.7817C2.82275 6.8791 2.92286 6.97921 3.02025 7.0766C3.03378 7.09013 3.07436 7.14695 3.08519 7.14424C3.05001 7.14965 3.00402 7.02249 3.05543 7.10366C3.07707 7.13883 3.09601 7.174 3.11765 7.20647C3.15553 7.26599 3.10412 7.26058 3.09871 7.15506C3.09871 7.18212 3.12306 7.2227 3.13118 7.24976C3.1393 7.28222 3.14741 7.31469 3.15553 7.34715C3.188 7.47161 3.15012 7.18753 3.15012 7.32551C3.15012 7.35257 3.15282 7.37962 3.15012 7.40668C3.15012 7.4202 3.15012 7.43373 3.14741 7.44726C3.142 7.52031 3.14471 7.50137 3.15823 7.38774C3.13389 7.42832 3.12577 7.5176 3.11224 7.5636C3.0906 7.65288 3.1907 7.40938 3.12577 7.53654C3.10954 7.5663 3.09601 7.59606 3.08248 7.62582C3.03919 7.71781 2.9959 7.80709 2.95532 7.89908C2.87686 8.07494 2.80111 8.2535 2.73076 8.43477C2.701 8.51323 2.67124 8.59169 2.64148 8.67286C2.63066 8.70532 2.61984 8.73779 2.60631 8.76755C2.59819 8.7919 2.52514 8.97046 2.57926 8.85413C2.63066 8.7459 2.54679 8.91094 2.52785 8.9407C2.51703 8.95693 2.44669 9.06245 2.51703 8.96235C2.58467 8.86495 2.51432 8.95964 2.49809 8.97858C2.48186 8.99481 2.46292 9.01105 2.44669 9.02998C2.3547 9.12738 2.58196 8.94611 2.46833 9.01646C2.41963 9.04622 2.34929 9.07057 2.3087 9.10844C2.34117 9.09492 2.37093 9.08139 2.4034 9.07057C2.38175 9.07868 2.3574 9.0868 2.33305 9.09492C2.3087 9.10303 2.28435 9.10844 2.26271 9.11385C2.24377 9.11927 2.2086 9.11926 2.18966 9.13009C2.22483 9.12468 2.26 9.12197 2.29518 9.11656C2.27083 9.11926 2.24377 9.12197 2.21942 9.12197C2.17613 9.12468 2.13285 9.12197 2.09226 9.12197C1.75137 9.12197 1.36989 9.08409 1.03982 9.18149C0.417551 9.36817 0.0117239 9.94715 0.00360735 10.5884C-0.00450919 11.1186 0.00360735 11.6516 0.00360735 12.1846C0.00360735 12.4957 0.00360735 12.8042 0.00360735 13.1153C0.00360735 13.3507 -0.0072147 13.5888 0.0577176 13.816C0.247103 14.4681 0.845022 14.8712 1.51058 14.8712C1.66479 14.8712 1.81901 14.8712 1.97322 14.8712C2.03274 14.8712 2.09226 14.8712 2.15178 14.8712C2.16261 14.8712 2.17072 14.8712 2.18155 14.8712C2.20589 14.8712 2.23295 14.8739 2.2573 14.8739C2.38987 14.8793 2.10579 14.8387 2.22754 14.8712C2.28706 14.8874 2.34658 14.9064 2.4061 14.9253C2.24107 14.8793 2.3087 14.882 2.36011 14.9118C2.38716 14.9253 2.41422 14.9415 2.43857 14.9578C2.45751 14.9686 2.47915 14.9902 2.49809 14.9983C2.36823 14.9361 2.40881 14.928 2.46021 14.974C2.48186 14.9956 2.5035 15.0173 2.52514 15.0389C2.61713 15.1282 2.44398 14.9091 2.51162 15.0173C2.54138 15.066 2.56843 15.139 2.6036 15.1796C2.53056 15.0903 2.55761 15.0606 2.57655 15.1255C2.59008 15.1742 2.60902 15.2229 2.62525 15.2689C2.68206 15.4285 2.74429 15.5854 2.80922 15.7424C2.88227 15.9209 2.95803 16.0995 3.0419 16.2726C3.07436 16.343 3.10412 16.4241 3.14741 16.4918C3.06625 16.3646 3.11224 16.4025 3.12847 16.4647C3.1393 16.4999 3.1393 16.573 3.16094 16.6027C3.15012 16.5892 3.15282 16.4323 3.15012 16.5432C3.15012 16.5757 3.15282 16.6108 3.15012 16.6433C3.14741 16.7326 3.10683 16.7055 3.16094 16.6027C3.15282 16.6217 3.15012 16.6649 3.14471 16.6812C3.13659 16.7136 3.12847 16.7461 3.11765 16.7759C3.0933 16.8516 3.05272 16.8435 3.13389 16.7434C3.12036 16.7623 3.10954 16.7921 3.09601 16.8137C3.08248 16.8381 3.06895 16.8597 3.05272 16.8814C3.02025 16.9274 3.02025 16.9247 3.05543 16.8787C3.0906 16.7921 3.05543 16.8733 3.02566 16.903L3.02296 16.9057C3.01214 16.9193 2.99861 16.9301 2.98779 16.9409C2.93638 16.9923 2.88768 17.041 2.83628 17.0924C2.73347 17.1952 2.63066 17.298 2.52785 17.4008C1.98134 17.9582 1.95969 18.7942 2.44939 19.3948C2.5522 19.522 2.67936 19.6329 2.79299 19.7492C3.02025 19.9765 3.24481 20.201 3.47207 20.4283C3.82379 20.78 4.16739 21.1372 4.52452 21.4808C5.09538 22.0273 5.96385 22.0354 6.55095 21.5105C6.74033 21.3401 6.90808 21.148 7.08935 20.9721L7.09205 20.9694C7.12181 20.9396 7.20298 20.9072 7.1164 20.9396C7.019 20.9775 7.12452 20.9369 7.14616 20.9207C7.1678 20.9072 7.19486 20.8937 7.2165 20.8801C7.33284 20.8044 7.0677 20.9234 7.20298 20.8828C7.22733 20.8747 7.25438 20.8666 7.27873 20.8585C7.30579 20.8504 7.33014 20.8477 7.35719 20.8395C7.48435 20.8044 7.18945 20.8477 7.35449 20.8423C7.38695 20.8423 7.42212 20.845 7.45459 20.8423C7.56552 20.8395 7.4086 20.8423 7.39507 20.8314C7.42483 20.8531 7.54928 20.8774 7.59257 20.8828C7.48705 20.872 7.48435 20.8314 7.54658 20.8639C7.58987 20.8882 7.63586 20.9072 7.68185 20.9288C7.75761 20.964 7.83336 20.9992 7.91182 21.0343C8.10391 21.1209 8.29871 21.2021 8.49351 21.2778C8.56385 21.3049 8.6369 21.3319 8.70724 21.3563C8.74782 21.3698 8.78841 21.3834 8.82628 21.3996C8.84793 21.4077 8.86957 21.4131 8.89122 21.4212C8.93992 21.4402 8.91557 21.4293 8.81817 21.3888C8.86146 21.4239 8.9318 21.451 8.9805 21.4808C9.07249 21.5349 8.93721 21.4537 8.9318 21.4429C8.94262 21.4645 8.9805 21.4862 8.99944 21.5051C9.01838 21.524 9.04002 21.5592 9.06166 21.5727C8.9832 21.5267 8.9832 21.4618 9.02379 21.524C9.04273 21.5565 9.06437 21.5863 9.0806 21.616C9.11036 21.6674 9.1266 21.7675 9.07519 21.5863C9.09142 21.6404 9.11036 21.6918 9.12389 21.7459C9.13742 21.8081 9.12118 21.8676 9.12118 21.6945C9.12118 21.7188 9.1266 21.7459 9.1266 21.7702C9.1293 21.8189 9.1266 21.8676 9.1266 21.9163C9.1266 22.0733 9.1266 22.2275 9.1266 22.3844C9.1266 22.5792 9.13201 22.7794 9.19153 22.9661C9.30516 23.3151 9.55407 23.6425 9.88685 23.8102C10.1845 23.9617 10.4848 23.9861 10.8067 23.9861C11.0962 23.9861 11.3884 23.9861 11.6779 23.9861C12.2433 23.9861 12.8088 23.9888 13.3743 23.9861C13.9099 23.9834 14.4483 23.7182 14.6972 23.2258C14.8975 22.8335 14.8731 22.4277 14.8731 22.0029C14.8731 21.9434 14.8731 21.8839 14.8731 21.8271C14.8731 21.8135 14.8731 21.8027 14.8731 21.7892C14.8731 21.7621 14.8839 21.7215 14.8785 21.6945C14.8731 21.7297 14.8704 21.7648 14.865 21.8C14.8704 21.7757 14.8731 21.7513 14.8812 21.727C14.8866 21.7026 14.8947 21.6783 14.9002 21.6566C14.9029 21.6458 14.9083 21.6323 14.911 21.6214C14.9353 21.5565 14.9272 21.5754 14.8839 21.681C14.9191 21.6431 14.938 21.5809 14.9651 21.5376C15.0165 21.4591 15.0192 21.5267 14.9353 21.5727C14.9489 21.5646 14.9759 21.5295 14.984 21.5186C15.0057 21.497 15.03 21.478 15.0517 21.4564C15.0895 21.4239 15.0679 21.4402 14.9867 21.5051C15.0057 21.4916 15.0273 21.4753 15.049 21.4645C15.0787 21.4456 15.2438 21.3617 15.1355 21.4131C15.0192 21.4672 15.1599 21.4077 15.1734 21.4023C15.2059 21.3915 15.2383 21.3806 15.2708 21.3698C15.4386 21.3103 15.6036 21.2454 15.7686 21.1777C15.9553 21.0993 16.1393 21.0208 16.3206 20.9342C16.3503 20.9207 16.3801 20.9045 16.4125 20.8909C16.4288 20.8828 16.4423 20.8774 16.4585 20.8693C16.5235 20.8395 16.5072 20.845 16.4125 20.8882C16.4288 20.8964 16.5884 20.8477 16.61 20.8368C16.5776 20.8423 16.5424 20.845 16.5099 20.8504C16.537 20.8477 16.5641 20.8477 16.5911 20.845C16.6182 20.845 16.6452 20.845 16.6723 20.845C16.7832 20.845 16.6236 20.8423 16.61 20.8341C16.6371 20.8504 16.6966 20.8504 16.7264 20.8585C16.7534 20.8666 16.7778 20.8747 16.8021 20.8828C16.932 20.9234 16.6912 20.8233 16.7697 20.8693C16.7994 20.8882 16.8292 20.9018 16.8589 20.918C16.8752 20.9288 16.8941 20.9396 16.9104 20.9532C16.9509 20.9829 16.932 20.9694 16.8535 20.9099C16.9158 21.0073 17.0429 21.0966 17.1241 21.1777C17.2215 21.2751 17.3189 21.3752 17.4163 21.4699C17.676 21.7242 17.9844 21.8568 18.3416 21.8974C18.8096 21.9488 19.2317 21.7297 19.5509 21.4077C19.7295 21.2291 19.9054 21.0533 20.0839 20.8747C20.5195 20.4391 20.9524 20.0062 21.388 19.5707C21.4204 19.5382 21.4556 19.503 21.4881 19.4706C21.7505 19.1973 21.8939 18.8591 21.9128 18.4803C21.9318 18.0853 21.7586 17.6984 21.4881 17.4171C21.4096 17.3359 21.3285 17.2574 21.25 17.179C21.1607 17.0897 21.0687 17.0004 20.9794 16.9084C20.974 16.903 20.9253 16.8408 20.9172 16.8408C20.9362 16.8651 20.9524 16.8895 20.9713 16.9138C20.9551 16.8922 20.9389 16.8706 20.9253 16.8462C20.9118 16.8246 20.8983 16.8002 20.8848 16.7759C20.8144 16.6568 20.9226 16.8949 20.8956 16.8083C20.8848 16.7759 20.8739 16.7461 20.8658 16.7136C20.8577 16.6866 20.8523 16.6622 20.8469 16.6352C20.8144 16.4999 20.8523 16.7705 20.8523 16.6758C20.8523 16.6298 20.8685 16.5378 20.855 16.4972C20.8496 16.5297 20.8469 16.5648 20.8415 16.5973C20.8469 16.5702 20.8523 16.5432 20.8577 16.5188C20.8631 16.4918 20.8739 16.4674 20.8793 16.4404C20.9172 16.3051 20.8225 16.5486 20.8658 16.4674C20.8848 16.4323 20.901 16.3944 20.9199 16.3592C20.9524 16.2916 20.9849 16.2239 21.0173 16.1536C21.1715 15.8154 21.3095 15.4718 21.4286 15.1201C21.5422 14.7846 21.2987 14.3653 20.9551 14.2868C20.5763 14.2137 20.2408 14.414 20.1191 14.7711Z" fill="black"/>
<path d="M15.9175 12.0033C15.9175 12.117 15.9121 12.2306 15.904 12.3442C15.8986 12.4065 15.8932 12.4687 15.8877 12.5309C15.885 12.5553 15.8823 12.5796 15.8796 12.604C15.8986 12.3902 15.8904 12.5201 15.8823 12.5715C15.8445 12.7988 15.7903 13.026 15.72 13.2452C15.6875 13.348 15.6469 13.4481 15.6091 13.5509C15.5631 13.6726 15.6686 13.4237 15.628 13.5049C15.6145 13.5319 15.6037 13.559 15.5901 13.5861C15.5658 13.6402 15.5387 13.6943 15.5117 13.7457C15.4089 13.9459 15.2925 14.138 15.1627 14.322C15.1437 14.3463 15.0328 14.4951 15.1113 14.395C15.1897 14.2949 15.0734 14.441 15.0544 14.4653C14.9787 14.5546 14.9002 14.6439 14.8191 14.7278C14.746 14.8035 14.6703 14.8766 14.5891 14.9469C14.5485 14.9821 14.5106 15.0173 14.4701 15.0524C14.4268 15.0876 14.2401 15.2121 14.4268 15.0903C14.2374 15.2148 14.0615 15.3473 13.8613 15.4556C13.7666 15.507 13.6719 15.5557 13.5745 15.599C13.5529 15.6098 13.5312 15.6179 13.5096 15.6287C13.4122 15.6747 13.5664 15.6044 13.5718 15.6017C13.5042 15.6233 13.4393 15.6558 13.3716 15.6801C13.1606 15.7559 12.9441 15.8154 12.725 15.8614C12.6709 15.8722 12.6168 15.883 12.5627 15.8912C12.541 15.8939 12.4166 15.9101 12.5437 15.8966C12.6709 15.8803 12.5464 15.8966 12.5221 15.8993C12.403 15.9128 12.2867 15.9209 12.1677 15.9263C11.9296 15.9344 11.6888 15.9263 11.4534 15.8966C11.3993 15.8912 11.3154 15.8614 11.5048 15.9047C11.4805 15.8993 11.4561 15.8966 11.4318 15.8939C11.3777 15.8857 11.3235 15.8749 11.2694 15.8641C11.1504 15.8397 11.0313 15.8127 10.915 15.7775C10.8095 15.7478 10.7067 15.7153 10.6066 15.6774C10.5552 15.6585 10.5065 15.6395 10.4551 15.6206C10.355 15.5827 10.5119 15.645 10.5173 15.6477C10.4848 15.6314 10.4524 15.6179 10.4199 15.6044C10.2143 15.5097 10.0168 15.4015 9.82739 15.277C9.73811 15.2202 9.65424 15.1525 9.56766 15.093C9.75434 15.2148 9.57848 15.1011 9.5379 15.066C9.49191 15.0281 9.44862 14.9902 9.40533 14.9496C9.23759 14.8008 9.08338 14.6385 8.93998 14.4653C8.90211 14.4221 8.79118 14.2489 8.91293 14.4356C8.88587 14.395 8.85611 14.3598 8.82906 14.322C8.76142 14.2246 8.69649 14.1272 8.63426 14.0243C8.58015 13.9324 8.52875 13.8404 8.48005 13.743C8.45299 13.6889 8.42594 13.6375 8.40159 13.5834C8.39076 13.5617 8.38265 13.5401 8.37183 13.5184C8.31501 13.394 8.43405 13.6753 8.38535 13.5482C8.30148 13.3344 8.22843 13.118 8.17703 12.8934C8.15268 12.7852 8.13103 12.677 8.1121 12.5688C8.10939 12.5444 8.10669 12.5201 8.10127 12.4957C8.14456 12.6851 8.1148 12.6012 8.10939 12.5471C8.10127 12.4795 8.09586 12.4119 8.09045 12.3415C8.07422 12.1034 8.07422 11.8626 8.09316 11.6246C8.09586 11.5759 8.10127 11.5245 8.10669 11.4758C8.10939 11.4541 8.12292 11.327 8.10939 11.4541C8.09586 11.5813 8.10939 11.4568 8.1148 11.4352C8.13374 11.3134 8.15809 11.1944 8.18785 11.0753C8.24196 10.8562 8.31772 10.6506 8.39618 10.4395C8.42864 10.3557 8.32313 10.6046 8.37724 10.4855C8.38806 10.4639 8.39618 10.4423 8.407 10.4206C8.43135 10.3665 8.4584 10.3124 8.48546 10.261C8.53686 10.1609 8.59097 10.0608 8.65049 9.96608C8.7046 9.87409 8.76412 9.78481 8.82635 9.69824C8.85611 9.65495 8.89128 9.61436 8.92104 9.56837C8.79659 9.75505 8.92104 9.56837 8.95892 9.52508C9.09961 9.35734 9.25112 9.20042 9.41345 9.05432C9.45674 9.01374 9.50273 8.97586 9.54602 8.93799C9.57037 8.91905 9.71376 8.80271 9.61636 8.88117C9.51626 8.95963 9.66506 8.846 9.68941 8.82977C9.73811 8.79459 9.78681 8.76213 9.83551 8.72966C10.0249 8.60521 10.2224 8.49699 10.428 8.40229C10.4551 8.38877 10.4821 8.37795 10.5092 8.36442C10.5903 8.32654 10.3414 8.43206 10.4632 8.38336C10.5092 8.36712 10.5525 8.34818 10.5985 8.33195C10.7121 8.29137 10.8257 8.25349 10.9421 8.22103C11.0476 8.19127 11.1531 8.16692 11.2613 8.14257C11.3208 8.12904 11.3804 8.11822 11.4426 8.1101C11.4669 8.10739 11.4913 8.10198 11.5156 8.09928C11.3019 8.13716 11.4345 8.1101 11.4832 8.10469C11.7213 8.07763 11.9593 8.06952 12.1974 8.07763C12.3111 8.08304 12.422 8.09116 12.5329 8.10469C12.5573 8.10739 12.5816 8.1101 12.606 8.11281C12.403 8.09387 12.5031 8.09928 12.5545 8.10739C12.6222 8.11822 12.6871 8.12904 12.7548 8.14257C12.9793 8.18856 13.2012 8.25079 13.4176 8.33195C13.469 8.35089 13.5177 8.37253 13.5691 8.39147C13.653 8.42394 13.4041 8.31842 13.5231 8.37253C13.5448 8.38336 13.5664 8.39147 13.5881 8.40229C13.6963 8.45099 13.8018 8.5051 13.9046 8.56463C13.9966 8.61603 14.0886 8.67285 14.1779 8.72966C14.2211 8.75942 14.2671 8.78918 14.3104 8.81894C14.3537 8.8487 14.5323 8.99751 14.3591 8.85141C14.5296 8.99751 14.7 9.13819 14.8569 9.30053C14.93 9.37628 15.0003 9.45744 15.068 9.53861C15.0977 9.57378 15.1275 9.61166 15.1573 9.64954C15.0084 9.47638 15.1573 9.65224 15.1897 9.69824C15.3196 9.88221 15.4359 10.077 15.536 10.2772C15.5604 10.3259 15.5847 10.3746 15.6064 10.4233C15.6172 10.445 15.6253 10.4666 15.6361 10.4882C15.6902 10.6073 15.5847 10.3584 15.6172 10.4423C15.6578 10.5559 15.7038 10.6668 15.7416 10.7804C15.8093 10.9942 15.8634 11.2133 15.8986 11.4379C15.9013 11.4595 15.9175 11.584 15.904 11.4568C15.8877 11.3297 15.904 11.4541 15.9067 11.4785C15.9121 11.5353 15.9175 11.5894 15.9229 11.6462C15.9148 11.7625 15.9175 11.8843 15.9175 12.0033C15.9202 12.3578 16.2286 12.6959 16.5939 12.6797C16.9591 12.6635 17.273 12.3821 17.2703 12.0033C17.2648 10.9319 16.9402 9.84704 16.3125 8.97316C15.6686 8.08034 14.8001 7.41478 13.7666 7.03331C11.7429 6.28658 9.32417 6.94402 7.95788 8.61333C7.24904 9.47909 6.82698 10.5072 6.73499 11.6273C6.64841 12.7014 6.92167 13.8187 7.48171 14.7386C8.0174 15.6179 8.82365 16.3592 9.76516 16.784C10.8122 17.2574 11.9539 17.3927 13.0848 17.1654C15.1545 16.7515 16.8698 14.9848 17.1945 12.8934C17.2405 12.5985 17.273 12.3036 17.273 12.0033C17.2757 11.6489 16.9618 11.3107 16.5966 11.327C16.2259 11.3432 15.9202 11.6246 15.9175 12.0033Z" fill="black"/>
</svg>
