<svg width="93" height="24" viewBox="0 0 93 24" fill="none" xmlns="http://www.w3.org/2000/svg">
<path d="M2.7024 18.6845L3.05161 18.3419L4.144 17.2632L17.7116 3.86295C18.1029 3.47621 18.3228 2.95185 18.3228 2.40511C18.3228 1.85837 18.1029 1.334 17.7116 0.947266L2.92178 15.5522C2.16859 14.1287 1.87746 12.5108 2.08795 10.9182C2.29843 9.32567 3.00032 7.83571 4.09825 6.65082C5.19617 5.46593 6.63689 4.64356 8.22463 4.29546C9.81236 3.94735 11.4701 4.0904 12.9727 4.70516L14.5083 3.19095C12.4195 2.13086 10.0186 1.83396 7.7296 2.35274C5.44064 2.87151 3.41104 4.17255 1.99943 6.02597C0.587822 7.87938 -0.114934 10.1659 0.0153395 12.4814C0.145613 14.797 1.10053 16.9925 2.71136 18.6801L2.7024 18.6845Z" fill="#333046"/>
<path d="M17.2903 5.31543L16.9411 5.65806L15.8509 6.7368L2.28112 20.137C1.88976 20.5237 1.66992 21.0481 1.66992 21.5949C1.66992 22.1416 1.88976 22.666 2.28112 23.0527L17.0709 8.44775C17.8224 9.8704 18.1126 11.4869 17.9022 13.0779C17.6917 14.669 16.9907 16.1576 15.8944 17.3419C14.798 18.5262 13.3593 19.3488 11.7734 19.6981C10.1875 20.0475 8.5311 19.9067 7.02899 19.2948L5.49562 20.8046C7.58429 21.8634 9.98464 22.1592 12.2728 21.64C14.5609 21.1207 16.5896 19.8197 18.0007 17.9667C19.4117 16.1136 20.1143 13.8279 19.9843 11.513C19.8543 9.1981 18.9001 7.00303 17.2903 5.31543Z" fill="#664AEA"/>
<path d="M31.8638 18.9089C30.7108 18.9089 29.7786 18.5935 29.0672 17.9628C28.3557 17.3321 28 16.4883 28 15.4314V9.05951C28 8.32651 28.2153 7.70432 28.6458 7.19293C29.0727 6.68154 29.6053 6.33209 30.2438 6.14458L33.9161 4.9377V1H36.1052V18.9089H31.8638ZM32.329 17.3747H33.9161V6.6304L31.4807 7.39749C31.0027 7.53386 30.6689 7.75035 30.4792 8.04696C30.2858 8.34697 30.1891 8.82086 30.1891 9.46862V15.4314C30.1891 16.0451 30.3807 16.5224 30.7637 16.8633C31.1505 17.2042 31.6722 17.3747 32.329 17.3747ZM43.3347 18.9089C42.3314 18.9089 41.5323 18.6276 40.9376 18.0651C40.3429 17.5026 40.0456 16.744 40.0456 15.7894V8.9828C40.0456 7.87479 40.3739 7.00542 41.0307 6.37471C41.691 5.74059 42.6688 5.42352 43.9641 5.42352C45.2593 5.42352 46.2316 5.74059 46.881 6.37471C47.5268 7.00542 47.8497 7.87479 47.8497 8.9828V10.159C47.8497 10.8749 47.6308 11.417 47.193 11.7852C46.7552 12.15 46.1805 12.4262 45.4691 12.6137L42.2401 13.4575V15.9684C42.2401 16.3775 42.3715 16.7133 42.6342 16.9758C42.9005 17.2417 43.2435 17.3747 43.6631 17.3747H46.6184V18.9089H43.3347ZM42.2401 11.8466L43.9093 11.4119C44.5113 11.2585 44.9163 11.1443 45.1243 11.0693C45.3359 10.9909 45.4782 10.8749 45.5512 10.7215C45.6241 10.5681 45.6606 10.3124 45.6606 9.95444V8.54812C45.6606 8.00263 45.5092 7.60205 45.2064 7.34635C44.9072 7.09066 44.4931 6.96281 43.9641 6.96281C43.4533 6.96281 43.0373 7.09918 42.7163 7.37192C42.3988 7.64466 42.2401 8.03673 42.2401 8.54812V11.8466ZM53.9847 18.9089C52.9814 18.9089 52.1823 18.6276 51.5876 18.0651C50.9929 17.5026 50.6956 16.744 50.6956 15.7894V8.9828C50.6956 7.87479 51.0239 7.00542 51.6807 6.37471C52.341 5.74059 53.3188 5.42352 54.6141 5.42352C55.9093 5.42352 56.8816 5.74059 57.531 6.37471C58.1768 7.00542 58.4997 7.87479 58.4997 8.9828V10.159C58.4997 10.8749 58.2808 11.417 57.843 11.7852C57.4052 12.15 56.8305 12.4262 56.1191 12.6137L52.8901 13.4575V15.9684C52.8901 16.3775 53.0215 16.7133 53.2842 16.9758C53.5505 17.2417 53.8935 17.3747 54.3131 17.3747H57.2684V18.9089H53.9847ZM52.8901 11.8466L54.5593 11.4119C55.1613 11.2585 55.5663 11.1443 55.7743 11.0693C55.9859 10.9909 56.1282 10.8749 56.2012 10.7215C56.2741 10.5681 56.3106 10.3124 56.3106 9.95444V8.54812C56.3106 8.00263 56.1592 7.60205 55.8564 7.34635C55.5572 7.09066 55.1431 6.96281 54.6141 6.96281C54.1033 6.96281 53.6873 7.09918 53.3663 7.37192C53.0489 7.64466 52.8901 8.03673 52.8901 8.54812V11.8466ZM61.7834 23V5.60251H66.2218C67.2251 5.60251 68.0789 5.91105 68.7831 6.52813C69.4836 7.14179 69.8338 7.90888 69.8338 8.82938V15.7127C69.8338 16.6332 69.4872 17.3952 68.794 17.9986C68.1008 18.6055 67.2525 18.9089 66.2492 18.9089H63.978V23H61.7834ZM63.978 17.4003H65.784C66.2948 17.4003 66.7326 17.2383 67.0974 16.9145C67.4623 16.5906 67.6447 16.19 67.6447 15.7127V8.82938C67.6447 8.35209 67.4623 7.9515 67.0974 7.62761C66.7326 7.30373 66.2948 7.14179 65.784 7.14179H63.978V17.4003ZM76.3793 18.9089C75.3759 18.9089 74.5769 18.6276 73.9822 18.0651C73.3911 17.5026 73.0956 16.744 73.0956 15.7894V8.9828C73.0956 7.87479 73.424 7.00542 74.0807 6.37471C74.7374 5.74059 75.7134 5.42352 77.0086 5.42352C78.3038 5.42352 79.2762 5.74059 79.9256 6.37471C80.5714 7.00542 80.8943 7.87479 80.8943 8.9828V10.159C80.8943 10.8749 80.6754 11.417 80.2376 11.7852C79.7997 12.15 79.2251 12.4262 78.5136 12.6137L75.2847 13.4575V15.9684C75.2847 16.3775 75.416 16.7133 75.6787 16.9758C75.9451 17.2417 76.288 17.3747 76.7076 17.3747H79.6629V18.9089H76.3793ZM75.2847 11.8466L76.9539 11.4119C77.5559 11.2585 77.9627 11.1443 78.1743 11.0693C78.3823 10.9909 78.5228 10.8749 78.5957 10.7215C78.6687 10.5681 78.7052 10.3124 78.7052 9.95444V8.54812C78.7052 8.00263 78.5556 7.60205 78.2564 7.34635C77.9536 7.09066 77.5377 6.96281 77.0086 6.96281C76.4978 6.96281 76.0819 7.09918 75.7608 7.37192C75.4434 7.64466 75.2847 8.03673 75.2847 8.54812V11.8466ZM84.1834 18.9089V5.60251H85.88L86.1263 6.34914L87.2482 6.04231C88.0144 5.81729 88.6218 5.65876 89.0706 5.56671C89.5157 5.47125 89.9389 5.42352 90.3403 5.42352C90.997 5.42352 91.4804 5.63831 91.7906 6.06788C92.1007 6.49403 92.2557 7.04804 92.2557 7.72989V18.9089H90.0666V8.3947C90.0666 7.90036 90.0302 7.55432 89.9572 7.35658C89.8842 7.16225 89.7018 7.06509 89.4099 7.06509C89.264 7.06509 88.2515 7.33783 86.3725 7.88331V18.9089H84.1834Z" fill="#333046"/>
</svg>
