<svg width="23" height="25" viewBox="0 0 23 25" fill="none" xmlns="http://www.w3.org/2000/svg">
<g clip-path="url(#clip0_5750_18574)">
<path d="M14.296 5.5C15.1913 5.69057 16.0142 6.16826 16.6592 6.87194C17.3042 7.57561 17.7421 8.47326 17.9168 9.45M14.296 1.5C16.1561 1.72544 17.8908 2.63417 19.215 4.07701C20.5393 5.51984 21.3745 7.41101 21.5835 9.44M20.6668 17.42V20.42C20.6678 20.6985 20.6156 20.9742 20.5133 21.2293C20.411 21.4845 20.261 21.7136 20.0729 21.9019C19.8848 22.0901 19.6627 22.2335 19.4208 22.3227C19.179 22.4119 18.9227 22.4451 18.6685 22.42C15.8477 22.0856 13.1382 21.0341 10.7576 19.35C8.54282 17.8147 6.66503 15.7662 5.25764 13.35C3.70846 10.7412 2.74436 7.77099 2.44348 4.68C2.42057 4.40347 2.45069 4.12476 2.53193 3.86162C2.61317 3.59849 2.74375 3.35669 2.91534 3.15162C3.08694 2.94655 3.2958 2.78271 3.52862 2.67052C3.76144 2.55833 4.01312 2.50026 4.26764 2.5H7.01764C7.46251 2.49522 7.89379 2.66708 8.23109 2.98353C8.5684 3.29999 8.78871 3.73945 8.85098 4.22C8.96705 5.18007 9.18231 6.12273 9.49264 7.03C9.61597 7.38792 9.64267 7.77691 9.56956 8.15088C9.49645 8.52485 9.3266 8.86811 9.08014 9.14L7.91598 10.41C9.2209 12.9135 11.1211 14.9864 13.416 16.41L14.5801 15.14C14.8294 14.8711 15.144 14.6858 15.4868 14.6061C15.8296 14.5263 16.1862 14.5555 16.5143 14.69C17.346 15.0286 18.2101 15.2634 19.0901 15.39C19.5354 15.4585 19.9421 15.7032 20.2328 16.0775C20.5235 16.4518 20.678 16.9296 20.6668 17.42Z" stroke="#333046" stroke-width="2" stroke-linecap="round" stroke-linejoin="round"/>
</g>
<defs>
<clipPath id="clip0_5750_18574">
<rect width="22" height="24" fill="white" transform="translate(0.5 0.5)"/>
</clipPath>
</defs>
</svg>
