<svg width="27" height="23" viewBox="0 0 27 23" fill="none" xmlns="http://www.w3.org/2000/svg">
<path d="M11.9694 0.5625C10.8932 0.5625 10.0146 1.44035 10.0146 2.51562V7.59375H19.1373C20.3954 7.59375 21.4243 8.63263 21.4243 9.88638V16.2386C21.4243 17.4924 20.3954 18.5312 19.1373 18.5312H10.0146V20.4844C10.0146 21.5596 10.8932 22.4375 11.9694 22.4375H24.4801C25.5563 22.4375 26.4349 21.5596 26.4349 20.4844V6.8125H21.7434C20.8838 6.8125 20.1795 6.10887 20.1795 5.25V0.5625H11.9694ZM20.9615 0.746368V5.25C20.9615 5.68957 21.3034 6.03125 21.7434 6.03125H26.176C26.1361 5.97599 26.0949 5.92158 26.047 5.87256L21.2409 0.956177C21.1577 0.871079 21.0618 0.804462 20.9615 0.746368Z" fill="#664AEA"/>
<path fill-rule="evenodd" clip-rule="evenodd" d="M3 8.5238C1.34315 8.5238 0 9.86695 0 11.5238V14.4524C0 16.1092 1.34315 17.4524 3 17.4524H17.2553C18.9122 17.4524 20.2553 16.1092 20.2553 14.4524V11.5238C20.2553 9.86695 18.9122 8.5238 17.2553 8.5238H3ZM5.06848 12.7682C5.28448 12.9962 5.63248 13.1902 6.11248 13.3502C6.34048 13.4302 6.50248 13.5222 6.59848 13.6262C6.69448 13.7262 6.74248 13.8542 6.74248 14.0102C6.74248 14.3942 6.48848 14.5862 5.98048 14.5862C5.68848 14.5862 5.41048 14.5202 5.14648 14.3882C5.07848 14.3562 5.01248 14.3582 4.94848 14.3942C4.88448 14.4262 4.85248 14.4802 4.85248 14.5562V14.6282C4.85248 14.7362 4.87848 14.8342 4.93048 14.9222C4.98648 15.0102 5.06248 15.0722 5.15848 15.1082C5.42248 15.2082 5.71648 15.2582 6.04048 15.2582C7.07648 15.2582 7.59448 14.8382 7.59448 13.9982C7.59448 13.6502 7.48848 13.3662 7.27648 13.1462C7.06848 12.9262 6.69448 12.7302 6.15448 12.5582C5.77848 12.4342 5.59048 12.2282 5.59048 11.9402C5.59048 11.7762 5.64248 11.6482 5.74648 11.5562C5.85048 11.4642 6.00248 11.4182 6.20248 11.4182C6.51448 11.4182 6.82048 11.4762 7.12048 11.5922C7.19248 11.6202 7.26248 11.6142 7.33048 11.5742C7.39848 11.5302 7.43248 11.4702 7.43248 11.3942V11.3402C7.43248 11.2362 7.40248 11.1422 7.34248 11.0582C7.28648 10.9702 7.21048 10.9122 7.11448 10.8842C6.83848 10.8002 6.51448 10.7582 6.14248 10.7582C5.70248 10.7582 5.36048 10.8642 5.11648 11.0762C4.87248 11.2882 4.75048 11.5762 4.75048 11.9402C4.75048 12.2642 4.85648 12.5402 5.06848 12.7682ZM8.05807 11.1422L9.30007 14.8742C9.33607 14.9702 9.39407 15.0482 9.47407 15.1082C9.55807 15.1682 9.65007 15.1982 9.75007 15.1982H9.96607C10.0701 15.1982 10.1621 15.1682 10.2421 15.1082C10.3261 15.0482 10.3841 14.9702 10.4161 14.8742L11.6581 11.1422C11.6861 11.0622 11.6761 10.9882 11.6281 10.9202C11.5801 10.8522 11.5141 10.8182 11.4301 10.8182H11.2381C11.1381 10.8182 11.0461 10.8482 10.9621 10.9082C10.8821 10.9682 10.8281 11.0462 10.8001 11.1422L9.87007 14.3702C9.87007 14.3742 9.86807 14.3762 9.86407 14.3762C9.86007 14.3762 9.85807 14.3742 9.85807 14.3702L8.94007 11.1482C8.91607 11.0522 8.86207 10.9742 8.77807 10.9142C8.69407 10.8502 8.60207 10.8182 8.50207 10.8182H8.28607C8.20207 10.8182 8.13607 10.8522 8.08807 10.9202C8.04007 10.9882 8.03007 11.0622 8.05807 11.1422ZM12.3964 14.6582C12.7964 15.0582 13.3184 15.2582 13.9624 15.2582C14.3544 15.2582 14.7204 15.2082 15.0604 15.1082C15.1564 15.0802 15.2344 15.0242 15.2944 14.9402C15.3544 14.8562 15.3844 14.7622 15.3844 14.6582V12.9122C15.3844 12.8202 15.3504 12.7402 15.2824 12.6722C15.2144 12.6042 15.1344 12.5702 15.0424 12.5702H13.7824C13.6944 12.5702 13.6184 12.6022 13.5544 12.6662C13.4944 12.7262 13.4644 12.8022 13.4644 12.8942C13.4644 12.9822 13.4944 13.0582 13.5544 13.1222C13.6184 13.1822 13.6944 13.2122 13.7824 13.2122H14.5324C14.5644 13.2122 14.5804 13.2302 14.5804 13.2662V14.4542C14.5804 14.4902 14.5644 14.5122 14.5324 14.5202C14.3644 14.5682 14.1944 14.5922 14.0224 14.5922C13.6024 14.5922 13.2684 14.4562 13.0204 14.1842C12.7764 13.9082 12.6544 13.5162 12.6544 13.0082C12.6544 12.4842 12.7784 12.0902 13.0264 11.8262C13.2784 11.5582 13.6464 11.4242 14.1304 11.4242C14.3624 11.4242 14.5964 11.4502 14.8324 11.5022C14.9164 11.5222 14.9924 11.5062 15.0604 11.4542C15.1284 11.4022 15.1624 11.3342 15.1624 11.2502V11.2262C15.1624 11.1262 15.1304 11.0382 15.0664 10.9622C15.0024 10.8822 14.9224 10.8342 14.8264 10.8182C14.5904 10.7782 14.3284 10.7582 14.0404 10.7582C13.3404 10.7582 12.7924 10.9582 12.3964 11.3582C12.0004 11.7542 11.8024 12.3042 11.8024 13.0082C11.8024 13.7042 12.0004 14.2542 12.3964 14.6582Z" fill="#664AEA"/>
</svg>
