<svg width="16" height="16" viewBox="0 0 16 16" fill="none" xmlns="http://www.w3.org/2000/svg">
<g id="Group">
<path id="Vector" d="M8 0C9.50981 0 10.9598 0.419699 12.2155 1.19961C12.5908 1.43272 12.7061 1.92595 12.473 2.30128C12.2399 2.67661 11.7467 2.79191 11.3713 2.5588C10.3672 1.93517 9.2093 1.6 8 1.6C4.46538 1.6 1.6 4.46538 1.6 8C1.6 11.5346 4.46538 14.4 8 14.4C11.5346 14.4 14.4 11.5346 14.4 8C14.4 7.50235 14.3434 7.0127 14.2323 6.53736C14.1318 6.10712 14.399 5.67685 14.8293 5.57632C15.2595 5.47579 15.6898 5.74307 15.7903 6.17331C15.9292 6.76778 16 7.37958 16 8C16 12.4183 12.4183 16 8 16C3.58172 16 0 12.4183 0 8C0 3.58172 3.58172 0 8 0ZM15.0456 1.79412C15.3545 2.06045 15.4101 2.51136 15.1899 2.84234L15.1291 2.92241L7.73732 11.4952L3.48271 7.88869C3.14567 7.603 3.10405 7.09818 3.38975 6.76115C3.65346 6.45004 4.10389 6.39064 4.43671 6.60805L4.51729 6.66819L7.5608 9.248L13.9173 1.87759C14.2059 1.54297 14.711 1.5056 15.0456 1.79412Z" fill="#252525"/>
</g>
</svg>
