<svg width="25" height="26" viewBox="0 0 25 26" fill="none" xmlns="http://www.w3.org/2000/svg">
<g id="noun-upload-file-4292040 1">
<g id="Group">
<path id="Vector" d="M6.15063 2.88037C5.05829 2.88037 4.1665 3.69253 4.1665 4.68734V21.3115C4.1665 22.3063 5.05829 23.1185 6.15063 23.1185H18.849C19.9414 23.1185 20.8332 22.3063 20.8332 21.3115V8.66268H16.0713C15.1988 8.66268 14.484 8.0117 14.484 7.21711V2.88037H6.15063ZM15.2776 3.05048V7.21711C15.2776 7.62378 15.6247 7.93989 16.0713 7.93989H20.5704C20.5299 7.88877 20.4881 7.83843 20.4394 7.79308L15.5613 3.24459C15.4768 3.16586 15.3795 3.10423 15.2776 3.05048ZM12.4999 10.8333C12.6104 10.8333 12.7069 10.8706 12.7789 10.9355L15.7155 13.586C15.8711 13.7265 15.8722 13.9553 15.7179 14.097C15.5636 14.2387 15.3124 14.2397 15.1568 14.0991L12.8967 12.0592V15.6012V19.1431C12.8967 19.3427 12.719 19.5045 12.4998 19.5045C12.2807 19.5045 12.103 19.3427 12.103 19.1431V12.0592L9.84297 14.0991C9.68736 14.2396 9.43615 14.2387 9.28183 14.097C9.12756 13.9553 9.12862 13.7265 9.28421 13.586L12.2209 10.9355C12.2928 10.8706 12.3893 10.8333 12.4999 10.8333Z" fill="#FDFDFD"/>
</g>
</g>
</svg>
