<svg width="16" height="16" viewBox="0 0 16 16" fill="none" xmlns="http://www.w3.org/2000/svg">
<g clip-path="url(#clip0_3563_15837)">
<rect width="16" height="16" rx="8" fill="#FDFDFD"/>
<g clip-path="url(#clip1_3563_15837)">
<path d="M-3 10.666H18.0527V15.9993H-3V10.666Z" fill="#1EB53A"/>
<path d="M-3 0H18.0527V5.33333H-3V0Z" fill="#0099B5"/>
<path d="M-3 5.11914H18.0527V10.8791H-3V5.11914Z" fill="#CE1126"/>
<path d="M-3 5.43945H18.0527V10.5595H-3V5.43945Z" fill="#FDFDFD"/>
<path d="M3.76322 4.50667C4.44631 4.50667 5.00006 3.94553 5.00006 3.25333C5.00006 2.56114 4.44631 2 3.76322 2C3.08012 2 2.52637 2.56114 2.52637 3.25333C2.52637 3.94553 3.08012 4.50667 3.76322 4.50667Z" fill="#FDFDFD"/>
<path d="M4.17532 4.50667C4.85842 4.50667 5.41217 3.94553 5.41217 3.25333C5.41217 2.56114 4.85842 2 4.17532 2C3.49223 2 2.93848 2.56114 2.93848 3.25333C2.93848 3.94553 3.49223 4.50667 4.17532 4.50667Z" fill="#0099B5"/>
<path d="M5.66779 3.62109L5.60449 3.81351L5.7011 3.84727" fill="#FDFDFD"/>
<path d="M5.66815 3.62109L5.73145 3.81351L5.63484 3.84727" fill="#FDFDFD"/>
<path d="M5.85727 3.75994L5.65706 3.75904L5.65491 3.86222" fill="#FDFDFD"/>
<path d="M5.85855 3.75959L5.6971 3.88014L5.6358 3.79796" fill="#FDFDFD"/>
<path d="M5.47738 3.76155L5.63884 3.88209L5.70014 3.79991" fill="#FDFDFD"/>
<path d="M5.47867 3.76189L5.67888 3.761L5.68103 3.86417" fill="#FDFDFD"/>
<path d="M5.78557 3.98704L5.72548 3.79371L5.62756 3.82416" fill="#FDFDFD"/>
<path d="M5.78572 3.98757L5.62294 3.86988L5.68176 3.78487" fill="#FDFDFD"/>
<path d="M5.55046 3.98779L5.71333 3.8696L5.65495 3.78488" fill="#FDFDFD"/>
<path d="M5.5511 3.98682L5.61176 3.79342L5.70935 3.82348" fill="#FDFDFD"/>
<path d="M5.66779 2.81055L5.60449 3.00296L5.7011 3.03672" fill="#FDFDFD"/>
<path d="M5.66815 2.81055L5.73145 3.00296L5.63484 3.03672" fill="#FDFDFD"/>
<path d="M5.85824 2.94939L5.65804 2.9485L5.65589 3.05167" fill="#FDFDFD"/>
<path d="M5.85758 2.94905L5.69612 3.06959L5.63482 2.98741" fill="#FDFDFD"/>
<path d="M5.47738 2.951L5.63884 3.07154L5.70014 2.98936" fill="#FDFDFD"/>
<path d="M5.47867 2.95134L5.67888 2.95045L5.68103 3.05362" fill="#FDFDFD"/>
<path d="M5.78655 3.1765L5.72646 2.98316L5.62854 3.01361" fill="#FDFDFD"/>
<path d="M5.7867 3.17702L5.62392 3.05933L5.68274 2.97432" fill="#FDFDFD"/>
<path d="M5.55144 3.17725L5.71431 3.05905L5.65592 2.97434" fill="#FDFDFD"/>
<path d="M5.55207 3.17627L5.61273 2.98287L5.71033 3.01293" fill="#FDFDFD"/>
<path d="M5.66779 2L5.60449 2.19242L5.7011 2.22618" fill="#FDFDFD"/>
<path d="M5.66815 2L5.73145 2.19242L5.63484 2.22618" fill="#FDFDFD"/>
<path d="M5.85727 2.13884L5.65706 2.13795L5.65491 2.24112" fill="#FDFDFD"/>
<path d="M5.85855 2.1385L5.6971 2.25904L5.6358 2.17686" fill="#FDFDFD"/>
<path d="M5.47738 2.14045L5.63884 2.261L5.70014 2.17881" fill="#FDFDFD"/>
<path d="M5.47867 2.1408L5.67888 2.1399L5.68103 2.24308" fill="#FDFDFD"/>
<path d="M5.78459 2.36595L5.72451 2.17261L5.62659 2.20306" fill="#FDFDFD"/>
<path d="M5.78474 2.36647L5.62196 2.24879L5.68078 2.16378" fill="#FDFDFD"/>
<path d="M5.54949 2.3667L5.71235 2.2485L5.65397 2.16379" fill="#FDFDFD"/>
<path d="M5.55012 2.36572L5.61078 2.17233L5.70838 2.20238" fill="#FDFDFD"/>
<path d="M6.46662 3.62109L6.40332 3.81351L6.49993 3.84727" fill="#FDFDFD"/>
<path d="M6.46698 3.62109L6.53027 3.81351L6.43366 3.84727" fill="#FDFDFD"/>
<path d="M6.65707 3.75994L6.45686 3.75904L6.45471 3.86222" fill="#FDFDFD"/>
<path d="M6.6564 3.75959L6.49495 3.88014L6.43365 3.79796" fill="#FDFDFD"/>
<path d="M6.27719 3.76155L6.43864 3.88209L6.49994 3.79991" fill="#FDFDFD"/>
<path d="M6.2775 3.76189L6.47771 3.761L6.47986 3.86417" fill="#FDFDFD"/>
<path d="M6.5844 3.98704L6.52431 3.79371L6.42639 3.82416" fill="#FDFDFD"/>
<path d="M6.58455 3.98757L6.42177 3.86988L6.48059 3.78487" fill="#FDFDFD"/>
<path d="M6.35027 3.98779L6.51313 3.8696L6.45475 3.78488" fill="#FDFDFD"/>
<path d="M6.3509 3.98682L6.41156 3.79342L6.50916 3.82348" fill="#FDFDFD"/>
<path d="M6.46662 2.81055L6.40332 3.00296L6.49993 3.03672" fill="#FDFDFD"/>
<path d="M6.46698 2.81055L6.53027 3.00296L6.43366 3.03672" fill="#FDFDFD"/>
<path d="M6.65707 2.94939L6.45686 2.9485L6.45471 3.05167" fill="#FDFDFD"/>
<path d="M6.6564 2.94905L6.49495 3.06959L6.43365 2.98741" fill="#FDFDFD"/>
<path d="M6.27719 2.951L6.43864 3.07154L6.49994 2.98936" fill="#FDFDFD"/>
<path d="M6.2775 2.95134L6.47771 2.95045L6.47986 3.05362" fill="#FDFDFD"/>
<path d="M6.58537 3.1765L6.52529 2.98316L6.42737 3.01361" fill="#FDFDFD"/>
<path d="M6.58552 3.17702L6.42275 3.05933L6.48156 2.97432" fill="#FDFDFD"/>
<path d="M6.35027 3.17725L6.51313 3.05905L6.45475 2.97434" fill="#FDFDFD"/>
<path d="M6.3509 3.17627L6.41156 2.98287L6.50916 3.01293" fill="#FDFDFD"/>
<path d="M6.46662 2L6.40332 2.19242L6.49993 2.22618" fill="#FDFDFD"/>
<path d="M6.46698 2L6.53027 2.19242L6.43366 2.22618" fill="#FDFDFD"/>
<path d="M6.65707 2.13884L6.45686 2.13795L6.45471 2.24112" fill="#FDFDFD"/>
<path d="M6.6564 2.1385L6.49495 2.25904L6.43365 2.17686" fill="#FDFDFD"/>
<path d="M6.27621 2.14045L6.43767 2.261L6.49897 2.17881" fill="#FDFDFD"/>
<path d="M6.27652 2.1408L6.47673 2.1399L6.47888 2.24308" fill="#FDFDFD"/>
<path d="M6.5844 2.36595L6.52431 2.17261L6.42639 2.20306" fill="#FDFDFD"/>
<path d="M6.58455 2.36647L6.42177 2.24879L6.48059 2.16378" fill="#FDFDFD"/>
<path d="M6.34929 2.3667L6.51216 2.2485L6.45378 2.16379" fill="#FDFDFD"/>
<path d="M6.34992 2.36572L6.41059 2.17233L6.50818 2.20238" fill="#FDFDFD"/>
<path d="M7.26642 3.62109L7.20312 3.81351L7.29973 3.84727" fill="#FDFDFD"/>
<path d="M7.26678 3.62109L7.33008 3.81351L7.23347 3.84727" fill="#FDFDFD"/>
<path d="M7.45688 3.75994L7.25667 3.75904L7.25452 3.86222" fill="#FDFDFD"/>
<path d="M7.45621 3.75959L7.29476 3.88014L7.23346 3.79796" fill="#FDFDFD"/>
<path d="M7.07699 3.76155L7.23845 3.88209L7.29975 3.79991" fill="#FDFDFD"/>
<path d="M7.0773 3.76189L7.27751 3.761L7.27966 3.86417" fill="#FDFDFD"/>
<path d="M7.3842 3.98704L7.32411 3.79371L7.2262 3.82416" fill="#FDFDFD"/>
<path d="M7.38435 3.98757L7.22157 3.86988L7.28039 3.78487" fill="#FDFDFD"/>
<path d="M7.14812 3.98779L7.31099 3.8696L7.2526 3.78488" fill="#FDFDFD"/>
<path d="M7.14875 3.98682L7.20941 3.79342L7.30701 3.82348" fill="#FDFDFD"/>
<path d="M7.2674 2.81055L7.2041 3.00296L7.30071 3.03672" fill="#FDFDFD"/>
<path d="M7.26776 2.81055L7.33105 3.00296L7.23445 3.03672" fill="#FDFDFD"/>
<path d="M7.45688 2.94939L7.25667 2.9485L7.25452 3.05167" fill="#FDFDFD"/>
<path d="M7.45816 2.94905L7.29671 3.06959L7.23541 2.98741" fill="#FDFDFD"/>
<path d="M7.07699 2.951L7.23845 3.07154L7.29975 2.98936" fill="#FDFDFD"/>
<path d="M7.0773 2.95134L7.27751 2.95045L7.27966 3.05362" fill="#FDFDFD"/>
<path d="M7.38518 3.1765L7.32509 2.98316L7.22717 3.01361" fill="#FDFDFD"/>
<path d="M7.38533 3.17702L7.22255 3.05933L7.28137 2.97432" fill="#FDFDFD"/>
<path d="M7.15007 3.17725L7.31294 3.05905L7.25456 2.97434" fill="#FDFDFD"/>
<path d="M7.1507 3.17627L7.21137 2.98287L7.30896 3.01293" fill="#FDFDFD"/>
<path d="M7.2674 2L7.2041 2.19242L7.30071 2.22618" fill="#FDFDFD"/>
<path d="M7.26776 2L7.33105 2.19242L7.23445 2.22618" fill="#FDFDFD"/>
<path d="M7.45688 2.13884L7.25667 2.13795L7.25452 2.24112" fill="#FDFDFD"/>
<path d="M7.45816 2.1385L7.29671 2.25904L7.23541 2.17686" fill="#FDFDFD"/>
<path d="M7.07699 2.14045L7.23845 2.261L7.29975 2.17881" fill="#FDFDFD"/>
<path d="M7.0773 2.1408L7.27751 2.1399L7.27966 2.24308" fill="#FDFDFD"/>
<path d="M7.3842 2.36595L7.32411 2.17261L7.2262 2.20306" fill="#FDFDFD"/>
<path d="M7.38435 2.36647L7.22157 2.24879L7.28039 2.16378" fill="#FDFDFD"/>
<path d="M7.1491 2.3667L7.31196 2.2485L7.25358 2.16379" fill="#FDFDFD"/>
<path d="M7.14875 2.36572L7.20941 2.17233L7.30701 2.20238" fill="#FDFDFD"/>
<path d="M4.06915 3.62109L4.00586 3.81351L4.10247 3.84727" fill="#FDFDFD"/>
<path d="M4.06952 3.62109L4.13281 3.81351L4.0362 3.84727" fill="#FDFDFD"/>
<path d="M4.25961 3.75994L4.0594 3.75904L4.05725 3.86222" fill="#FDFDFD"/>
<path d="M4.25894 3.75959L4.09749 3.88014L4.03619 3.79796" fill="#FDFDFD"/>
<path d="M3.87875 3.76155L4.04021 3.88209L4.1015 3.79991" fill="#FDFDFD"/>
<path d="M3.87906 3.76189L4.07927 3.761L4.08142 3.86417" fill="#FDFDFD"/>
<path d="M4.18889 3.98704L4.1288 3.79371L4.03089 3.82416" fill="#FDFDFD"/>
<path d="M4.18904 3.98757L4.02626 3.86988L4.08508 3.78487" fill="#FDFDFD"/>
<path d="M3.95379 3.98779L4.11665 3.8696L4.05827 3.78488" fill="#FDFDFD"/>
<path d="M3.95442 3.98682L4.01508 3.79342L4.11267 3.82348" fill="#FDFDFD"/>
<path d="M4.86896 3.62109L4.80566 3.81351L4.90227 3.84727" fill="#FDFDFD"/>
<path d="M4.86835 3.62109L4.93164 3.81351L4.83503 3.84727" fill="#FDFDFD"/>
<path d="M5.05942 3.75994L4.85921 3.75904L4.85706 3.86222" fill="#FDFDFD"/>
<path d="M5.05875 3.75959L4.89729 3.88014L4.836 3.79796" fill="#FDFDFD"/>
<path d="M4.67856 3.76155L4.84001 3.88209L4.90131 3.79991" fill="#FDFDFD"/>
<path d="M4.67887 3.76189L4.87907 3.761L4.88122 3.86417" fill="#FDFDFD"/>
<path d="M4.98577 3.98704L4.92568 3.79371L4.82776 3.82416" fill="#FDFDFD"/>
<path d="M4.98689 3.98757L4.82411 3.86988L4.88293 3.78487" fill="#FDFDFD"/>
<path d="M4.75164 3.98779L4.9145 3.8696L4.85612 3.78488" fill="#FDFDFD"/>
<path d="M4.75227 3.98682L4.81293 3.79342L4.91052 3.82348" fill="#FDFDFD"/>
<path d="M4.86896 2.81055L4.80566 3.00296L4.90227 3.03672" fill="#FDFDFD"/>
<path d="M4.86835 2.81055L4.93164 3.00296L4.83503 3.03672" fill="#FDFDFD"/>
<path d="M5.05844 2.94939L4.85823 2.9485L4.85608 3.05167" fill="#FDFDFD"/>
<path d="M5.05973 2.94905L4.89827 3.06959L4.83697 2.98741" fill="#FDFDFD"/>
<path d="M4.67856 2.951L4.84001 3.07154L4.90131 2.98936" fill="#FDFDFD"/>
<path d="M4.67887 2.95134L4.87907 2.95045L4.88122 3.05362" fill="#FDFDFD"/>
<path d="M4.98674 3.1765L4.92665 2.98316L4.82874 3.01361" fill="#FDFDFD"/>
<path d="M4.98689 3.17702L4.82411 3.05933L4.88293 2.97432" fill="#FDFDFD"/>
<path d="M4.75066 3.17725L4.91353 3.05905L4.85514 2.97434" fill="#FDFDFD"/>
<path d="M4.75129 3.17627L4.81195 2.98287L4.90955 3.01293" fill="#FDFDFD"/>
</g>
</g>
<defs>
<clipPath id="clip0_3563_15837">
<rect width="16" height="16" rx="8" fill="white"/>
</clipPath>
<clipPath id="clip1_3563_15837">
<rect width="21.0527" height="16" fill="white" transform="translate(-3)"/>
</clipPath>
</defs>
</svg>
