<svg width="12" height="16" viewBox="0 0 12 16" fill="none" xmlns="http://www.w3.org/2000/svg">
<path fill-rule="evenodd" clip-rule="evenodd" d="M1.79134 10.9815C0.930657 10.0976 0.5 8.7095 0.5 6.92947C0.5 4.93637 0.5 2.99699 0.5 1.00392C0.5 0.864255 0.617577 0.75 0.761259 0.75H3.77884C3.92253 0.75 4.04007 0.864255 4.04007 1.00392C4.04007 3.04024 4.04007 5.0766 4.04007 7.1129C4.04007 7.69022 4.1251 8.35229 4.48622 8.83086C5.0475 9.57469 6.27197 9.57469 6.83325 8.83086C7.19437 8.35229 7.27941 7.69022 7.27941 7.1129V6.0499H10.8195V6.92947C10.8195 8.7095 10.3888 10.0976 9.52814 10.9815C7.80064 12.7558 3.51883 12.7558 1.79134 10.9815Z" fill="#0E397A"/>
<path fill-rule="evenodd" clip-rule="evenodd" d="M7.27932 5.37987C7.27932 3.92525 7.27932 2.47059 7.27932 1.01593C7.27932 0.869705 7.40241 0.75 7.55295 0.75H8.04678C8.04782 2.23975 9.28573 3.44731 10.8186 3.44731H10.8194C10.8194 4.09142 10.8194 4.73563 10.8194 5.37988C9.63942 5.37988 8.45933 5.37987 7.27932 5.37987Z" fill="#0E397A"/>
<path fill-rule="evenodd" clip-rule="evenodd" d="M8.73774 0.750004C9.34046 0.750004 9.94318 0.750004 10.5459 0.750004C10.6964 0.750004 10.8195 0.869683 10.8195 1.01596C10.8195 1.60256 10.8195 2.18917 10.8195 2.77578C9.6698 2.77578 8.73771 1.86978 8.73771 0.752205L8.73774 0.750004Z" fill="#FF6620"/>
<path fill-rule="evenodd" clip-rule="evenodd" d="M1.09239 14.9532C1.49194 14.9532 1.68484 14.7371 1.68484 14.4195V13.6542H1.39942V14.4118C1.39942 14.5897 1.29511 14.7122 1.09239 14.7122C0.889671 14.7122 0.783397 14.5897 0.783397 14.4118V13.6542H0.5V14.4214C0.5 14.7351 0.692899 14.9532 1.09239 14.9532ZM11.5 13.5445C11.5 13.6758 11.3906 13.782 11.2556 13.782C11.1207 13.782 11.0113 13.6758 11.0113 13.5445C11.0113 13.4133 11.1207 13.307 11.2556 13.307H11.5V13.5445ZM3.41016 14.9303V14.6912H2.77646L3.39647 13.8723V13.6542H2.41037V13.8934H3.03038L2.41037 14.7103V14.9303H3.41016ZM4.78157 14.9532C5.07086 14.9532 5.23619 14.7983 5.33068 14.6395L5.09057 14.5267C5.03544 14.6319 4.91737 14.7122 4.78157 14.7122C4.54342 14.7122 4.37028 14.5343 4.37028 14.2932C4.37028 14.0521 4.54342 13.8743 4.78157 13.8743C4.91737 13.8743 5.03544 13.9565 5.09057 14.0598L5.33068 13.9449C5.23821 13.7863 5.07086 13.6332 4.78157 13.6332C4.38792 13.6332 4.0829 13.901 4.0829 14.2932C4.0829 14.6854 4.38792 14.9532 4.78157 14.9532ZM7.2591 14.9303L6.75323 13.6542H6.40297L5.89512 14.9303H6.21401L6.29664 14.7141H6.8595L6.94023 14.9303H7.2591ZM6.78282 14.475H6.37338L6.57813 13.9258L6.78282 14.475ZM9.074 15.25L8.59226 14.4443C8.73395 14.4118 8.87963 14.2914 8.87963 14.0656C8.87963 13.8284 8.71234 13.6542 8.43877 13.6542H7.82471V14.9303H8.10417V14.4769H8.30886L8.75317 15.25H9.074ZM8.39744 14.2378H8.10417V13.8934H8.39744C8.50956 13.8934 8.59422 13.9584 8.59422 14.0656C8.59422 14.1727 8.50956 14.2378 8.39744 14.2378ZM10.1228 14.9303C10.5341 14.9303 10.8195 14.6778 10.8195 14.2932C10.8195 13.9086 10.5341 13.6542 10.1228 13.6542H9.6052V14.9303H10.1228ZM10.1228 14.6912H9.88467V13.8934H10.1228C10.3925 13.8934 10.5341 14.0674 10.5341 14.2932C10.5341 14.5094 10.3826 14.6912 10.1228 14.6912Z" fill="#0E397A"/>
</svg>
