<svg width="107" height="126" viewBox="0 0 107 126" fill="none" xmlns="http://www.w3.org/2000/svg">
<path fill-rule="evenodd" clip-rule="evenodd" d="M65.2167 39.62C63.2512 37.6707 60.7471 36.3432 58.0209 35.8054C55.2947 35.2676 52.4689 35.5436 49.9009 36.5986C47.333 37.6536 45.138 39.4401 43.5938 41.7323C42.0495 44.0244 41.2253 46.7192 41.2253 49.476C41.2253 52.2327 42.0495 54.9276 43.5938 57.2197C45.138 59.5119 47.333 61.2984 49.9009 62.3534C52.4689 63.4083 55.2947 63.6844 58.0209 63.1466C60.7471 62.6088 63.2512 61.2813 65.2167 59.332C66.5217 58.0377 67.557 56.5011 68.2632 54.81C68.9695 53.1189 69.333 51.3064 69.333 49.476C69.333 47.6456 68.9695 45.8331 68.2632 44.142C67.557 42.4509 66.5217 40.9143 65.2167 39.62ZM55.279 31.4468C58.8745 31.4454 62.3897 32.5015 65.38 34.4816C68.3703 36.4616 70.7014 39.2767 72.0785 42.5707C73.4556 45.8647 73.8168 49.4898 73.1165 52.9875C72.4163 56.4851 70.6859 59.6983 68.1443 62.2206C65.6027 64.7429 62.364 66.461 58.8378 67.1577C55.3115 67.8544 51.6562 67.4984 48.334 66.1347C45.0119 64.7709 42.172 62.4607 40.1737 59.4963C38.1754 56.5318 37.1084 53.0462 37.1075 49.4802C37.1075 44.6988 39.0226 40.1132 42.4314 36.7321C45.8403 33.351 50.4637 31.4514 55.2847 31.451L55.279 31.4468ZM8.04697 107.363C7.68813 106.955 7.50758 106.422 7.54504 105.881C7.5825 105.341 7.8349 104.837 8.24671 104.481C8.65853 104.125 9.19603 103.946 9.74097 103.983C10.2859 104.021 10.7936 104.271 11.1525 104.679L15.5807 109.677L31.6023 95.7138C31.8028 95.5225 32.0405 95.3736 32.3007 95.276C32.561 95.1785 32.8386 95.1344 33.1166 95.1464C33.3945 95.1584 33.6672 95.2263 33.9179 95.3459C34.1687 95.4655 34.3923 95.6344 34.5753 95.8422C34.7583 96.0501 34.8969 96.2927 34.9825 96.5552C35.0682 96.8178 35.0992 97.0948 35.0738 97.3696C35.0483 97.6444 34.9668 97.9112 34.8342 98.1539C34.7017 98.3965 34.5209 98.6099 34.3027 98.7812L16.7396 114.087C16.5365 114.264 16.3003 114.399 16.0445 114.485C15.7888 114.57 15.5185 114.605 15.2491 114.588C14.9797 114.57 14.7165 114.499 14.4745 114.381C14.2325 114.262 14.0165 114.097 13.8388 113.896L8.05121 107.363H8.04697ZM36.317 89.9808C33.3418 87.0301 29.5511 85.0206 25.4243 84.2066C21.2975 83.3925 17.02 83.8104 13.1327 85.4074C9.24543 87.0043 5.9229 89.7087 3.58529 93.1785C1.24769 96.6482 0 100.728 0 104.901C0 109.074 1.24769 113.153 3.58529 116.623C5.9229 120.092 9.24543 122.797 13.1327 124.394C17.02 125.991 21.2975 126.409 25.4243 125.595C29.5511 124.781 33.3418 122.771 36.317 119.82C40.3062 115.863 42.5472 110.496 42.5472 104.901C42.5472 99.3048 40.3062 93.9381 36.317 89.9808ZM31.4259 81.8048C36.6198 84.052 40.9073 87.9567 43.6067 92.8982C46.3061 97.8397 47.2625 103.534 46.3239 109.077C49.2261 110.803 52.3839 112.547 55.2847 114.05C65.1094 108.965 77.7291 101.296 86.4372 92.1494C85.1343 87.3026 81.4727 82.9948 76.3034 79.8294C63.5679 72.0244 43.3934 72.3604 31.4259 81.8048ZM26.8749 80.3264C23.2716 79.5251 19.5363 79.5065 15.9251 80.2718C14.768 77.6319 14.1583 74.788 14.1324 71.9096V32.5192C29.0995 29.445 43.1694 23.0463 55.2847 13.804C67.4 23.0463 81.4699 29.445 96.437 32.5192V71.9096C96.437 77.707 93.7437 83.3378 89.5583 88.5836C87.2418 83.4569 83.3603 79.1812 78.4617 76.3602C71.4502 72.2443 63.4317 70.1219 55.2847 70.2254C44.908 70.2254 34.1107 73.5252 26.8749 80.3264ZM42.3587 118.948C43.5702 117.163 44.5456 115.23 45.2609 113.198C48.2662 114.96 51.3407 116.628 54.3432 118.161C54.6361 118.313 54.9615 118.391 55.2918 118.391C55.622 118.391 55.9474 118.313 56.2403 118.161C71.0099 110.562 100.565 93.177 100.565 71.9166V30.8672C100.564 30.3639 100.377 29.8784 100.039 29.5035C99.7 29.1287 99.2338 28.8909 98.7294 28.8358C90.9406 27.288 83.3564 24.8595 76.1255 21.5978C69.1321 18.4234 62.5646 14.3973 56.5749 9.6124C56.2049 9.31752 55.7435 9.15852 55.2689 9.16235C54.7943 9.16618 54.3356 9.33259 53.9705 9.6334C47.9871 14.4092 41.4278 18.4282 34.4439 21.5978C27.1594 24.8864 19.5162 27.3292 11.6663 28.8778C11.2009 28.9703 10.7822 29.2196 10.4811 29.5835C10.1801 29.9474 10.0153 30.4035 10.0147 30.8742L10.0063 71.9166C10.0383 75.1939 10.7024 78.4349 11.9627 81.4646C9.94765 82.2522 8.04251 83.2925 6.29377 84.56C4.51985 80.5743 3.59246 76.269 3.56939 71.9124V23.758C23.2795 21.014 40.8582 13.5716 55.2847 0C69.7112 13.5716 87.2899 21.014 107 23.758V71.9096C107 97.279 74.0462 116.756 55.2833 125.784C51.2193 123.824 46.5737 121.393 42.3587 118.948Z" fill="url(#paint0_linear_7707_39574)"/>
<defs>
<linearGradient id="paint0_linear_7707_39574" x1="53.5" y1="0" x2="53.5" y2="126" gradientUnits="userSpaceOnUse">
<stop stop-color="#003CA5"/>
<stop offset="1" stop-color="#287CDF"/>
</linearGradient>
</defs>
</svg>
