<svg width="27" height="23" viewBox="0 0 27 23" fill="none" xmlns="http://www.w3.org/2000/svg">
<path d="M11.9694 0.5625C10.8932 0.5625 10.0146 1.44035 10.0146 2.51562V7.59375H19.1373C20.3954 7.59375 21.4243 8.63263 21.4243 9.88638V16.2386C21.4243 17.4924 20.3954 18.5312 19.1373 18.5312H10.0146V20.4844C10.0146 21.5596 10.8932 22.4375 11.9694 22.4375H24.4801C25.5563 22.4375 26.4349 21.5596 26.4349 20.4844V6.8125H21.7434C20.8838 6.8125 20.1795 6.10887 20.1795 5.25V0.5625H11.9694ZM20.9615 0.746368V5.25C20.9615 5.68957 21.3034 6.03125 21.7434 6.03125H26.176C26.1361 5.97599 26.0949 5.92158 26.047 5.87256L21.2409 0.956177C21.1577 0.871079 21.0618 0.804462 20.9615 0.746368Z" fill="#664AEA"/>
<path fill-rule="evenodd" clip-rule="evenodd" d="M3 8.5238C1.34315 8.5238 0 9.86695 0 11.5238V14.4524C0 16.1092 1.34315 17.4524 3 17.4524H17.2553C18.9122 17.4524 20.2553 16.1092 20.2553 14.4524V11.5238C20.2553 9.86695 18.9122 8.5238 17.2553 8.5238H3ZM2.61307 15.1022C2.65307 15.1662 2.71107 15.1982 2.78707 15.1982H3.03907C3.14307 15.1982 3.23907 15.1702 3.32707 15.1142C3.41907 15.0582 3.48507 14.9842 3.52507 14.8922L4.16707 13.5062C4.16707 13.5022 4.16907 13.5002 4.17307 13.5002C4.17707 13.5002 4.17907 13.5022 4.17907 13.5062L4.82107 14.8922C4.86107 14.9842 4.92507 15.0582 5.01307 15.1142C5.10507 15.1702 5.20307 15.1982 5.30707 15.1982H5.58307C5.66307 15.1982 5.72107 15.1662 5.75707 15.1022C5.79707 15.0342 5.79907 14.9662 5.76307 14.8982L4.76107 13.0262C4.74907 12.9942 4.74907 12.9642 4.76107 12.9362L5.73307 11.1182C5.76907 11.0502 5.76707 10.9842 5.72707 10.9202C5.69107 10.8522 5.63307 10.8182 5.55307 10.8182H5.31907C5.21507 10.8182 5.11907 10.8462 5.03107 10.9022C4.94307 10.9582 4.87707 11.0322 4.83307 11.1242L4.20307 12.4502C4.20307 12.4542 4.20107 12.4562 4.19707 12.4562C4.19307 12.4562 4.19107 12.4542 4.19107 12.4502L3.56107 11.1242C3.51707 11.0322 3.45107 10.9582 3.36307 10.9022C3.27507 10.8462 3.17907 10.8182 3.07507 10.8182H2.81707C2.74107 10.8182 2.68307 10.8522 2.64307 10.9202C2.60307 10.9842 2.60107 11.0502 2.63707 11.1182L3.60907 12.9362C3.62507 12.9722 3.62507 13.0022 3.60907 13.0262L2.60707 14.8982C2.57107 14.9662 2.57307 15.0342 2.61307 15.1022ZM6.59609 15.0962C6.66409 15.1642 6.74409 15.1982 6.83609 15.1982H8.96009C9.05209 15.1982 9.13009 15.1642 9.19409 15.0962C9.26209 15.0282 9.29609 14.9482 9.29609 14.8562V14.8382C9.29609 14.7462 9.26209 14.6682 9.19409 14.6042C9.13009 14.5362 9.05209 14.5022 8.96009 14.5022H7.41809C7.38609 14.5022 7.37009 14.4842 7.37009 14.4482V11.1602C7.37009 11.0682 7.33609 10.9882 7.26809 10.9202C7.20009 10.8522 7.12009 10.8182 7.02809 10.8182H6.83609C6.74409 10.8182 6.66409 10.8522 6.59609 10.9202C6.53209 10.9882 6.50009 11.0682 6.50009 11.1602V14.8562C6.50009 14.9482 6.53209 15.0282 6.59609 15.0962ZM10.1427 12.7682C10.3587 12.9962 10.7067 13.1902 11.1867 13.3502C11.4147 13.4302 11.5767 13.5222 11.6727 13.6262C11.7687 13.7262 11.8167 13.8542 11.8167 14.0102C11.8167 14.3942 11.5627 14.5862 11.0547 14.5862C10.7627 14.5862 10.4847 14.5202 10.2207 14.3882C10.1527 14.3562 10.0867 14.3582 10.0227 14.3942C9.9587 14.4262 9.9267 14.4802 9.9267 14.5562V14.6282C9.9267 14.7362 9.9527 14.8342 10.0047 14.9222C10.0607 15.0102 10.1367 15.0722 10.2327 15.1082C10.4967 15.2082 10.7907 15.2582 11.1147 15.2582C12.1507 15.2582 12.6687 14.8382 12.6687 13.9982C12.6687 13.6502 12.5627 13.3662 12.3507 13.1462C12.1427 12.9262 11.7687 12.7302 11.2287 12.5582C10.8527 12.4342 10.6647 12.2282 10.6647 11.9402C10.6647 11.7762 10.7167 11.6482 10.8207 11.5562C10.9247 11.4642 11.0767 11.4182 11.2767 11.4182C11.5887 11.4182 11.8947 11.4762 12.1947 11.5922C12.2667 11.6202 12.3367 11.6142 12.4047 11.5742C12.4727 11.5302 12.5067 11.4702 12.5067 11.3942V11.3402C12.5067 11.2362 12.4767 11.1422 12.4167 11.0582C12.3607 10.9702 12.2847 10.9122 12.1887 10.8842C11.9127 10.8002 11.5887 10.7582 11.2167 10.7582C10.7767 10.7582 10.4347 10.8642 10.1907 11.0762C9.9467 11.2882 9.8247 11.5762 9.8247 11.9402C9.8247 12.2642 9.9307 12.5402 10.1427 12.7682ZM13.5689 15.0962C13.6369 15.1642 13.7169 15.1982 13.8089 15.1982H13.9169C14.0089 15.1982 14.0889 15.1642 14.1569 15.0962C14.2249 15.0282 14.2589 14.9482 14.2589 14.8562V12.2462C14.2589 12.2422 14.2609 12.2402 14.2649 12.2402C14.2689 12.2402 14.2709 12.2422 14.2709 12.2462L14.9909 13.7882C15.0349 13.8802 15.1009 13.9562 15.1889 14.0162C15.2809 14.0722 15.3769 14.1002 15.4769 14.1002H15.5129C15.6129 14.1002 15.7069 14.0722 15.7949 14.0162C15.8869 13.9562 15.9549 13.8802 15.9989 13.7882L16.7189 12.2462C16.7189 12.2422 16.7209 12.2402 16.7249 12.2402C16.7289 12.2402 16.7309 12.2422 16.7309 12.2462V14.8562C16.7309 14.9482 16.7649 15.0282 16.8329 15.0962C16.9009 15.1642 16.9809 15.1982 17.0729 15.1982H17.2049C17.2969 15.1982 17.3769 15.1642 17.4449 15.0962C17.5129 15.0282 17.5469 14.9482 17.5469 14.8562V11.1602C17.5469 11.0682 17.5129 10.9882 17.4449 10.9202C17.3769 10.8522 17.2969 10.8182 17.2049 10.8182H17.0309C16.9269 10.8182 16.8309 10.8462 16.7429 10.9022C16.6549 10.9582 16.5909 11.0322 16.5509 11.1242L15.5009 13.3922C15.5009 13.3962 15.4989 13.3982 15.4949 13.3982C15.4909 13.3982 15.4889 13.3962 15.4889 13.3922L14.4389 11.1242C14.3989 11.0322 14.3349 10.9582 14.2469 10.9022C14.1589 10.8462 14.0629 10.8182 13.9589 10.8182H13.8089C13.7169 10.8182 13.6369 10.8522 13.5689 10.9202C13.5009 10.9882 13.4669 11.0682 13.4669 11.1602V14.8562C13.4669 14.9482 13.5009 15.0282 13.5689 15.0962Z" fill="#664AEA"/>
</svg>
