<svg width="27" height="23" viewBox="0 0 27 23" fill="none" xmlns="http://www.w3.org/2000/svg">
<path d="M11.9694 0.5625C10.8932 0.5625 10.0146 1.44035 10.0146 2.51562V7.59375H19.1373C20.3954 7.59375 21.4243 8.63263 21.4243 9.88638V16.2386C21.4243 17.4924 20.3954 18.5312 19.1373 18.5312H10.0146V20.4844C10.0146 21.5596 10.8932 22.4375 11.9694 22.4375H24.4801C25.5563 22.4375 26.4349 21.5596 26.4349 20.4844V6.8125H21.7434C20.8838 6.8125 20.1795 6.10887 20.1795 5.25V0.5625H11.9694ZM20.9615 0.746368V5.25C20.9615 5.68957 21.3034 6.03125 21.7434 6.03125H26.176C26.1361 5.97599 26.0949 5.92158 26.047 5.87256L21.2409 0.956177C21.1577 0.871079 21.0618 0.804462 20.9615 0.746368Z" fill="#664AEA"/>
<path fill-rule="evenodd" clip-rule="evenodd" d="M3 8.5238C1.34315 8.5238 0 9.86695 0 11.5238V14.4524C0 16.1092 1.34315 17.4524 3 17.4524H17.2553C18.9122 17.4524 20.2553 16.1092 20.2553 14.4524V11.5238C20.2553 9.86695 18.9122 8.5238 17.2553 8.5238H3ZM3.32206 15.1022C3.36206 15.1662 3.42006 15.1982 3.49606 15.1982H3.74806C3.85206 15.1982 3.94806 15.1702 4.03606 15.1142C4.12806 15.0582 4.19406 14.9842 4.23406 14.8922L4.87606 13.5062C4.87606 13.5022 4.87806 13.5002 4.88206 13.5002C4.88606 13.5002 4.88806 13.5022 4.88806 13.5062L5.53006 14.8922C5.57006 14.9842 5.63406 15.0582 5.72206 15.1142C5.81406 15.1702 5.91206 15.1982 6.01606 15.1982H6.29206C6.37206 15.1982 6.43006 15.1662 6.46606 15.1022C6.50606 15.0342 6.50806 14.9662 6.47206 14.8982L5.47006 13.0262C5.45806 12.9942 5.45806 12.9642 5.47006 12.9362L6.44206 11.1182C6.47806 11.0502 6.47606 10.9842 6.43606 10.9202C6.40006 10.8522 6.34206 10.8182 6.26206 10.8182H6.02806C5.92406 10.8182 5.82806 10.8462 5.74006 10.9022C5.65206 10.9582 5.58606 11.0322 5.54206 11.1242L4.91206 12.4502C4.91206 12.4542 4.91006 12.4562 4.90606 12.4562C4.90206 12.4562 4.90006 12.4542 4.90006 12.4502L4.27006 11.1242C4.22606 11.0322 4.16006 10.9582 4.07206 10.9022C3.98406 10.8462 3.88806 10.8182 3.78406 10.8182H3.52606C3.45006 10.8182 3.39206 10.8522 3.35206 10.9202C3.31206 10.9842 3.31006 11.0502 3.34606 11.1182L4.31806 12.9362C4.33406 12.9722 4.33406 13.0022 4.31806 13.0262L3.31606 14.8982C3.28006 14.9662 3.28206 15.0342 3.32206 15.1022ZM7.30507 15.0962C7.37307 15.1642 7.45307 15.1982 7.54507 15.1982H9.66907C9.76107 15.1982 9.83907 15.1642 9.90307 15.0962C9.97107 15.0282 10.0051 14.9482 10.0051 14.8562V14.8382C10.0051 14.7462 9.97107 14.6682 9.90307 14.6042C9.83907 14.5362 9.76107 14.5022 9.66907 14.5022H8.12707C8.09507 14.5022 8.07907 14.4842 8.07907 14.4482V11.1602C8.07907 11.0682 8.04507 10.9882 7.97707 10.9202C7.90907 10.8522 7.82907 10.8182 7.73707 10.8182H7.54507C7.45307 10.8182 7.37307 10.8522 7.30507 10.9202C7.24107 10.9882 7.20907 11.0682 7.20907 11.1602V14.8562C7.20907 14.9482 7.24107 15.0282 7.30507 15.0962ZM10.8517 12.7682C11.0677 12.9962 11.4157 13.1902 11.8957 13.3502C12.1237 13.4302 12.2857 13.5222 12.3817 13.6262C12.4777 13.7262 12.5257 13.8542 12.5257 14.0102C12.5257 14.3942 12.2717 14.5862 11.7637 14.5862C11.4717 14.5862 11.1937 14.5202 10.9297 14.3882C10.8617 14.3562 10.7957 14.3582 10.7317 14.3942C10.6677 14.4262 10.6357 14.4802 10.6357 14.5562V14.6282C10.6357 14.7362 10.6617 14.8342 10.7137 14.9222C10.7697 15.0102 10.8457 15.0722 10.9417 15.1082C11.2057 15.2082 11.4997 15.2582 11.8237 15.2582C12.8597 15.2582 13.3777 14.8382 13.3777 13.9982C13.3777 13.6502 13.2717 13.3662 13.0597 13.1462C12.8517 12.9262 12.4777 12.7302 11.9377 12.5582C11.5617 12.4342 11.3737 12.2282 11.3737 11.9402C11.3737 11.7762 11.4257 11.6482 11.5297 11.5562C11.6337 11.4642 11.7857 11.4182 11.9857 11.4182C12.2977 11.4182 12.6037 11.4762 12.9037 11.5922C12.9757 11.6202 13.0457 11.6142 13.1137 11.5742C13.1817 11.5302 13.2157 11.4702 13.2157 11.3942V11.3402C13.2157 11.2362 13.1857 11.1422 13.1257 11.0582C13.0697 10.9702 12.9937 10.9122 12.8977 10.8842C12.6217 10.8002 12.2977 10.7582 11.9257 10.7582C11.4857 10.7582 11.1437 10.8642 10.8997 11.0762C10.6557 11.2882 10.5337 11.5762 10.5337 11.9402C10.5337 12.2642 10.6397 12.5402 10.8517 12.7682ZM13.8982 15.1022C13.9382 15.1662 13.9962 15.1982 14.0722 15.1982H14.3242C14.4282 15.1982 14.5242 15.1702 14.6122 15.1142C14.7042 15.0582 14.7702 14.9842 14.8102 14.8922L15.4522 13.5062C15.4522 13.5022 15.4542 13.5002 15.4582 13.5002C15.4622 13.5002 15.4642 13.5022 15.4642 13.5062L16.1062 14.8922C16.1462 14.9842 16.2102 15.0582 16.2982 15.1142C16.3902 15.1702 16.4882 15.1982 16.5922 15.1982H16.8682C16.9482 15.1982 17.0062 15.1662 17.0422 15.1022C17.0822 15.0342 17.0842 14.9662 17.0482 14.8982L16.0462 13.0262C16.0342 12.9942 16.0342 12.9642 16.0462 12.9362L17.0182 11.1182C17.0542 11.0502 17.0522 10.9842 17.0122 10.9202C16.9762 10.8522 16.9182 10.8182 16.8382 10.8182H16.6042C16.5002 10.8182 16.4042 10.8462 16.3162 10.9022C16.2282 10.9582 16.1622 11.0322 16.1182 11.1242L15.4882 12.4502C15.4882 12.4542 15.4862 12.4562 15.4822 12.4562C15.4782 12.4562 15.4762 12.4542 15.4762 12.4502L14.8462 11.1242C14.8022 11.0322 14.7362 10.9582 14.6482 10.9022C14.5602 10.8462 14.4642 10.8182 14.3602 10.8182H14.1022C14.0262 10.8182 13.9682 10.8522 13.9282 10.9202C13.8882 10.9842 13.8862 11.0502 13.9222 11.1182L14.8942 12.9362C14.9102 12.9722 14.9102 13.0022 14.8942 13.0262L13.8922 14.8982C13.8562 14.9662 13.8582 15.0342 13.8982 15.1022Z" fill="#664AEA"/>
</svg>
